<svg xmlns="http://www.w3.org/2000/svg" viewBox="0 0 200 300" fill="none">
  <!-- Left coral branch cluster -->
  <path d="M10 300 C10 260 5 220 15 180 C25 140 10 120 20 80 C25 60 18 40 25 20 C28 12 22 5 26 2" stroke="#FF8EC6" stroke-width="3" stroke-linecap="round" opacity="0.7"/>
  <path d="M25 300 C25 270 30 240 22 200 C14 160 28 130 25 100 C23 80 30 55 28 35" stroke="#FFB8D8" stroke-width="2.5" stroke-linecap="round" opacity="0.6"/>
  <path d="M40 300 C40 275 35 250 42 220 C49 190 38 165 45 140 C50 120 43 100 48 80" stroke="#C8A8FF" stroke-width="2" stroke-linecap="round" opacity="0.5"/>
  <!-- Coral polyps -->
  <circle cx="26" cy="2" r="6" fill="#FF8EC6" opacity="0.6"/>
  <circle cx="28" cy="35" r="5" fill="#FFB8D8" opacity="0.5"/>
  <circle cx="48" cy="80" r="5" fill="#C8A8FF" opacity="0.5"/>
  <circle cx="15" cy="80" r="4" fill="#FF8EC6" opacity="0.4"/>
  <circle cx="30" cy="140" r="4" fill="#5EEBC4" opacity="0.4"/>
  <!-- Right coral branch cluster -->
  <path d="M160 300 C160 265 165 230 158 195 C151 160 163 130 160 100 C158 80 164 55 162 30" stroke="#5EEBC4" stroke-width="3" stroke-linecap="round" opacity="0.7"/>
  <path d="M175 300 C175 270 170 240 178 205 C186 170 173 140 180 110 C184 90 177 70 182 50" stroke="#38B2D8" stroke-width="2.5" stroke-linecap="round" opacity="0.6"/>
  <path d="M190 300 C190 280 185 260 192 235 C199 210 188 185 195 160" stroke="#5EEBC4" stroke-width="2" stroke-linecap="round" opacity="0.5"/>
  <!-- Right polyps -->
  <circle cx="162" cy="30" r="6" fill="#5EEBC4" opacity="0.6"/>
  <circle cx="182" cy="50" r="5" fill="#38B2D8" opacity="0.5"/>
  <circle cx="195" cy="160" r="4" fill="#5EEBC4" opacity="0.4"/>
  <!-- Fan coral center bottom -->
  <path d="M80 300 C80 280 85 265 90 250 C95 235 88 220 95 205" stroke="#FF8EC6" stroke-width="2" stroke-linecap="round" opacity="0.4"/>
  <path d="M120 300 C120 282 115 268 110 255 C105 242 112 228 108 215" stroke="#C8A8FF" stroke-width="2" stroke-linecap="round" opacity="0.4"/>
  <ellipse cx="95" cy="200" rx="8" ry="6" fill="#FF8EC6" opacity="0.3"/>
  <ellipse cx="108" cy="210" rx="7" ry="5" fill="#C8A8FF" opacity="0.3"/>
</svg>
