<svg xmlns="http://www.w3.org/2000/svg" viewBox="0 0 80 60" fill="none">
  <defs>
    <radialGradient id="pearlShine" cx="0.4" cy="0.4" r="0.6">
      <stop offset="0%" stop-color="white"/>
      <stop offset="50%" stop-color="#F8FDFF"/>
      <stop offset="100%" stop-color="#A8E8F8"/>
    </radialGradient>
    <linearGradient id="shellGrad" x1="0" y1="0" x2="1" y2="1">
      <stop offset="0%" stop-color="#FFB8D8" stop-opacity="0.6"/>
      <stop offset="100%" stop-color="#FF8EC6" stop-opacity="0.4"/>
    </linearGradient>
  </defs>
  <!-- Bottom shell half -->
  <path d="M10 35 C10 50 25 58 40 58 C55 58 70 50 70 35 C70 30 60 28 40 28 C20 28 10 30 10 35Z" fill="url(#shellGrad)"/>
  <path d="M15 36 C20 34 30 32 40 32 C50 32 60 34 65 36" stroke="#FF8EC6" stroke-width="0.8" opacity="0.4"/>
  <path d="M18 40 C25 38 33 37 40 37 C47 37 55 38 62 40" stroke="#FF8EC6" stroke-width="0.6" opacity="0.3"/>
  <!-- Top shell half -->
  <path d="M10 35 C10 20 25 10 40 10 C55 10 70 20 70 35 C70 30 60 28 40 28 C20 28 10 30 10 35Z" fill="url(#shellGrad)" opacity="0.8"/>
  <path d="M40 10 L40 28" stroke="#FF8EC6" stroke-width="0.6" opacity="0.3"/>
  <path d="M25 14 L32 28" stroke="#FF8EC6" stroke-width="0.5" opacity="0.25"/>
  <path d="M55 14 L48 28" stroke="#FF8EC6" stroke-width="0.5" opacity="0.25"/>
  <!-- Pearl -->
  <circle cx="40" cy="38" r="8" fill="url(#pearlShine)"/>
  <ellipse cx="37" cy="35" rx="3" ry="2" fill="white" opacity="0.6"/>
</svg>
