<svg xmlns="http://www.w3.org/2000/svg" viewBox="0 0 200 80" fill="none">
  <!-- Pink anemone -->
  <g id="anemone-pink">
    <ellipse cx="30" cy="70" rx="12" ry="6" fill="#FF8EC6" opacity="0.3"/>
    <path d="M22 70 C22 60 20 50 23 42 C24 38 22 34 24 30" stroke="#FF8EC6" stroke-width="2" stroke-linecap="round" opacity="0.6"/>
    <path d="M27 70 C27 58 26 48 28 38 C29 32 27 26 29 20" stroke="#FF8EC6" stroke-width="1.8" stroke-linecap="round" opacity="0.55"/>
    <path d="M33 70 C33 59 34 49 32 40 C31 34 33 28 32 22" stroke="#FFB8D8" stroke-width="1.8" stroke-linecap="round" opacity="0.5"/>
    <path d="M38 70 C38 62 39 54 37 46 C36 40 38 34 37 28" stroke="#FF8EC6" stroke-width="2" stroke-linecap="round" opacity="0.55"/>
    <circle cx="24" cy="28" r="3" fill="#FF8EC6" opacity="0.5"/>
    <circle cx="29" cy="18" r="3" fill="#FFB8D8" opacity="0.45"/>
    <circle cx="32" cy="20" r="2.5" fill="#FF8EC6" opacity="0.4"/>
    <circle cx="37" cy="26" r="3" fill="#FF8EC6" opacity="0.5"/>
  </g>
  <!-- Purple anemone -->
  <g id="anemone-purple" transform="translate(55,0)">
    <ellipse cx="30" cy="70" rx="10" ry="5" fill="#C8A8FF" opacity="0.3"/>
    <path d="M24 70 C24 60 22 52 25 44 C26 38 24 32 26 26" stroke="#C8A8FF" stroke-width="1.8" stroke-linecap="round" opacity="0.55"/>
    <path d="M30 70 C30 58 29 48 31 38 C32 30 30 24 32 16" stroke="#C8A8FF" stroke-width="2" stroke-linecap="round" opacity="0.6"/>
    <path d="M36 70 C36 61 37 52 35 44 C34 38 36 32 35 26" stroke="#C8A8FF" stroke-width="1.8" stroke-linecap="round" opacity="0.5"/>
    <circle cx="26" cy="24" r="3" fill="#C8A8FF" opacity="0.5"/>
    <circle cx="32" cy="14" r="3.5" fill="#C8A8FF" opacity="0.45"/>
    <circle cx="35" cy="24" r="2.5" fill="#C8A8FF" opacity="0.45"/>
  </g>
  <!-- Teal anemone -->
  <g id="anemone-teal" transform="translate(110,5)">
    <ellipse cx="28" cy="65" rx="11" ry="5" fill="#5EEBC4" opacity="0.3"/>
    <path d="M20 65 C20 55 18 47 21 39 C22 33 20 27 22 21" stroke="#5EEBC4" stroke-width="1.8" stroke-linecap="round" opacity="0.55"/>
    <path d="M26 65 C26 54 25 44 27 34 C28 27 26 20 28 14" stroke="#5EEBC4" stroke-width="2" stroke-linecap="round" opacity="0.6"/>
    <path d="M32 65 C32 56 33 47 31 39 C30 33 32 27 31 21" stroke="#38B2D8" stroke-width="1.8" stroke-linecap="round" opacity="0.5"/>
    <path d="M36 65 C36 58 37 51 35 44 C34 39 36 34 35 29" stroke="#5EEBC4" stroke-width="1.5" stroke-linecap="round" opacity="0.45"/>
    <circle cx="22" cy="19" r="3" fill="#5EEBC4" opacity="0.5"/>
    <circle cx="28" cy="12" r="3" fill="#5EEBC4" opacity="0.45"/>
    <circle cx="31" cy="19" r="2.5" fill="#38B2D8" opacity="0.4"/>
    <circle cx="35" cy="27" r="2.5" fill="#5EEBC4" opacity="0.45"/>
  </g>
  <!-- Gold anemone -->
  <g id="anemone-gold" transform="translate(160,8)">
    <ellipse cx="22" cy="62" rx="9" ry="4" fill="#FFE08A" opacity="0.3"/>
    <path d="M16 62 C16 53 14 46 17 38 C18 33 16 28 18 22" stroke="#FFE08A" stroke-width="1.8" stroke-linecap="round" opacity="0.55"/>
    <path d="M22 62 C22 52 21 43 23 34 C24 28 22 22 24 16" stroke="#FFE08A" stroke-width="2" stroke-linecap="round" opacity="0.6"/>
    <path d="M28 62 C28 54 29 46 27 39 C26 34 28 29 27 24" stroke="#FFE08A" stroke-width="1.8" stroke-linecap="round" opacity="0.5"/>
    <circle cx="18" cy="20" r="3" fill="#FFE08A" opacity="0.5"/>
    <circle cx="24" cy="14" r="3" fill="#FFE08A" opacity="0.45"/>
    <circle cx="27" cy="22" r="2.5" fill="#FFE08A" opacity="0.45"/>
  </g>
</svg>
