<svg xmlns="http://www.w3.org/2000/svg" viewBox="0 0 144 24" fill="none" stroke="currentColor" stroke-width="2" stroke-linecap="round" stroke-linejoin="round">
  <!-- Anchor -->
  <g id="icon-anchor">
    <circle cx="12" cy="5" r="3" fill="none"/>
    <line x1="12" y1="8" x2="12" y2="21"/>
    <path d="M5 18 C5 14 8 12 12 12 C16 12 19 14 19 18"/>
    <line x1="8" y1="21" x2="16" y2="21"/>
  </g>
  <!-- Diving mask -->
  <g id="icon-mask" transform="translate(24,0)">
    <path d="M4 10 C4 6 8 4 12 4 C16 4 20 6 20 10 L20 14 C20 18 16 20 12 20 C8 20 4 18 4 14Z"/>
    <circle cx="9" cy="12" r="3" fill="none"/>
    <circle cx="15" cy="12" r="3" fill="none"/>
    <line x1="12" y1="11" x2="12" y2="13"/>
  </g>
  <!-- Trident -->
  <g id="icon-trident" transform="translate(48,0)">
    <line x1="12" y1="4" x2="12" y2="22"/>
    <path d="M6 4 L6 9 L12 7 L18 9 L18 4"/>
    <line x1="6" y1="4" x2="6" y2="2"/>
    <line x1="12" y1="4" x2="12" y2="2"/>
    <line x1="18" y1="4" x2="18" y2="2"/>
  </g>
  <!-- Seahorse -->
  <g id="icon-seahorse" transform="translate(72,0)">
    <path d="M12 3 C16 3 18 6 18 9 C18 12 16 15 13 17 C11 18 10 17 10 15 L10 12 C8 12 6 10 6 8 C6 6 8 4 10 4"/>
    <circle cx="14" cy="7" r="1" fill="currentColor"/>
  </g>
  <!-- Starfish -->
  <g id="icon-starfish" transform="translate(96,0)">
    <path d="M12 2 L14 9 L21 9 L15 13 L17 20 L12 16 L7 20 L9 13 L3 9 L10 9Z"/>
  </g>
  <!-- Shell -->
  <g id="icon-shell" transform="translate(120,0)">
    <path d="M6 18 C6 10 10 4 16 4 C20 4 22 8 20 12 C18 16 14 18 10 18 C8 18 6 16 6 14"/>
    <path d="M10 18 C12 16 14 13 15 10" fill="none"/>
    <path d="M8 16 C10 14 12 11 13 8" fill="none"/>
  </g>
</svg>
