<svg xmlns="http://www.w3.org/2000/svg" viewBox="0 0 260 260" width="100%" height="100%">
  <defs>
    <radialGradient id="cream-swirl" cx="50%" cy="48%" r="60%">
      <stop offset="0%" stop-color="#FCF5FF" stop-opacity="0.96"/>
      <stop offset="42%" stop-color="#FFE893" stop-opacity="0.72"/>
      <stop offset="68%" stop-color="#FFA3DF" stop-opacity="0.5"/>
      <stop offset="100%" stop-color="#D5B3FF" stop-opacity="0.22"/>
    </radialGradient>
  </defs>
  <circle cx="130" cy="130" r="108" fill="url(#cream-swirl)" opacity="0.75"/>
  <g fill="none" stroke-linecap="round" filter="drop-shadow(0 12px 22px rgba(213, 179, 255, 0.18))">
    <path d="M70 132 C68 92 110 58 154 72 C202 88 210 150 172 178 C126 212 64 184 54 138" stroke="#FCF5FF" stroke-width="18" opacity="0.86"/>
    <path d="M94 130 C94 104 120 88 146 96 C172 104 180 136 160 154 C136 176 100 160 96 134" stroke="#A3D8FF" stroke-width="12" opacity="0.72"/>
    <path d="M116 128 C118 116 130 110 142 116 C154 122 154 140 142 148 C128 156 114 146 114 132" stroke="#FFA3DF" stroke-width="9" opacity="0.76"/>
  </g>
  <g fill="#FCF5FF" opacity="0.78">
    <circle cx="58" cy="88" r="5"/>
    <circle cx="206" cy="96" r="7"/>
    <circle cx="196" cy="190" r="4"/>
    <path d="M82 206 Q90 206 90 198 Q90 206 98 206 Q90 206 90 214 Q90 206 82 206 Z"/>
  </g>
</svg>
