<svg xmlns="http://www.w3.org/2000/svg" viewBox="0 0 220 180" width="100%" height="100%">
  <g filter="drop-shadow(0 8px 14px rgba(68, 29, 53, 0.08))">
    <g transform="translate(34 24) rotate(-10)">
      <path d="M8 32 C14 10 62 8 74 32 Z" fill="#FFA3DF" stroke="#FCF5FF" stroke-width="3"/>
      <rect x="10" y="30" width="64" height="18" rx="9" fill="#FCF5FF" stroke="#FFA3DF" stroke-width="2"/>
      <path d="M8 46 C18 64 62 66 76 46 Z" fill="#D5B3FF" stroke="#FCF5FF" stroke-width="3"/>
      <circle cx="54" cy="22" r="7" fill="#FFE893" opacity="0.8"/>
    </g>
    <g transform="translate(116 82) rotate(12) scale(0.82)">
      <path d="M8 32 C14 10 62 8 74 32 Z" fill="#A3D8FF" stroke="#FCF5FF" stroke-width="3"/>
      <rect x="10" y="30" width="64" height="18" rx="9" fill="#FCF5FF" stroke="#A3D8FF" stroke-width="2"/>
      <path d="M8 46 C18 64 62 66 76 46 Z" fill="#8EECD4" stroke="#FCF5FF" stroke-width="3"/>
      <circle cx="28" cy="22" r="6" fill="#FFE893" opacity="0.9"/>
    </g>
    <g transform="translate(52 116) rotate(-20) scale(0.55)">
      <path d="M8 32 C14 10 62 8 74 32 Z" fill="#FFE893" stroke="#FCF5FF" stroke-width="3"/>
      <rect x="10" y="30" width="64" height="18" rx="9" fill="#FCF5FF" stroke="#FFE893" stroke-width="2"/>
      <path d="M8 46 C18 64 62 66 76 46 Z" fill="#FFA3DF" stroke="#FCF5FF" stroke-width="3"/>
    </g>
  </g>
  <g fill="#FCF5FF" opacity="0.75">
    <circle cx="34" cy="132" r="3"/>
    <circle cx="170" cy="34" r="4"/>
    <circle cx="192" cy="122" r="2.5"/>
  </g>
</svg>
