<svg xmlns="http://www.w3.org/2000/svg" viewBox="0 0 240 240" width="100%" height="100%">
  <g fill="none" stroke="#FCF5FF" stroke-width="1.4" stroke-linecap="round" opacity="0.55">
    <path d="M34 58 L82 42 L124 78 L176 50 L214 94"/>
    <path d="M50 150 L100 122 L148 146 L202 132"/>
    <path d="M72 198 L120 174 L168 204"/>
  </g>
  <g filter="drop-shadow(0 5px 8px rgba(255, 163, 223, 0.12))">
    <ellipse cx="34" cy="58" rx="14" ry="8" fill="#FFA3DF" transform="rotate(-24 34 58)"/>
    <ellipse cx="82" cy="42" rx="13" ry="8" fill="#FFE893" transform="rotate(18 82 42)"/>
    <ellipse cx="124" cy="78" rx="14" ry="8" fill="#A3D8FF" transform="rotate(-16 124 78)"/>
    <ellipse cx="176" cy="50" rx="13" ry="8" fill="#8EECD4" transform="rotate(24 176 50)"/>
    <ellipse cx="214" cy="94" rx="12" ry="7" fill="#D5B3FF" transform="rotate(-28 214 94)"/>
    <ellipse cx="50" cy="150" rx="13" ry="8" fill="#D5B3FF" transform="rotate(15 50 150)"/>
    <ellipse cx="100" cy="122" rx="12" ry="7" fill="#FFA3DF" transform="rotate(-20 100 122)"/>
    <ellipse cx="148" cy="146" rx="14" ry="8" fill="#FFE893" transform="rotate(18 148 146)"/>
    <ellipse cx="202" cy="132" rx="12" ry="7" fill="#A3D8FF" transform="rotate(-12 202 132)"/>
    <ellipse cx="72" cy="198" rx="12" ry="7" fill="#8EECD4" transform="rotate(20 72 198)"/>
    <ellipse cx="120" cy="174" rx="13" ry="8" fill="#FFA3DF" transform="rotate(-18 120 174)"/>
    <ellipse cx="168" cy="204" rx="12" ry="7" fill="#FFE893" transform="rotate(25 168 204)"/>
  </g>
  <g opacity="0.8">
    <path d="M24 112 Q30 112 30 106 Q30 112 36 112 Q30 112 30 118 Q30 112 24 112 Z" fill="#FCF5FF"/>
    <path d="M152 26 Q158 26 158 20 Q158 26 164 26 Q158 26 158 32 Q158 26 152 26 Z" fill="#FCF5FF"/>
    <path d="M210 190 Q216 190 216 184 Q216 190 222 190 Q216 190 216 196 Q216 190 210 190 Z" fill="#FCF5FF"/>
  </g>
</svg>
