<svg xmlns="http://www.w3.org/2000/svg" viewBox="0 0 200 40" width="100%" height="100%">
  <!-- Icon 1: Parfait Cup (0 - 32) -->
  <g transform="translate(4, 4)">
    <path d="M6,4 L26,4 L22,18 L18,26 C17.8,27.2 16.5,28 15,28 C13.5,28 12.2,27.2 12,26 L8,18 Z" fill="none" stroke="#441D35" stroke-width="2" stroke-linejoin="round"/>
    <line x1="15" y1="28" x2="15" y2="34" stroke="#441D35" stroke-width="2"/>
    <line x1="10" y1="34" x2="20" y2="34" stroke="#441D35" stroke-width="2" stroke-linecap="round"/>
    <circle cx="15" cy="8" r="3" fill="#FFA3DF"/>
    <circle cx="21" cy="12" r="2.5" fill="#8EECD4"/>
    <circle cx="9" cy="14" r="2" fill="#FFE893"/>
  </g>

  <!-- Icon 2: Sweet Cherry (36 - 68) -->
  <g transform="translate(40, 4)">
    <circle cx="12" cy="22" r="8" fill="#FF6B7D" stroke="#441D35" stroke-width="2"/>
    <path d="M12,14 C14,6 24,4 26,8" fill="none" stroke="#441D35" stroke-width="2" stroke-linecap="round"/>
    <circle cx="9" cy="18" r="2" fill="#FCF5FF"/>
  </g>

  <!-- Icon 3: Star Wand (76 - 108) -->
  <g transform="translate(76, 4)">
    <path d="M16,2 L20,11 L29,12 L22,19 L24,28 L16,23 L8,28 L10,19 L3,12 L12,11 Z" fill="#FFE893" stroke="#441D35" stroke-width="2" stroke-linejoin="round"/>
    <line x1="16" y1="23" x2="16" y2="34" stroke="#441D35" stroke-width="2.5" stroke-linecap="round"/>
  </g>

  <!-- Icon 4: Marshmallow Twist (112 - 144) -->
  <g transform="translate(112, 4)">
    <rect x="2" y="10" width="28" height="14" rx="7" fill="none" stroke="#441D35" stroke-width="2"/>
    <path d="M8,10 C12,15 12,19 8,24" fill="none" stroke="#FFA3DF" stroke-width="2" stroke-linecap="round"/>
    <path d="M15,10 C19,15 19,19 15,24" fill="none" stroke="#A3D8FF" stroke-width="2" stroke-linecap="round"/>
    <path d="M22,10 C26,15 26,19 22,24" fill="none" stroke="#8EECD4" stroke-width="2" stroke-linecap="round"/>
  </g>

  <!-- Icon 5: Cute Sugar Star (148 - 180) -->
  <g transform="translate(148, 4)">
    <path d="M16,6 Q20,16 26,20 Q20,24 16,34 Q12,24 6,20 Q12,16 16,6 Z" fill="#D5B3FF" stroke="#441D35" stroke-width="2" stroke-linejoin="round"/>
  </g>
</svg>
