<svg xmlns="http://www.w3.org/2000/svg" viewBox="0 0 100 100" width="100%" height="100%">
  <!-- Gold Candy Star -->
  <path d="M20,10 Q25,10 25,5 Q25,10 30,10 Q25,10 25,15 Q25,10 20,10 Z" fill="#FFE893" filter="drop-shadow(0 2px 4px rgba(255, 232, 147, 0.4))"/>
  
  <!-- Pink Candy Star -->
  <path d="M65,18 Q72,18 72,11 Q72,18 79,18 Q72,18 72,25 Q72,18 65,18 Z" fill="#FFA3DF" filter="drop-shadow(0 2px 4px rgba(255, 163, 223, 0.4))"/>

  <!-- Blue Candy Star -->
  <path d="M12,50 Q18,50 18,44 Q18,50 24,50 Q18,50 18,56 Q18,50 12,50 Z" fill="#A3D8FF" filter="drop-shadow(0 2px 4px rgba(163, 216, 255, 0.4))"/>

  <!-- Mint Candy Star -->
  <path d="M72,62 Q77,62 77,57 Q77,62 82,62 Q77,62 77,67 Q77,62 72,62 Z" fill="#8EECD4" filter="drop-shadow(0 2px 4px rgba(142, 236, 212, 0.4))"/>

  <!-- Purple Candy Star -->
  <path d="M42,75 Q46,75 46,71 Q46,75 50,75 Q46,75 46,79 Q46,75 42,75 Z" fill="#D5B3FF" filter="drop-shadow(0 2px 4px rgba(213, 179, 255, 0.4))"/>

  <!-- White Sugar Pearls -->
  <circle cx="45" cy="22" r="2.5" fill="#FCF5FF"/>
  <circle cx="85" cy="42" r="1.5" fill="#FCF5FF"/>
  <circle cx="30" cy="62" r="2" fill="#FCF5FF"/>
  <circle cx="62" cy="85" r="3" fill="#FCF5FF"/>
</svg>
