<svg xmlns="http://www.w3.org/2000/svg" viewBox="0 0 220 240" width="100%" height="100%">
  <g fill="none" stroke="#FCF5FF" stroke-width="2" opacity="0.65">
    <path d="M72 86 C68 118 78 154 58 198"/>
    <path d="M144 76 C154 118 132 150 154 212"/>
  </g>
  <g filter="drop-shadow(0 10px 18px rgba(255, 163, 223, 0.16))">
    <path d="M72 16 L88 52 L126 56 L98 82 L106 120 L72 100 L38 120 L46 82 L18 56 L56 52 Z" fill="#FFE893" stroke="#FCF5FF" stroke-width="4"/>
    <g stroke="#EACF74" stroke-width="2" opacity="0.65">
      <path d="M44 58 L100 92"/>
      <path d="M58 36 L104 76"/>
      <path d="M28 72 L90 112"/>
      <path d="M100 58 L44 96"/>
      <path d="M86 34 L38 84"/>
    </g>
    <path d="M144 22 C174 22 196 46 196 76 C196 112 160 128 144 146 C128 128 92 112 92 76 C92 46 114 22 144 22 Z" fill="#FFA3DF" stroke="#FCF5FF" stroke-width="4"/>
    <path d="M126 58 C138 46 160 46 174 60" fill="none" stroke="#FCF5FF" stroke-width="3" stroke-linecap="round" opacity="0.65"/>
    <circle cx="132" cy="76" r="4" fill="#441D35" opacity="0.75"/>
    <circle cx="158" cy="76" r="4" fill="#441D35" opacity="0.75"/>
    <path d="M137 92 Q145 98 153 92" fill="none" stroke="#441D35" stroke-width="3" stroke-linecap="round" opacity="0.7"/>
  </g>
</svg>
