<svg width="100" height="200" viewBox="0 0 100 200" fill="none" xmlns="http://www.w3.org/2000/svg">
  <line x1="30" y1="200" x2="35" y2="80" stroke="rgba(180,140,80,0.4)" stroke-width="3" stroke-linecap="round"/>
  <path d="M25 80 Q35 50, 45 80 Z" fill="rgba(180,180,180,0.25)" stroke="rgba(150,150,150,0.4)" stroke-width="1"/>
  <line x1="55" y1="200" x2="58" y2="90" stroke="rgba(180,140,80,0.35)" stroke-width="2.5" stroke-linecap="round"/>
  <line x1="50" y1="90" x2="50" y2="60" stroke="rgba(150,150,150,0.4)" stroke-width="2"/>
  <line x1="58" y1="90" x2="58" y2="55" stroke="rgba(150,150,150,0.4)" stroke-width="2"/>
  <line x1="66" y1="90" x2="66" y2="60" stroke="rgba(150,150,150,0.4)" stroke-width="2"/>
  <line x1="48" y1="90" x2="68" y2="90" stroke="rgba(150,150,150,0.4)" stroke-width="2.5"/>
  <path d="M75 200 L80 150" stroke="rgba(180,140,80,0.3)" stroke-width="2"/>
  <ellipse cx="82" cy="145" rx="8" ry="4" fill="rgba(255,160,171,0.2)" stroke="rgba(200,100,120,0.3)" stroke-width="1" transform="rotate(-15 82 145)"/>
  <path d="M10 185 L8 200 L30 200 L28 185 Z" fill="rgba(210,160,100,0.2)" stroke="rgba(210,160,100,0.3)" stroke-width="1"/>
  <ellipse cx="19" cy="185" rx="11" ry="3" fill="rgba(210,160,100,0.25)"/>
  <path d="M19 182 C19 175, 17 170, 15 168" stroke="rgba(132,226,168,0.5)" stroke-width="1" fill="none"/>
  <ellipse cx="14" cy="167" rx="4" ry="2.5" fill="rgba(132,226,168,0.4)"/>
</svg>
