<svg width="180" height="220" viewBox="0 0 180 220" fill="none" xmlns="http://www.w3.org/2000/svg">
  <path d="M90 0 C88 10, 85 20, 90 30" stroke="rgba(132,226,168,0.7)" stroke-width="3" fill="none"/>
  <path d="M70 35 C75 20, 85 15, 90 25 C95 15, 105 20, 110 35" fill="rgba(132,226,168,0.6)"/>
  <path d="M60 40 C65 28, 75 22, 80 32" fill="rgba(132,226,168,0.5)"/>
  <path d="M100 32 C105 22, 115 28, 120 40" fill="rgba(132,226,168,0.5)"/>
  <ellipse cx="90" cy="130" rx="65" ry="80" fill="rgba(255,160,171,0.35)"/>
  <ellipse cx="75" cy="115" rx="30" ry="40" fill="rgba(255,209,216,0.2)"/>
  <circle cx="65" cy="100" r="3" fill="rgba(255,225,122,0.5)"/>
  <circle cx="85" cy="90" r="3" fill="rgba(255,225,122,0.45)"/>
  <circle cx="110" cy="105" r="3" fill="rgba(255,225,122,0.5)"/>
  <circle cx="75" cy="130" r="3" fill="rgba(255,225,122,0.45)"/>
  <circle cx="100" cy="125" r="3" fill="rgba(255,225,122,0.5)"/>
  <circle cx="60" cy="150" r="3" fill="rgba(255,225,122,0.4)"/>
  <circle cx="90" cy="155" r="3" fill="rgba(255,225,122,0.45)"/>
  <circle cx="115" cy="145" r="3" fill="rgba(255,225,122,0.5)"/>
  <circle cx="80" cy="170" r="3" fill="rgba(255,225,122,0.4)"/>
  <circle cx="105" cy="170" r="3" fill="rgba(255,225,122,0.45)"/>
  <ellipse cx="72" cy="105" rx="8" ry="15" fill="rgba(255,255,255,0.15)" transform="rotate(-15 72 105)"/>
  <path d="M75 200 Q90 220, 105 200" fill="rgba(255,138,154,0.3)"/>
</svg>
