<svg width="120" height="180" viewBox="0 0 120 180" fill="none" xmlns="http://www.w3.org/2000/svg">
  <path d="M40 0 L45 40" stroke="rgba(180,140,80,0.4)" stroke-width="1.5"/>
  <path d="M80 0 L75 40" stroke="rgba(180,140,80,0.4)" stroke-width="1.5"/>
  <path d="M60 0 L60 35" stroke="rgba(180,140,80,0.4)" stroke-width="1.5"/>
  <circle cx="60" cy="5" r="4" stroke="rgba(180,140,80,0.5)" stroke-width="1.5" fill="none"/>
  <path d="M30 45 L25 100 Q60 115, 95 100 L90 45 Z" fill="rgba(210,160,100,0.2)" stroke="rgba(210,160,100,0.35)" stroke-width="1.5"/>
  <ellipse cx="60" cy="45" rx="32" ry="6" fill="rgba(210,160,100,0.25)" stroke="rgba(210,160,100,0.4)" stroke-width="1"/>
  <ellipse cx="60" cy="55" rx="28" ry="5" fill="rgba(100,80,60,0.15)"/>
  <path d="M55 50 C50 35, 45 25, 40 20" stroke="rgba(132,226,168,0.5)" stroke-width="1.5" fill="none"/>
  <path d="M65 50 C70 30, 80 25, 85 30" stroke="rgba(132,226,168,0.5)" stroke-width="1.5" fill="none"/>
  <ellipse cx="38" cy="20" rx="8" ry="5" fill="rgba(132,226,168,0.4)" transform="rotate(-20 38 20)"/>
  <ellipse cx="87" cy="28" rx="7" ry="4" fill="rgba(132,226,168,0.35)" transform="rotate(15 87 28)"/>
  <ellipse cx="45" cy="110" rx="8" ry="10" fill="rgba(255,160,171,0.35)"/>
  <path d="M42 100 L45 103 L48 100" fill="rgba(132,226,168,0.5)"/>
  <path d="M50 100 C45 120, 40 140, 35 160" stroke="rgba(132,226,168,0.3)" stroke-width="1" fill="none"/>
  <ellipse cx="35" cy="155" rx="5" ry="3" fill="rgba(132,226,168,0.25)" transform="rotate(-30 35 155)"/>
</svg>
