<svg xmlns="http://www.w3.org/2000/svg" viewBox="0 0 240 24" fill="none">
  <!-- Strawberry icon -->
  <g transform="translate(0,0)">
    <ellipse cx="12" cy="14" rx="7" ry="8" fill="#FFA0AB" stroke="#FF8A9A" stroke-width="1"/>
    <path d="M9 6 L12 8 L15 6" fill="#84E2A8"/>
    <circle cx="10" cy="13" r="0.8" fill="#FFE17A" opacity="0.7"/>
    <circle cx="14" cy="13" r="0.8" fill="#FFE17A" opacity="0.7"/>
    <circle cx="12" cy="17" r="0.8" fill="#FFE17A" opacity="0.7"/>
  </g>
  <!-- Leaf icon -->
  <g transform="translate(30,0)">
    <path d="M12 2 C6 8, 4 14, 6 20 C8 18, 10 16, 12 14 C14 16, 16 18, 18 20 C20 14, 18 8, 12 2Z" fill="#84E2A8" stroke="rgba(132,226,168,0.8)" stroke-width="0.5"/>
    <line x1="12" y1="6" x2="12" y2="18" stroke="rgba(132,226,168,0.6)" stroke-width="0.5"/>
  </g>
  <!-- Bee icon -->
  <g transform="translate(60,2)">
    <ellipse cx="12" cy="12" rx="6" ry="5" fill="#FFE17A"/>
    <rect x="9" y="10" width="6" height="1.5" rx="0.75" fill="#3D2B33" opacity="0.5"/>
    <rect x="8.5" y="13" width="7" height="1.5" rx="0.75" fill="#3D2B33" opacity="0.5"/>
    <ellipse cx="8" cy="8" rx="4" ry="2.5" fill="rgba(157,228,255,0.4)"/>
    <ellipse cx="16" cy="8" rx="4" ry="2.5" fill="rgba(157,228,255,0.4)"/>
  </g>
  <!-- Jar icon -->
  <g transform="translate(90,0)">
    <rect x="7" y="3" width="10" height="4" rx="1.5" fill="#D4A574"/>
    <rect x="5" y="7" width="14" height="15" rx="3" fill="rgba(255,255,255,0.6)" stroke="rgba(255,160,171,0.3)" stroke-width="0.8"/>
    <ellipse cx="12" cy="16" rx="3" ry="3.5" fill="rgba(255,160,171,0.4)"/>
  </g>
  <!-- Honeycomb icon -->
  <g transform="translate(120,2)">
    <path d="M8 4 L14 4 L17 10 L14 16 L8 16 L5 10 Z" fill="rgba(255,225,122,0.2)" stroke="rgba(255,225,122,0.5)" stroke-width="0.8"/>
    <path d="M14 4 L20 4 L23 10 L20 16 L14 16 L11 10 Z" fill="rgba(255,225,122,0.15)" stroke="rgba(255,225,122,0.4)" stroke-width="0.8"/>
  </g>
</svg>
