<svg xmlns="http://www.w3.org/2000/svg" viewBox="0 0 1200 180" fill="none">
  <!-- Hanging leaves cluster left -->
  <g opacity="0.7">
    <path d="M0 0 L0 60 Q20 80 40 60 L40 0Z" fill="#166534"/>
    <path d="M30 0 L30 90 Q50 110 70 85 L70 0Z" fill="#15803d"/>
    <path d="M60 0 L60 70 Q80 95 100 70 L100 0Z" fill="#166534"/>
    <ellipse cx="20" cy="65" rx="8" ry="5" fill="#4ADE80" opacity="0.6"/>
    <ellipse cx="55" cy="92" rx="6" ry="4" fill="#86EFAC" opacity="0.5"/>
  </g>
  <!-- Hanging vines left -->
  <path d="M80 0 Q85 40 78 80 Q82 120 75 150" stroke="#166534" stroke-width="2" fill="none" opacity="0.5"/>
  <path d="M120 0 Q125 50 118 100 Q122 140 115 170" stroke="#15803d" stroke-width="1.5" fill="none" opacity="0.4"/>
  <circle cx="75" cy="150" r="4" fill="#A855F7" opacity="0.6"/>
  <circle cx="115" cy="170" r="3" fill="#FBBF24" opacity="0.5"/>
  <!-- Hanging leaves cluster right -->
  <g opacity="0.7">
    <path d="M1100 0 L1100 70 Q1120 90 1140 65 L1140 0Z" fill="#166534"/>
    <path d="M1130 0 L1130 95 Q1150 115 1170 90 L1170 0Z" fill="#15803d"/>
    <path d="M1160 0 L1160 55 Q1180 75 1200 55 L1200 0Z" fill="#166534"/>
    <ellipse cx="1120" cy="72" rx="7" ry="4" fill="#4ADE80" opacity="0.6"/>
  </g>
  <!-- Hanging vines right -->
  <path d="M1080 0 Q1075 45 1082 90 Q1078 130 1085 160" stroke="#166534" stroke-width="2" fill="none" opacity="0.5"/>
  <path d="M1050 0 Q1055 55 1048 110" stroke="#15803d" stroke-width="1.5" fill="none" opacity="0.4"/>
  <circle cx="1085" cy="160" r="4" fill="#C084FC" opacity="0.5"/>
  <!-- Center hanging flowers -->
  <path d="M550 0 Q555 30 548 60 Q552 80 546 100" stroke="#166534" stroke-width="1.5" fill="none" opacity="0.4"/>
  <circle cx="546" cy="100" r="5" fill="#EF4444" opacity="0.5"/>
  <circle cx="546" cy="100" r="2" fill="#FBBF24" opacity="0.7"/>
  <path d="M680 0 Q675 40 682 75" stroke="#15803d" stroke-width="1.5" fill="none" opacity="0.35"/>
  <circle cx="682" cy="75" r="4" fill="#C084FC" opacity="0.5"/>
</svg>
