<svg xmlns="http://www.w3.org/2000/svg" viewBox="0 0 400 200" fill="none" preserveAspectRatio="none">
  <!-- Top vine -->
  <path d="M0 8 Q50 2 100 6 Q200 12 300 5 Q350 3 400 8" stroke="#166534" stroke-width="2" fill="none" opacity="0.4"/>
  <circle cx="60" cy="4" r="3" fill="#4ADE80" opacity="0.5"/>
  <circle cx="150" cy="9" r="2.5" fill="#86EFAC" opacity="0.4"/>
  <circle cx="280" cy="5" r="3" fill="#4ADE80" opacity="0.5"/>
  <circle cx="360" cy="6" r="2" fill="#86EFAC" opacity="0.4"/>
  <!-- Left vine -->
  <path d="M4 0 Q8 40 5 80 Q3 120 6 160 Q4 180 5 200" stroke="#166534" stroke-width="1.8" fill="none" opacity="0.35"/>
  <circle cx="6" cy="50" r="2.5" fill="#4ADE80" opacity="0.4"/>
  <circle cx="4" cy="110" r="3" fill="#86EFAC" opacity="0.35"/>
  <circle cx="7" cy="170" r="2" fill="#4ADE80" opacity="0.4"/>
  <!-- Bottom vine -->
  <path d="M0 193 Q80 198 160 195 Q280 190 400 195" stroke="#166534" stroke-width="2" fill="none" opacity="0.35"/>
  <circle cx="100" cy="196" r="2.5" fill="#4ADE80" opacity="0.4"/>
  <circle cx="250" cy="192" r="3" fill="#86EFAC" opacity="0.35"/>
  <!-- Right vine -->
  <path d="M396 0 Q392 50 395 100 Q398 150 394 200" stroke="#166534" stroke-width="1.8" fill="none" opacity="0.35"/>
  <circle cx="394" cy="60" r="2.5" fill="#4ADE80" opacity="0.4"/>
  <circle cx="396" cy="140" r="2" fill="#86EFAC" opacity="0.35"/>
  <!-- Corner flowers -->
  <circle cx="12" cy="12" r="4" fill="#EF4444" opacity="0.4"/>
  <circle cx="12" cy="12" r="1.5" fill="#FBBF24" opacity="0.5"/>
  <circle cx="388" cy="12" r="3.5" fill="#C084FC" opacity="0.4"/>
  <circle cx="388" cy="12" r="1.2" fill="white" opacity="0.5"/>
  <circle cx="12" cy="188" r="3.5" fill="#FBBF24" opacity="0.4"/>
  <circle cx="12" cy="188" r="1.2" fill="white" opacity="0.5"/>
  <circle cx="388" cy="188" r="4" fill="#34D399" opacity="0.4"/>
  <circle cx="388" cy="188" r="1.5" fill="white" opacity="0.5"/>
</svg>
