<svg xmlns="http://www.w3.org/2000/svg" viewBox="0 0 200 220" fill="none">
  <!-- Arch frame -->
  <path d="M30 220 L30 80 Q100 10 170 80 L170 220" fill="none" stroke="#92400E" stroke-width="10" stroke-linecap="round"/>
  <!-- Inner arch -->
  <path d="M40 220 L40 85 Q100 25 160 85 L160 220" fill="none" stroke="#B45309" stroke-width="4"/>
  <!-- Left door -->
  <path d="M45 220 L45 90 Q75 45 100 90 L100 220Z" fill="#92400E" opacity="0.7"/>
  <!-- Right door (slightly open) -->
  <path d="M105 220 L108 92 Q130 50 155 90 L155 220Z" fill="#92400E" opacity="0.6"/>
  <!-- Door planks -->
  <line x1="60" y1="100" x2="60" y2="220" stroke="#78350F" stroke-width="0.8" opacity="0.5"/>
  <line x1="80" y1="90" x2="80" y2="220" stroke="#78350F" stroke-width="0.8" opacity="0.5"/>
  <line x1="125" y1="95" x2="125" y2="220" stroke="#78350F" stroke-width="0.8" opacity="0.5"/>
  <line x1="142" y1="100" x2="142" y2="220" stroke="#78350F" stroke-width="0.8" opacity="0.5"/>
  <!-- Door handles -->
  <circle cx="92" cy="155" r="3" fill="#FBBF24" opacity="0.8"/>
  <circle cx="112" cy="155" r="3" fill="#FBBF24" opacity="0.8"/>
  <!-- Ivy on left -->
  <circle cx="28" cy="100" r="5" fill="#4ADE80" opacity="0.7"/>
  <circle cx="25" cy="115" r="4" fill="#4ADE80" opacity="0.6"/>
  <circle cx="30" cy="130" r="5.5" fill="#4ADE80" opacity="0.7"/>
  <circle cx="27" cy="148" r="4" fill="#4ADE80" opacity="0.6"/>
  <circle cx="32" cy="165" r="5" fill="#4ADE80" opacity="0.65"/>
  <!-- Ivy on right -->
  <circle cx="172" cy="95" r="5" fill="#4ADE80" opacity="0.7"/>
  <circle cx="175" cy="112" r="4.5" fill="#4ADE80" opacity="0.6"/>
  <circle cx="170" cy="128" r="5" fill="#4ADE80" opacity="0.7"/>
  <circle cx="173" cy="145" r="4" fill="#4ADE80" opacity="0.6"/>
  <!-- Ivy on top -->
  <circle cx="60" cy="50" r="4" fill="#4ADE80" opacity="0.65"/>
  <circle cx="80" cy="35" r="4.5" fill="#4ADE80" opacity="0.7"/>
  <circle cx="100" cy="28" r="5" fill="#4ADE80" opacity="0.7"/>
  <circle cx="120" cy="35" r="4.5" fill="#4ADE80" opacity="0.65"/>
  <circle cx="140" cy="50" r="4" fill="#4ADE80" opacity="0.6"/>
  <!-- Ivy leaves (small details) -->
  <path d="M25 108 Q28 105 31 108 Q28 111 25 108Z" fill="#166534" opacity="0.4"/>
  <path d="M170 120 Q173 117 176 120 Q173 123 170 120Z" fill="#166534" opacity="0.4"/>
  <path d="M95 25 Q98 22 101 25 Q98 28 95 25Z" fill="#166534" opacity="0.4"/>
</svg>
