<svg xmlns="http://www.w3.org/2000/svg" viewBox="0 0 120 120" fill="none">
  <!-- Oak leaf -->
  <path d="M20 30 Q25 20 30 25 Q35 18 38 28 Q42 22 40 32 Q45 30 42 38 Q38 42 30 40 Q25 38 22 35Z" fill="#34D399" opacity="0.9"/>
  <!-- Maple leaf -->
  <path d="M70 20 L75 10 L78 20 L88 15 L82 24 L90 28 L80 30 L82 40 L75 34 L68 40 L70 30 L60 28 L68 24 L62 15Z" fill="#FBBF24" opacity="0.85"/>
  <!-- Round leaf -->
  <ellipse cx="100" cy="60" rx="10" ry="12" fill="#2DD4BF" opacity="0.8"/>
  <line x1="100" y1="48" x2="100" y2="72" stroke="#166534" stroke-width="0.5" opacity="0.5"/>
  <!-- Fern frond -->
  <path d="M15 80 Q20 70 25 75 Q22 68 28 72 Q25 65 30 70 Q28 62 32 66 L30 80Z" fill="#6EE7B7" opacity="0.85"/>
  <!-- Small round leaf -->
  <ellipse cx="60" cy="90" rx="7" ry="9" fill="#34D399" opacity="0.75"/>
  <line x1="60" y1="81" x2="60" y2="99" stroke="#166534" stroke-width="0.4" opacity="0.4"/>
  <!-- Elongated leaf -->
  <path d="M85 85 Q95 80 105 85 Q95 90 85 85Z" fill="#FBBF24" opacity="0.8"/>
  <line x1="85" y1="85" x2="105" y2="85" stroke="#92400E" stroke-width="0.4" opacity="0.4"/>
</svg>
