<svg xmlns="http://www.w3.org/2000/svg" viewBox="0 0 80 80" fill="none">
  <!-- Wings -->
  <ellipse cx="28" cy="35" rx="16" ry="22" fill="#C084FC" opacity="0.5"/>
  <ellipse cx="52" cy="35" rx="16" ry="22" fill="#C084FC" opacity="0.5"/>
  <ellipse cx="30" cy="38" rx="10" ry="14" fill="#E9D5FF" opacity="0.6"/>
  <ellipse cx="50" cy="38" rx="10" ry="14" fill="#E9D5FF" opacity="0.6"/>
  <!-- Body -->
  <ellipse cx="40" cy="45" rx="6" ry="10" fill="#FDE68A"/>
  <!-- Head -->
  <circle cx="40" cy="32" r="7" fill="#FECACA"/>
  <!-- Hair -->
  <path d="M33 30 Q35 22 40 20 Q45 22 47 30" fill="#92400E" opacity="0.8"/>
  <!-- Eyes -->
  <circle cx="37" cy="32" r="1.5" fill="#1A2E1A"/>
  <circle cx="43" cy="32" r="1.5" fill="#1A2E1A"/>
  <!-- Smile -->
  <path d="M38 35 Q40 37 42 35" stroke="#1A2E1A" stroke-width="0.8" fill="none"/>
  <!-- Wand -->
  <line x1="50" y1="45" x2="62" y2="35" stroke="#FBBF24" stroke-width="1.5"/>
  <circle cx="62" cy="35" r="3" fill="#FBBF24"/>
  <circle cx="62" cy="35" r="1.5" fill="white" opacity="0.8"/>
  <!-- Sparkles from wand -->
  <circle cx="65" cy="30" r="1" fill="white" opacity="0.7"/>
  <circle cx="67" cy="34" r="0.8" fill="#FBBF24" opacity="0.6"/>
  <circle cx="63" cy="28" r="0.6" fill="white" opacity="0.5"/>
</svg>
