<svg xmlns="http://www.w3.org/2000/svg" viewBox="0 0 300 100" fill="none">
  <!-- Curved trail path -->
  <path d="M10 80 Q60 20 150 50 Q240 80 290 30" stroke="#C084FC" stroke-width="1.5" stroke-linecap="round" opacity="0.6" fill="none"/>
  <!-- Sparkle dots along the path -->
  <circle cx="30" cy="60" r="2" fill="#FBBF24" opacity="0.8"/>
  <circle cx="55" cy="35" r="1.5" fill="white" opacity="0.9"/>
  <circle cx="80" cy="30" r="2.5" fill="#FBBF24" opacity="0.7"/>
  <circle cx="110" cy="38" r="1.8" fill="white" opacity="0.85"/>
  <circle cx="140" cy="48" r="2" fill="#FBBF24" opacity="0.75"/>
  <circle cx="165" cy="52" r="1.5" fill="white" opacity="0.9"/>
  <circle cx="190" cy="58" r="2.2" fill="#FBBF24" opacity="0.8"/>
  <circle cx="215" cy="60" r="1.8" fill="white" opacity="0.85"/>
  <circle cx="240" cy="52" r="2" fill="#FBBF24" opacity="0.7"/>
  <circle cx="265" cy="40" r="1.5" fill="white" opacity="0.9"/>
  <circle cx="280" cy="34" r="2.5" fill="#FBBF24" opacity="0.8"/>
  <!-- Extra sparkle stars -->
  <path d="M70 25 L72 20 L74 25 L79 27 L74 29 L72 34 L70 29 L65 27Z" fill="white" opacity="0.7"/>
  <path d="M200 55 L201.5 51 L203 55 L207 56.5 L203 58 L201.5 62 L200 58 L196 56.5Z" fill="#FBBF24" opacity="0.6"/>
</svg>
