<svg xmlns="http://www.w3.org/2000/svg" viewBox="0 0 80 90" fill="none">
  <!-- Wings (folded) -->
  <ellipse cx="30" cy="40" rx="12" ry="18" fill="#C084FC" opacity="0.4"/>
  <ellipse cx="50" cy="40" rx="12" ry="18" fill="#C084FC" opacity="0.4"/>
  <ellipse cx="32" cy="42" rx="8" ry="12" fill="#E9D5FF" opacity="0.5"/>
  <ellipse cx="48" cy="42" rx="8" ry="12" fill="#E9D5FF" opacity="0.5"/>
  <!-- Body (sitting) -->
  <ellipse cx="40" cy="55" rx="7" ry="12" fill="#FDE68A"/>
  <!-- Legs -->
  <path d="M35 62 Q33 70 36 72" stroke="#FECACA" stroke-width="3" fill="none" stroke-linecap="round"/>
  <path d="M45 62 Q47 70 44 72" stroke="#FECACA" stroke-width="3" fill="none" stroke-linecap="round"/>
  <!-- Head -->
  <circle cx="40" cy="38" r="8" fill="#FECACA"/>
  <!-- Hair -->
  <path d="M32 36 Q35 26 40 24 Q45 26 48 36" fill="#92400E" opacity="0.8"/>
  <path d="M32 36 Q30 40 32 42" fill="#92400E" opacity="0.6"/>
  <!-- Eyes -->
  <circle cx="37" cy="38" r="1.5" fill="#1A2E1A"/>
  <circle cx="43" cy="38" r="1.5" fill="#1A2E1A"/>
  <!-- Smile -->
  <path d="M37 41 Q40 44 43 41" stroke="#1A2E1A" stroke-width="0.8" fill="none"/>
  <!-- Waving hand -->
  <path d="M52 48 Q56 44 58 40" stroke="#FECACA" stroke-width="3" fill="none" stroke-linecap="round"/>
  <circle cx="58" cy="39" r="2.5" fill="#FECACA"/>
</svg>
