<svg xmlns="http://www.w3.org/2000/svg" viewBox="0 0 1200 400" fill="none">
  <!-- Back layer - lightest -->
  <g opacity="0.08" fill="#166534">
    <path d="M0 400 L60 120 L80 200 L120 80 L160 200 L180 140 L220 400Z"/>
    <path d="M200 400 L260 150 L290 220 L320 100 L350 200 L380 160 L420 400Z"/>
    <path d="M400 400 L450 130 L480 210 L520 90 L560 190 L590 150 L640 400Z"/>
    <path d="M620 400 L680 140 L710 200 L750 70 L790 180 L820 130 L870 400Z"/>
    <path d="M850 400 L900 120 L930 190 L970 80 L1010 200 L1040 140 L1090 400Z"/>
    <path d="M1060 400 L1110 150 L1140 210 L1170 100 L1200 400Z"/>
  </g>
  <!-- Middle layer -->
  <g opacity="0.12" fill="#166534">
    <path d="M50 400 L100 180 L130 260 L160 140 L190 240 L220 180 L270 400Z"/>
    <path d="M250 400 L310 200 L340 270 L380 150 L410 250 L440 190 L500 400Z"/>
    <path d="M480 400 L530 170 L560 250 L600 130 L640 230 L670 180 L720 400Z"/>
    <path d="M700 400 L750 190 L780 260 L820 140 L860 240 L890 170 L940 400Z"/>
    <path d="M920 400 L970 180 L1000 250 L1040 130 L1080 230 L1110 170 L1160 400Z"/>
  </g>
  <!-- Front layer - darkest -->
  <g opacity="0.18" fill="#166534">
    <path d="M0 400 L40 250 L70 310 L100 220 L130 300 L160 260 L200 400Z"/>
    <path d="M180 400 L230 260 L260 320 L300 230 L340 310 L370 270 L420 400Z"/>
    <path d="M400 400 L440 240 L470 300 L510 210 L550 290 L580 250 L630 400Z"/>
    <path d="M610 400 L660 260 L690 320 L730 220 L770 300 L800 260 L850 400Z"/>
    <path d="M830 400 L880 250 L910 310 L950 220 L990 300 L1020 260 L1070 400Z"/>
    <path d="M1050 400 L1090 260 L1120 310 L1150 230 L1200 400Z"/>
  </g>
</svg>
