<svg xmlns="http://www.w3.org/2000/svg" viewBox="0 0 100 800" fill="none">
  <!-- Winding path -->
  <path d="M50 0 Q70 100 40 200 Q20 300 60 400 Q80 500 35 600 Q15 700 55 800" stroke="#92400E" stroke-width="28" fill="none" opacity="0.12"/>
  <path d="M50 0 Q70 100 40 200 Q20 300 60 400 Q80 500 35 600 Q15 700 55 800" stroke="#D4A574" stroke-width="20" fill="none" opacity="0.08"/>
  <!-- Stepping stones along path -->
  <ellipse cx="50" cy="50" rx="12" ry="6" fill="#9CA3AF" opacity="0.3"/>
  <ellipse cx="55" cy="150" rx="10" ry="5" fill="#9CA3AF" opacity="0.25"/>
  <ellipse cx="42" cy="250" rx="11" ry="5.5" fill="#9CA3AF" opacity="0.3"/>
  <ellipse cx="48" cy="350" rx="12" ry="6" fill="#9CA3AF" opacity="0.25"/>
  <ellipse cx="60" cy="450" rx="10" ry="5" fill="#9CA3AF" opacity="0.3"/>
  <ellipse cx="38" cy="550" rx="11" ry="5.5" fill="#9CA3AF" opacity="0.25"/>
  <ellipse cx="45" cy="650" rx="12" ry="6" fill="#9CA3AF" opacity="0.3"/>
  <ellipse cx="52" cy="750" rx="10" ry="5" fill="#9CA3AF" opacity="0.25"/>
  <!-- Moss on stones -->
  <ellipse cx="50" cy="48" rx="6" ry="2.5" fill="#86EFAC" opacity="0.3"/>
  <ellipse cx="42" cy="248" rx="5" ry="2" fill="#86EFAC" opacity="0.25"/>
  <ellipse cx="60" cy="448" rx="5.5" ry="2.2" fill="#86EFAC" opacity="0.3"/>
  <ellipse cx="45" cy="648" rx="6" ry="2.5" fill="#86EFAC" opacity="0.25"/>
</svg>
