<svg xmlns="http://www.w3.org/2000/svg" viewBox="0 0 800 80" fill="none">
  <!-- Ground base -->
  <path d="M0 50 Q100 40 200 48 Q300 55 400 45 Q500 38 600 48 Q700 55 800 45 L800 80 L0 80Z" fill="#166534" opacity="0.1"/>
  <!-- Grass tufts -->
  <path d="M50 50 L48 35 L52 38 L54 30 L56 38 L58 34 L60 50Z" fill="#34D399" opacity="0.6"/>
  <path d="M150 48 L148 36 L151 39 L153 32 L155 40 L157 48Z" fill="#4ADE80" opacity="0.5"/>
  <path d="M280 52 L278 40 L281 43 L283 36 L285 42 L287 38 L289 52Z" fill="#34D399" opacity="0.55"/>
  <path d="M420 46 L418 34 L421 37 L423 30 L425 38 L427 46Z" fill="#6EE7B7" opacity="0.5"/>
  <path d="M560 50 L558 38 L561 41 L563 34 L565 40 L567 36 L569 50Z" fill="#34D399" opacity="0.6"/>
  <path d="M700 48 L698 36 L701 39 L703 32 L705 40 L707 48Z" fill="#4ADE80" opacity="0.5"/>
  <!-- Small mushrooms -->
  <rect x="100" y="48" width="4" height="10" rx="1.5" fill="#D4A574" opacity="0.6"/>
  <ellipse cx="102" cy="48" rx="6" ry="4" fill="#EF4444" opacity="0.5"/>
  <rect x="350" y="46" width="3" height="8" rx="1" fill="#D4A574" opacity="0.5"/>
  <ellipse cx="351.5" cy="46" rx="5" ry="3.5" fill="#A855F7" opacity="0.4"/>
  <rect x="620" y="49" width="3.5" height="9" rx="1.2" fill="#D4A574" opacity="0.55"/>
  <ellipse cx="621.75" cy="49" rx="5.5" ry="3.8" fill="#34D399" opacity="0.45"/>
  <!-- Pebbles -->
  <ellipse cx="200" cy="58" rx="5" ry="3" fill="#9CA3AF" opacity="0.4"/>
  <ellipse cx="450" cy="55" rx="4" ry="2.5" fill="#9CA3AF" opacity="0.35"/>
  <ellipse cx="650" cy="57" rx="4.5" ry="2.8" fill="#9CA3AF" opacity="0.4"/>
  <ellipse cx="750" cy="56" rx="3.5" ry="2.2" fill="#9CA3AF" opacity="0.35"/>
  <!-- Tiny flowers -->
  <circle cx="180" cy="47" r="2.5" fill="#FBBF24" opacity="0.6"/>
  <circle cx="180" cy="47" r="1" fill="white" opacity="0.7"/>
  <circle cx="500" cy="44" r="2" fill="#C084FC" opacity="0.5"/>
  <circle cx="500" cy="44" r="0.8" fill="white" opacity="0.6"/>
  <circle cx="730" cy="46" r="2.2" fill="#FBBF24" opacity="0.55"/>
  <circle cx="730" cy="46" r="0.9" fill="white" opacity="0.65"/>
</svg>
