<svg xmlns="http://www.w3.org/2000/svg" viewBox="0 0 1200 120" fill="none">
  <!-- Ground -->
  <path d="M0 80 Q200 65 400 75 Q600 85 800 70 Q1000 60 1200 75 L1200 120 L0 120Z" fill="#166534" opacity="0.15"/>
  <!-- Grass tufts -->
  <g fill="#34D399" opacity="0.7">
    <path d="M30 80 L28 55 L32 60 L35 45 L38 58 L40 50 L43 80Z"/>
    <path d="M100 75 L98 50 L102 55 L105 40 L108 53 L110 75Z"/>
    <path d="M200 78 L197 52 L201 57 L204 42 L207 55 L210 48 L213 78Z"/>
    <path d="M320 72 L318 48 L322 53 L325 38 L328 50 L330 72Z"/>
    <path d="M450 77 L448 52 L452 57 L455 42 L458 55 L460 48 L463 77Z"/>
    <path d="M580 74 L578 50 L582 55 L585 40 L588 52 L590 74Z"/>
    <path d="M700 79 L698 54 L702 59 L705 44 L708 57 L710 50 L713 79Z"/>
    <path d="M830 73 L828 48 L832 53 L835 38 L838 51 L840 73Z"/>
    <path d="M950 77 L948 52 L952 57 L955 42 L958 55 L960 48 L963 77Z"/>
    <path d="M1080 75 L1078 50 L1082 55 L1085 40 L1088 53 L1090 75Z"/>
    <path d="M1160 78 L1158 53 L1162 58 L1165 43 L1168 56 L1170 78Z"/>
  </g>
  <!-- Small flowers -->
  <circle cx="70" cy="72" r="4" fill="#FBBF24" opacity="0.7"/>
  <circle cx="70" cy="72" r="1.5" fill="white" opacity="0.8"/>
  <circle cx="250" cy="68" r="3.5" fill="#C084FC" opacity="0.6"/>
  <circle cx="250" cy="68" r="1.2" fill="white" opacity="0.7"/>
  <circle cx="400" cy="74" r="4" fill="#EF4444" opacity="0.5"/>
  <circle cx="400" cy="74" r="1.5" fill="white" opacity="0.7"/>
  <circle cx="620" cy="70" r="3" fill="#FBBF24" opacity="0.6"/>
  <circle cx="620" cy="70" r="1" fill="white" opacity="0.7"/>
  <circle cx="780" cy="75" r="3.5" fill="#C084FC" opacity="0.6"/>
  <circle cx="780" cy="75" r="1.2" fill="white" opacity="0.7"/>
  <circle cx="1000" cy="72" r="4" fill="#34D399" opacity="0.5"/>
  <circle cx="1000" cy="72" r="1.5" fill="white" opacity="0.7"/>
  <!-- Tiny mushrooms -->
  <rect x="160" y="72" width="4" height="10" rx="1.5" fill="#D4A574" opacity="0.6"/>
  <ellipse cx="162" cy="72" rx="7" ry="5" fill="#EF4444" opacity="0.5"/>
  <circle cx="159" cy="69" r="1.2" fill="white" opacity="0.6"/>
  <rect x="520" y="70" width="3" height="8" rx="1" fill="#D4A574" opacity="0.5"/>
  <ellipse cx="521.5" cy="70" rx="6" ry="4" fill="#A855F7" opacity="0.4"/>
  <rect x="900" y="73" width="3.5" height="9" rx="1.2" fill="#D4A574" opacity="0.55"/>
  <ellipse cx="901.75" cy="73" rx="6" ry="4.5" fill="#34D399" opacity="0.45"/>
  <circle cx="900" cy="70" r="1" fill="white" opacity="0.5"/>
</svg>
