<svg xmlns="http://www.w3.org/2000/svg" viewBox="0 0 120 140" fill="none">
  <defs>
    <linearGradient id="houseCap" x1="0%" y1="0%" x2="0%" y2="100%">
      <stop offset="0%" stop-color="#EF4444"/>
      <stop offset="100%" stop-color="#FF8A7A"/>
    </linearGradient>
  </defs>
  <!-- Stem/house body -->
  <rect x="35" y="70" width="50" height="60" rx="8" fill="#F5E6D3"/>
  <rect x="35" y="70" width="50" height="60" rx="8" fill="none" stroke="#D4A574" stroke-width="1.5"/>
  <!-- Cap/roof -->
  <ellipse cx="60" cy="70" rx="52" ry="38" fill="url(#houseCap)"/>
  <circle cx="45" cy="55" r="5" fill="white" opacity="0.7"/>
  <circle cx="70" cy="50" r="4" fill="white" opacity="0.7"/>
  <circle cx="55" cy="42" r="3.5" fill="white" opacity="0.6"/>
  <circle cx="80" cy="60" r="3" fill="white" opacity="0.6"/>
  <!-- Door -->
  <path d="M50 130 L50 105 Q60 98 70 105 L70 130Z" fill="#92400E"/>
  <circle cx="66" cy="118" r="2" fill="#FBBF24"/>
  <!-- Round window -->
  <circle cx="75" cy="88" r="7" fill="#FEF9C3" opacity="0.8"/>
  <circle cx="75" cy="88" r="7" fill="none" stroke="#92400E" stroke-width="1.5"/>
  <line x1="75" y1="81" x2="75" y2="95" stroke="#92400E" stroke-width="0.8"/>
  <line x1="68" y1="88" x2="82" y2="88" stroke="#92400E" stroke-width="0.8"/>
  <!-- Chimney -->
  <rect x="78" y="38" width="8" height="18" rx="2" fill="#92400E"/>
  <!-- Smoke -->
  <circle cx="82" cy="32" r="3" fill="#D1D5DB" opacity="0.4"/>
  <circle cx="85" cy="26" r="2.5" fill="#D1D5DB" opacity="0.3"/>
  <circle cx="83" cy="20" r="2" fill="#D1D5DB" opacity="0.2"/>
</svg>
