<svg xmlns="http://www.w3.org/2000/svg" viewBox="0 0 1200 720" role="img" aria-label="Beach market street">
  <defs>
    <linearGradient id="sky" x1="0" x2="0" y1="0" y2="1"><stop stop-color="#DDEFF7"/><stop offset="1" stop-color="#F8F3EA"/></linearGradient>
    <linearGradient id="sea" x1="0" x2="1"><stop stop-color="#7DB8DA"/><stop offset="1" stop-color="#2F80B7"/></linearGradient>
  </defs>
  <rect width="1200" height="720" fill="url(#sky)"/>
  <path d="M0 390 C170 340 310 410 485 365 C665 320 820 390 1200 335 L1200 720 L0 720 Z" fill="url(#sea)" opacity=".72"/>
  <path d="M0 570 C250 520 480 610 720 555 C910 512 1020 555 1200 520 L1200 720 L0 720 Z" fill="#FFE7B5"/>
  <g opacity=".92">
    <rect x="135" y="245" width="250" height="220" rx="18" fill="#fff"/>
    <path d="M118 245 h284 l-34 -86 h-216z" fill="#2F80B7"/>
    <path d="M152 159 h38 l34 86 h-45zM245 159h38l22 86h-45zM338 159h30l34 86h-40z" fill="#FFFFFF" opacity=".92"/>
    <rect x="170" y="320" width="180" height="82" rx="14" fill="#D8C39D"/>
    <circle cx="205" cy="300" r="24" fill="#EFE0C4"/>
    <circle cx="254" cy="292" r="20" fill="#7DB8DA"/>
    <circle cx="305" cy="300" r="23" fill="#FFFFFF"/>
  </g>
  <g opacity=".9">
    <rect x="790" y="255" width="245" height="210" rx="18" fill="#fff"/>
    <path d="M772 255 h282 l-32 -78 h-218z" fill="#7DB8DA"/>
    <path d="M804 177h36l31 78h-43zM893 177h36l18 78h-43zM982 177h40l32 78h-44z" fill="#FFFFFF" opacity=".92"/>
    <rect x="830" y="323" width="170" height="78" rx="14" fill="#EFE0C4"/>
  </g>
  <path d="M105 120 C205 88 330 112 410 72" fill="none" stroke="#fff" stroke-width="18" stroke-linecap="round" opacity=".75"/>
  <path d="M760 105 C855 72 965 96 1080 63" fill="none" stroke="#fff" stroke-width="17" stroke-linecap="round" opacity=".75"/>
</svg>
