<svg xmlns="http://www.w3.org/2000/svg" viewBox="0 0 640 360">
  <path d="M88 188C158 64 342 46 488 116c62 30 94 76 94 76s-64 18-114 10c-72 66-194 86-304 38-36-16-76-30-76-52Z" fill="#102f4d"/>
  <path d="M228 210c86 43 174 34 242-8-44 64-150 94-258 38Z" fill="#fff" opacity=".92"/>
  <path d="M298 108 358 8l28 130Z" fill="#102f4d"/>
  <path d="M92 184 6 116l64 100L10 284Z" fill="#102f4d"/>
  <path d="M402 112c42 4 78 22 108 50-44-6-78-20-108-50Z" fill="#fff" opacity=".18"/>
  <circle cx="452" cy="138" r="9" fill="#fff"/>
</svg>
