<svg xmlns="http://www.w3.org/2000/svg" viewBox="0 0 120 40">
  <g id="acorn">
    <ellipse cx="20" cy="25" rx="8" ry="10" fill="#C8A070"/>
    <path d="M12 20 Q20 15 28 20" fill="#8B6B3D"/>
    <line x1="20" y1="12" x2="20" y2="15" stroke="#5A7A5E" stroke-width="1.5"/>
  </g>
  <g id="pinecone">
    <ellipse cx="50" cy="24" rx="7" ry="9" fill="#A8805A"/>
    <path d="M44 22 L50 18 L56 22 M45 26 L50 22 L55 26 M46 30 L50 26 L54 30" stroke="#8B6B3D" stroke-width="1" fill="none"/>
  </g>
  <g id="seed">
    <ellipse cx="80" cy="26" rx="5" ry="7" fill="#A8D8A8"/>
    <path d="M78 20 Q80 16 82 20" stroke="#5A7A5E" stroke-width="1" fill="none"/>
  </g>
  <g id="sprout">
    <ellipse cx="105" cy="30" rx="4" ry="3" fill="#C8A070"/>
    <path d="M105 28 Q103 22 105 18 Q107 22 105 28" fill="#7AE8A8"/>
    <path d="M105 22 Q108 20 110 22" fill="#A8D8A8"/>
  </g>
</svg>
