<svg xmlns="http://www.w3.org/2000/svg" viewBox="0 0 168 24">
  <g id="icon-wand" transform="translate(0,0)">
    <line x1="4" y1="20" x2="18" y2="4" stroke="currentColor" stroke-width="2" stroke-linecap="round"/>
    <polygon points="18,2 16,6 20,6" fill="currentColor"/>
  </g>
  <g id="icon-bell" transform="translate(24,0)">
    <path d="M12 4 Q6 4 6 12 L6 16 L18 16 L18 12 Q18 4 12 4Z" fill="none" stroke="currentColor" stroke-width="2"/>
    <circle cx="12" cy="19" r="2" fill="currentColor"/>
    <line x1="12" y1="2" x2="12" y2="4" stroke="currentColor" stroke-width="2"/>
  </g>
  <g id="icon-potion" transform="translate(48,0)">
    <rect x="9" y="2" width="6" height="4" rx="1" fill="none" stroke="currentColor" stroke-width="2"/>
    <path d="M8 6 L6 14 Q6 20 12 20 Q18 20 18 14 L16 6Z" fill="none" stroke="currentColor" stroke-width="2"/>
  </g>
  <g id="icon-crystal" transform="translate(72,0)">
    <polygon points="12,2 6,10 9,20 15,20 18,10" fill="none" stroke="currentColor" stroke-width="2" stroke-linejoin="round"/>
  </g>
  <g id="icon-lantern" transform="translate(96,0)">
    <rect x="8" y="6" width="8" height="12" rx="2" fill="none" stroke="currentColor" stroke-width="2"/>
    <line x1="12" y1="3" x2="12" y2="6" stroke="currentColor" stroke-width="2"/>
    <line x1="10" y1="18" x2="14" y2="18" stroke="currentColor" stroke-width="2"/>
  </g>
  <g id="icon-key" transform="translate(120,0)">
    <circle cx="8" cy="8" r="5" fill="none" stroke="currentColor" stroke-width="2"/>
    <line x1="12" y1="10" x2="20" y2="18" stroke="currentColor" stroke-width="2"/>
    <line x1="17" y1="15" x2="20" y2="13" stroke="currentColor" stroke-width="2"/>
  </g>
  <g id="icon-mushroom" transform="translate(144,0)">
    <rect x="10" y="14" width="4" height="8" rx="1.5" fill="currentColor" opacity="0.6"/>
    <ellipse cx="12" cy="14" rx="9" ry="7" fill="none" stroke="currentColor" stroke-width="2"/>
    <circle cx="9" cy="12" r="1.5" fill="currentColor" opacity="0.4"/>
    <circle cx="14" cy="10" r="1" fill="currentColor" opacity="0.4"/>
  </g>
</svg>
