<svg xmlns="http://www.w3.org/2000/svg" viewBox="0 0 120 80">
  <path id="leaf-oak" d="M20 40 Q15 30 20 20 Q25 25 30 20 Q28 30 35 35 Q28 38 30 45 Q25 42 20 45 Q22 42 20 40Z" fill="#7AE8A8" opacity="0.8"/>
  <ellipse id="leaf-round" cx="55" cy="35" rx="10" ry="12" fill="#A8D8A8" opacity="0.7"/>
  <line x1="55" y1="25" x2="55" y2="47" stroke="#5A7A5E" stroke-width="1" opacity="0.5"/>
  <path id="leaf-maple" d="M90 40 L85 30 L88 32 L90 22 L92 32 L95 30 L90 40Z" fill="#FFE088" opacity="0.8"/>
  <path id="leaf-fern" d="M110 60 Q105 50 108 40 Q112 45 110 50 Q115 45 113 55Z" fill="#7AE8A8" opacity="0.6"/>
</svg>
