<svg xmlns="http://www.w3.org/2000/svg" viewBox="0 0 1600 900" role="img" aria-label="Pastel lilac sky garden panorama">
  <defs>
    <linearGradient id="sky" x1="0" y1="0" x2="1" y2="1">
      <stop offset="0" stop-color="#f7f1ff"/>
      <stop offset="0.45" stop-color="#e8d6ff"/>
      <stop offset="1" stop-color="#a7c7ff"/>
    </linearGradient>
    <radialGradient id="sun" cx="72%" cy="22%" r="35%">
      <stop offset="0" stop-color="#ffe48a" stop-opacity="0.95"/>
      <stop offset="0.5" stop-color="#ff9ecb" stop-opacity="0.25"/>
      <stop offset="1" stop-color="#ffffff" stop-opacity="0"/>
    </radialGradient>
    <filter id="blur"><feGaussianBlur stdDeviation="12"/></filter>
  </defs>
  <rect width="1600" height="900" fill="url(#sky)"/>
  <circle cx="1140" cy="180" r="310" fill="url(#sun)"/>
  <g opacity="0.74" fill="#fff">
    <ellipse cx="220" cy="160" rx="130" ry="48"/>
    <ellipse cx="310" cy="150" rx="80" ry="60"/>
    <ellipse cx="400" cy="170" rx="140" ry="48"/>
    <ellipse cx="980" cy="285" rx="170" ry="58"/>
    <ellipse cx="1120" cy="270" rx="100" ry="72"/>
    <ellipse cx="1260" cy="292" rx="160" ry="52"/>
  </g>
  <g opacity="0.46" fill="#d9c7ff" filter="url(#blur)">
    <ellipse cx="350" cy="610" rx="250" ry="86"/>
    <ellipse cx="780" cy="690" rx="360" ry="104"/>
    <ellipse cx="1230" cy="640" rx="300" ry="92"/>
  </g>
  <g transform="translate(0 640)">
    <path d="M0 90 C230 18 290 140 520 78 C760 12 850 150 1090 72 C1300 5 1400 110 1600 50 L1600 260 L0 260 Z" fill="#ffffff" opacity="0.72"/>
    <path d="M0 135 C260 65 400 170 650 116 C850 74 960 170 1180 104 C1390 42 1480 130 1600 94 L1600 260 L0 260 Z" fill="#9fe7d0" opacity="0.38"/>
    <g fill="#ff9ecb" opacity="0.82">
      <circle cx="180" cy="110" r="8"/><circle cx="220" cy="92" r="6"/><circle cx="520" cy="112" r="7"/>
      <circle cx="780" cy="86" r="8"/><circle cx="1010" cy="112" r="6"/><circle cx="1330" cy="90" r="9"/>
    </g>
    <g fill="#b88cff" opacity="0.72">
      <circle cx="310" cy="124" r="6"/><circle cx="610" cy="82" r="5"/><circle cx="900" cy="136" r="7"/>
      <circle cx="1180" cy="90" r="6"/><circle cx="1450" cy="120" r="5"/>
    </g>
  </g>
  <g opacity="0.8">
    <circle cx="125" cy="260" r="4" fill="#fff"/><circle cx="610" cy="170" r="3" fill="#fff"/>
    <circle cx="1380" cy="210" r="5" fill="#fff"/><circle cx="1320" cy="430" r="3" fill="#fff"/>
    <circle cx="740" cy="330" r="4" fill="#fff"/><circle cx="470" cy="430" r="3" fill="#fff"/>
  </g>
</svg>

