<svg xmlns="http://www.w3.org/2000/svg" viewBox="0 0 560 320" role="img" aria-label="Train ticket frames">
  <defs><linearGradient id="ticket" x1="0" y1="0" x2="1" y2="1"><stop stop-color="#fff"/><stop offset="1" stop-color="#f7f1ff"/></linearGradient></defs>
  <path d="M70 58 H490 a34 34 0 0 1 34 34 v46 a34 34 0 0 0 0 68 v22 a34 34 0 0 1 -34 34 H70 a34 34 0 0 1 -34 -34 v-22 a34 34 0 0 0 0 -68 V92 a34 34 0 0 1 34 -34Z" fill="url(#ticket)" stroke="#b88cff" stroke-width="6"/>
  <path d="M150 58 v204" stroke="#d9c7ff" stroke-width="5" stroke-dasharray="12 12"/>
  <rect x="185" y="102" width="250" height="42" rx="21" fill="#e8d6ff"/>
  <rect x="185" y="168" width="180" height="30" rx="15" fill="#ffe48a" opacity="0.75"/>
  <circle cx="94" cy="124" r="28" fill="#ff9ecb" opacity="0.86"/>
  <path d="M82 124 h24 M94 112 v24" stroke="#fff" stroke-width="7" stroke-linecap="round"/>
</svg>

