<svg xmlns="http://www.w3.org/2000/svg" viewBox="0 0 640 360" role="img" aria-labelledby="title desc">
  <title id="title">Castle silhouette set</title>
  <desc id="desc">Layered lavender castle towers with flags and twinkling windows.</desc>
  <g id="castle" fill="#7C67B8">
    <path d="M110 308V148h74v160z"/>
    <path d="M242 308V98h96v210z"/>
    <path d="M400 308V136h86v172z"/>
    <path d="M80 308V218h480v90z"/>
    <path d="M110 148l37-58 37 58zM242 98l48-72 48 72zM400 136l43-64 43 64z"/>
  </g>
  <g id="windows" fill="#F6D77B">
    <rect x="138" y="184" width="18" height="32" rx="9"/>
    <rect x="280" y="142" width="20" height="38" rx="10"/>
    <rect x="432" y="178" width="18" height="34" rx="9"/>
  </g>
  <g id="flags" fill="#FFB8D0">
    <path d="M290 28v42" stroke="#35284A" stroke-width="6" stroke-linecap="round"/>
    <path d="M294 30c26 0 34 16 58 12-18 24-36 16-58 18z"/>
  </g>
</svg>
