<svg xmlns="http://www.w3.org/2000/svg" viewBox="0 0 720 260" role="img" aria-labelledby="title desc">
  <title id="title">Enchanted forest path</title>
  <desc id="desc">Night trees, a moonlit path, fireflies, and street lamps.</desc>
  <path id="path" d="M360 8c-28 70-86 136-172 218h344C446 144 388 78 360 8z" fill="#F8F0D8" opacity=".28"/>
  <g id="trees" stroke="#1A2D2F" stroke-width="9" stroke-linecap="round" fill="none">
    <path d="M80 236c30-80 42-150 22-218"/>
    <path d="M640 236c-34-80-46-150-24-218"/>
    <path d="M154 230c20-72 18-124-8-176"/>
    <path d="M566 230c-22-72-18-124 10-176"/>
  </g>
  <g id="leaves" fill="#27483E">
    <ellipse cx="96" cy="54" rx="32" ry="18" transform="rotate(-24 96 54)"/>
    <ellipse cx="620" cy="52" rx="34" ry="18" transform="rotate(24 620 52)"/>
    <ellipse cx="146" cy="92" rx="26" ry="15"/>
    <ellipse cx="570" cy="90" rx="26" ry="15"/>
  </g>
  <g id="fireflies" fill="#B8FFD2">
    <circle cx="236" cy="220" r="7"/>
    <circle cx="500" cy="218" r="7"/>
    <circle cx="290" cy="238" r="5"/>
    <circle cx="438" cy="238" r="5"/>
  </g>
  <g id="street-lamps" stroke="#35284A" stroke-width="7" stroke-linecap="round">
    <path d="M200 218V118M520 218V118"/>
    <circle cx="200" cy="104" r="20" fill="#F6D77B" stroke="#35284A"/>
    <circle cx="520" cy="104" r="20" fill="#F6D77B" stroke="#35284A"/>
  </g>
</svg>
