<svg xmlns="http://www.w3.org/2000/svg" viewBox="0 0 520 300" role="img" aria-labelledby="title desc">
  <title id="title">Royal evening walk mascot pair</title>
  <desc id="desc">A cute princess and prince walking under moonlight in a painted fairytale style.</desc>
  <g id="princess" transform="translate(110 38)">
    <circle cx="72" cy="68" r="46" fill="#F3C7D8"/>
    <path d="M24 70c8-52 88-58 100 0-18-20-78-20-100 0z" fill="#35284A"/>
    <path d="M44 30l18-24 18 24 20-16 8 36H36z" fill="#F6D77B"/>
    <path d="M36 126h74l28 118H8z" fill="#D8C7FF"/>
    <path d="M112 146c32-4 44-22 52-42" fill="none" stroke="#F3C7D8" stroke-width="15" stroke-linecap="round"/>
    <path d="M44 244c-8 20-8 34-4 48M96 244c8 20 8 34 4 48" stroke="#F8F0D8" stroke-width="9" stroke-linecap="round"/>
  </g>
  <g id="prince" transform="translate(280 44)">
    <circle cx="70" cy="62" r="42" fill="#FFD8C8"/>
    <path d="M30 62c4-44 74-54 84-4-18-14-56-18-84 4z" fill="#35284A"/>
    <path d="M44 24l16-20 16 20 18-12 8 30H36z" fill="#F6D77B"/>
    <path d="M38 118h70l24 112H14z" fill="#A8D4FF"/>
    <path d="M42 230c-10 20-12 36-8 54M104 230c10 20 12 36 8 54" stroke="#F8F0D8" stroke-width="9" stroke-linecap="round"/>
    <path d="M-6 138c32 8 52 0 72-24" fill="none" stroke="#F8F0D8" stroke-width="9" stroke-linecap="round"/>
  </g>
</svg>
