<svg xmlns="http://www.w3.org/2000/svg" viewBox="0 0 384 96" role="img" aria-labelledby="title desc">
  <title id="title">Storybook icons</title>
  <desc id="desc">Castle, crown, book, rose, key, shield, letter, and lantern icons.</desc>
  <g fill="none" stroke="currentColor" stroke-width="5" stroke-linecap="round" stroke-linejoin="round">
    <path id="castle" d="M14 80V42h16v38m18 0V30h20v50m18 0V42h16v38M8 80h100"/>
    <path id="crown" d="M126 70l8-30 18 20 18-20 8 30z"/>
    <path id="book" d="M202 72V28c14-8 28-8 42 0v44c-14-8-28-8-42 0zm42-44c14-8 28-8 42 0v44c-14-8-28-8-42 0"/>
    <path id="letter" d="M308 30h58v42h-58zm4 6l25 20 25-20"/>
  </g>
</svg>
