<svg xmlns="http://www.w3.org/2000/svg" viewBox="0 0 220 180" role="img" aria-label="Pastel butterfly sticker">
  <defs>
    <linearGradient id="wingA" x1="0" x2="1" y1="0" y2="1">
      <stop offset="0%" stop-color="#F9A8D4"/>
      <stop offset="52%" stop-color="#C084FC"/>
      <stop offset="100%" stop-color="#93C5FD"/>
    </linearGradient>
    <filter id="shadow" x="-20%" y="-20%" width="140%" height="140%">
      <feDropShadow dx="0" dy="8" stdDeviation="6" flood-color="#7c5fa0" flood-opacity=".22"/>
    </filter>
  </defs>
  <g filter="url(#shadow)" stroke="#fff" stroke-width="10" stroke-linejoin="round">
    <path d="M105 82 C50 10 8 21 18 71 C26 112 64 119 105 91Z" fill="url(#wingA)"/>
    <path d="M115 82 C170 10 212 21 202 71 C194 112 156 119 115 91Z" fill="url(#wingA)"/>
    <path d="M103 95 C52 93 25 119 42 151 C60 184 94 151 108 104Z" fill="#fbc2eb"/>
    <path d="M117 95 C168 93 195 119 178 151 C160 184 126 151 112 104Z" fill="#bae6fd"/>
    <path d="M110 72 C99 91 100 126 110 146 C120 126 121 91 110 72Z" fill="#2D1B5E"/>
  </g>
  <path d="M105 72 C91 45 78 36 62 30" fill="none" stroke="#fff" stroke-width="7" stroke-linecap="round"/>
  <path d="M115 72 C129 45 142 36 158 30" fill="none" stroke="#fff" stroke-width="7" stroke-linecap="round"/>
</svg>
