<svg xmlns="http://www.w3.org/2000/svg" viewBox="0 0 360 220" role="img" aria-label="Moon star stickers">
  <g stroke="#fff" stroke-width="9" stroke-linejoin="round" filter="drop-shadow(0 10px 14px rgba(51,35,74,.16))">
    <path d="M85 30c-40 22-43 92-5 121 29 23 72 18 98-6-51 6-86-44-65-91 6-14 16-24 29-31-18-6-39-4-57 7Z" fill="#FFE66D"/>
    <path d="m246 25 18 42 45 4-34 30 10 44-39-23-39 23 10-44-34-30 45-4Z" fill="#FF5BC8"/>
    <path d="m114 167 10 21 23 3-17 16 4 23-20-11-21 11 5-23-17-16 23-3Z" fill="#8CB8FF"/>
    <path d="m296 154 8 17 19 2-14 13 4 19-17-9-17 9 4-19-14-13 19-2Z" fill="#6DF2D6"/>
  </g>
</svg>
