<svg xmlns="http://www.w3.org/2000/svg" viewBox="0 0 220 220" role="img" aria-label="Sparkle dust pattern">
  <g fill="#fff" opacity=".82">
    <path d="M38 18 44 32 58 38 44 44 38 58 32 44 18 38 32 32Z"/>
    <path d="M168 30 174 44 188 50 174 56 168 70 162 56 148 50 162 44Z"/>
    <path d="M112 98 119 115 136 122 119 129 112 146 105 129 88 122 105 115Z"/>
    <path d="M54 160 59 172 72 177 59 182 54 194 49 182 36 177 49 172Z"/>
    <circle cx="180" cy="168" r="6"/>
    <circle cx="92" cy="38" r="4"/>
    <circle cx="28" cy="104" r="5"/>
  </g>
</svg>
