<svg xmlns="http://www.w3.org/2000/svg" viewBox="0 0 1000 600" role="img" aria-label="Foam bubbles and sparkles">
  <g fill="none" stroke="#fff" stroke-width="8" opacity=".76"><circle cx="70" cy="96" r="24"/><circle cx="180" cy="210" r="14"/><circle cx="322" cy="96" r="19"/><circle cx="484" cy="190" r="28"/><circle cx="720" cy="88" r="18"/><circle cx="846" cy="250" r="26"/><circle cx="910" cy="92" r="12"/><circle cx="130" cy="430" r="30"/><circle cx="360" cy="506" r="14"/><circle cx="610" cy="420" r="24"/><circle cx="830" cy="500" r="16"/></g>
  <g fill="#FFD66E" opacity=".82"><path d="M250 330 l10 22 24 4 -17 17 4 24 -21 -12 -21 12 4 -24 -17 -17 24 -4Z"/><path d="M650 250 l8 17 18 3 -13 13 3 18 -16 -9 -16 9 3 -18 -13 -13 18 -3Z"/><path d="M500 520 l7 15 17 2 -12 12 3 17 -15 -8 -15 8 3 -17 -12 -12 17 -2Z"/></g>
</svg>
