<svg xmlns="http://www.w3.org/2000/svg" viewBox="0 0 720 360" role="img" aria-label="Heart floatie set">
  <ellipse cx="182" cy="190" rx="118" ry="42" fill="#244052" opacity=".12"/>
  <path d="M190 88 c-45 -70 -154 -28 -133 58 c17 70 133 127 133 127 s116 -57 133 -127 c21 -86 -88 -128 -133 -58Z" fill="#FF7FA8"/>
  <path d="M190 140 c-22 -34 -76 -14 -65 29 c8 35 65 62 65 62 s57 -27 65 -62 c11 -43 -43 -63 -65 -29Z" fill="#F0FBFF"/>
  <g transform="translate(390 60)">
    <circle cx="120" cy="120" r="98" fill="#FFD66E"/><circle cx="120" cy="120" r="52" fill="#F0FBFF"/>
    <path d="M52 64 C100 40 144 40 188 64" fill="none" stroke="#FF7FA8" stroke-width="28" stroke-linecap="round"/>
    <path d="M65 190 C110 214 156 212 195 185" fill="none" stroke="#55C9F6" stroke-width="26" stroke-linecap="round"/>
  </g>
  <g transform="translate(520 210)"><circle cx="62" cy="62" r="56" fill="#fff"/><path d="M6 62 h112 M62 6 v112" stroke="#55C9F6" stroke-width="18"/><path d="M22 22 l80 80 M102 22 l-80 80" stroke="#FF7FA8" stroke-width="18"/></g>
</svg>
