<svg xmlns="http://www.w3.org/2000/svg" viewBox="0 0 760 520" role="img" aria-label="Shell mail bottle">
  <ellipse cx="380" cy="448" rx="250" ry="38" fill="#244052" opacity=".14"/>
  <g transform="translate(150 120) rotate(-9 230 140)">
    <rect x="40" y="82" width="430" height="150" rx="75" fill="#BDEFFF" opacity=".7" stroke="#55C9F6" stroke-width="16"/>
    <rect x="438" y="118" width="82" height="78" rx="22" fill="#FFD66E" stroke="#244052" stroke-width="10"/>
    <path d="M116 120 h245 l-122 76Z" fill="#fff"/><path d="M116 120 v90 h245 v-90" fill="none" stroke="#FF7FA8" stroke-width="10" stroke-linejoin="round"/>
    <circle cx="239" cy="166" r="22" fill="#73E6C2"/>
  </g>
  <g transform="translate(120 280)" fill="#FF7FA8"><path d="M92 88 C32 70 24 22 92 6 C160 22 152 70 92 88Z"/><path d="M92 8v78M48 28l44 58M136 28L92 86" stroke="#fff" stroke-width="10" opacity=".82"/></g>
  <g fill="#FFD66E"><path d="M575 132 l18 36 40 6 -29 28 7 40 -36 -19 -36 19 7 -40 -29 -28 40 -6Z"/><circle cx="616" cy="312" r="18"/><circle cx="660" cy="350" r="10"/></g>
</svg>
