<svg xmlns="http://www.w3.org/2000/svg" viewBox="0 0 200 200">
  <defs>
    <pattern id="foamPattern" x="0" y="0" width="40" height="40" patternUnits="userSpaceOnUse">
      <circle cx="8" cy="8" r="5" fill="#FBFEFF" opacity="0.6"/>
      <circle cx="24" cy="16" r="3.5" fill="#FBFEFF" opacity="0.45"/>
      <circle cx="6" cy="28" r="4" fill="#A7E4FF" opacity="0.4"/>
      <circle cx="30" cy="32" r="5.5" fill="#FBFEFF" opacity="0.55"/>
      <circle cx="18" cy="34" r="2.5" fill="#FBFEFF" opacity="0.35"/>
      <circle cx="34" cy="6" r="3" fill="#A7E4FF" opacity="0.4"/>
    </pattern>
  </defs>
  <rect width="200" height="200" fill="url(#foamPattern)"/>

  <!-- Extra scattered dots for density -->
  <g fill="#FBFEFF">
    <circle cx="50" cy="5" r="2" opacity="0.5"/>
    <circle cx="105" cy="12" r="3" opacity="0.4"/>
    <circle cx="175" cy="8" r="2.5" opacity="0.45"/>
    <circle cx="14" cy="55" r="2" opacity="0.35"/>
    <circle cx="88" cy="62" r="3.5" opacity="0.5"/>
    <circle cx="152" cy="70" r="2" opacity="0.4"/>
    <circle cx="45" cy="110" r="3" opacity="0.45"/>
    <circle cx="120" cy="118" r="2.5" opacity="0.5"/>
    <circle cx="185" cy="100" r="2" opacity="0.35"/>
    <circle cx="70" cy="165" r="3" opacity="0.4"/>
    <circle cx="140" cy="158" r="2" opacity="0.5"/>
    <circle cx="20" cy="178" r="3.5" opacity="0.4"/>
    <circle cx="168" cy="190" r="2.5" opacity="0.45"/>
  </g>
</svg>
