<svg xmlns="http://www.w3.org/2000/svg" viewBox="0 0 120 60">
  <!-- Seagull 1 (large, left) -->
  <g transform="translate(20,25)" opacity="0.75">
    <path d="M0,0 Q-14,-8 -26,-4" fill="none" stroke="#18384A" stroke-width="2.5" stroke-linecap="round"/>
    <path d="M0,0 Q14,-8 26,-4" fill="none" stroke="#18384A" stroke-width="2.5" stroke-linecap="round"/>
    <path d="M0,0 Q-8,2 -10,5" fill="none" stroke="#18384A" stroke-width="1.5" stroke-linecap="round" opacity="0.4"/>
  </g>

  <!-- Seagull 2 (medium, center) -->
  <g transform="translate(60,15)" opacity="0.65">
    <path d="M0,0 Q-10,-6 -20,-3" fill="none" stroke="#2F8FC8" stroke-width="2" stroke-linecap="round"/>
    <path d="M0,0 Q10,-6 20,-3" fill="none" stroke="#2F8FC8" stroke-width="2" stroke-linecap="round"/>
  </g>

  <!-- Seagull 3 (small, far) -->
  <g transform="translate(95,10)" opacity="0.45">
    <path d="M0,0 Q-7,-4 -13,-2" fill="none" stroke="#5A7F92" stroke-width="1.5" stroke-linecap="round"/>
    <path d="M0,0 Q7,-4 13,-2" fill="none" stroke="#5A7F92" stroke-width="1.5" stroke-linecap="round"/>
  </g>

  <!-- Seagull 4 (tiny) -->
  <g transform="translate(78,35)" opacity="0.35">
    <path d="M0,0 Q-5,-3 -9,-1.5" fill="none" stroke="#5A7F92" stroke-width="1.2" stroke-linecap="round"/>
    <path d="M0,0 Q5,-3 9,-1.5" fill="none" stroke="#5A7F92" stroke-width="1.2" stroke-linecap="round"/>
  </g>
</svg>
