<svg xmlns="http://www.w3.org/2000/svg" viewBox="0 0 100 100" width="100%" height="100%">
  <!-- Left shoe -->
  <path d="M38 35 C 28 35, 25 55, 30 75 C 32 82, 38 88, 44 88 C 48 88, 50 82, 48 70 Z" fill="#FFF0F5" stroke="#FFAEC9" stroke-width="2.2" />
  <path d="M38 35 C 35 45, 38 65, 48 70" fill="none" stroke="#FF8ABF" stroke-width="1.2" />
  
  <!-- Right shoe (slightly overlapping) -->
  <path d="M52 35 C 42 35, 39 55, 44 75 C 46 82, 52 88, 58 88 C 62 88, 64 82, 62 70 Z" fill="#FFF0F5" stroke="#FFAEC9" stroke-width="2.2" />
  <path d="M52 35 C 49 45, 52 65, 62 70" fill="none" stroke="#FF8ABF" stroke-width="1.2" />
  
  <!-- Crossed Ribbons -->
  <path d="M32 36 Q 44 26 48 18 Q 50 14 48 10" fill="none" stroke="#FFAEC9" stroke-width="1.8" />
  <path d="M58 36 Q 46 26 42 18 Q 40 14 42 10" fill="none" stroke="#FFAEC9" stroke-width="1.8" />
  
  <!-- Large satin ribbon bow at top -->
  <path d="M45 10 C 38 5, 32 10, 45 10 Z" fill="#FFD2DC" stroke="#FFAEC9" stroke-width="1.5" />
  <path d="M45 10 C 52 5, 58 10, 45 10 Z" fill="#FFD2DC" stroke="#FFAEC9" stroke-width="1.5" />
  <circle cx="45" cy="10" r="2.5" fill="#FF8ABF" />
</svg>
