<svg xmlns="http://www.w3.org/2000/svg" viewBox="0 0 100 100" width="100%" height="100%">
  <!-- Top theater drape curves -->
  <path d="M 0 0 L 100 0 L 100 15 C 80 12, 60 18, 50 14 C 40 10, 20 18, 0 14 Z" fill="#FFF0F5" stroke="#FFAEC9" stroke-width="1.2" />
  <path d="M 0 0 L 100 0 L 100 12 C 80 9, 60 15, 50 11 C 40 7, 20 15, 0 11 Z" fill="#FFE1E6" opacity="0.6" />
  
  <!-- Left curtain column -->
  <path d="M 0 0 L 12 0 C 14 30, 8 60, 15 100 L 0 100 Z" fill="#FFF0F5" stroke="#FFAEC9" stroke-width="1.2" />
  
  <!-- Right curtain column -->
  <path d="M 100 0 L 88 0 C 86 30, 92 60, 85 100 L 100 100 Z" fill="#FFF0F5" stroke="#FFAEC9" stroke-width="1.2" />
</svg>
