<svg xmlns="http://www.w3.org/2000/svg" viewBox="0 0 900 720" role="img">
  <defs>
    <linearGradient id="night" x1="0" x2="1" y1="0" y2="1">
      <stop offset="0" stop-color="#2e174d"/>
      <stop offset="0.6" stop-color="#7d5bc9"/>
      <stop offset="1" stop-color="#f6b8e8"/>
    </linearGradient>
  </defs>
  <rect x="120" y="70" width="660" height="560" rx="80" fill="#ffffff" opacity="0.24" stroke="#fff" stroke-width="8"/>
  <rect x="168" y="116" width="564" height="468" rx="54" fill="url(#night)" opacity="0.76"/>
  <path d="M450 116v468M168 350h564" stroke="#fff" stroke-width="8" opacity="0.36"/>
  <path d="M255 250l82 52 76-86 102 132 118-74" fill="none" stroke="#ffe7a8" stroke-width="5" opacity="0.72"/>
  <g fill="#ffe7a8">
    <circle cx="255" cy="250" r="9"/><circle cx="337" cy="302" r="7"/><circle cx="413" cy="216" r="8"/><circle cx="515" cy="348" r="9"/><circle cx="633" cy="274" r="7"/>
  </g>
  <path d="M118 154c-78 86-80 312 6 430" fill="none" stroke="#f6b8e8" stroke-width="42" stroke-linecap="round" opacity="0.44"/>
  <path d="M782 154c78 86 80 312-6 430" fill="none" stroke="#c9a7ff" stroke-width="42" stroke-linecap="round" opacity="0.44"/>
</svg>
