<svg xmlns="http://www.w3.org/2000/svg" viewBox="0 0 240 40" role="img">
  <g fill="none" stroke="#755f8f" stroke-width="3" stroke-linecap="round" stroke-linejoin="round" opacity="0.7">
    <path d="M12 10h12a8 8 0 0 1 8 8v14H18a8 8 0 0 0-6 3z"/>
    <path d="M52 12h22M52 20h18M52 28h14"/>
    <circle cx="100" cy="20" r="10"/><path d="M108 28l8 8"/>
    <path d="M140 12c8-7 20-1 20 10 0 12-20 18-20 18s-20-6-20-18c0-11 12-17 20-10z"/>
    <path d="M188 12v18M178 20h20"/>
    <path d="M216 12l5 14 15 1-12 8 4 14-12-9-12 9 4-14-12-8 15-1z"/>
  </g>
</svg>
