<svg xmlns="http://www.w3.org/2000/svg" viewBox="0 0 1100 700" role="img">
  <defs>
    <linearGradient id="folder" x1="0" x2="1" y1="0" y2="1">
      <stop offset="0" stop-color="#f6b8e8"/>
      <stop offset="0.55" stop-color="#c9a7ff"/>
      <stop offset="1" stop-color="#b8e3ff"/>
    </linearGradient>
  </defs>
  <path d="M120 180h258c42 0 58 58 104 58h498c47 0 84 38 84 84v230c0 48-39 88-88 88H124c-48 0-88-40-88-88V264c0-47 37-84 84-84z" fill="url(#folder)" opacity="0.78"/>
  <path d="M92 304h920c30 0 54 24 54 54v194c0 48-39 88-88 88H124c-48 0-88-40-88-88V360c0-31 25-56 56-56z" fill="#ffffff" opacity="0.34" stroke="#fff" stroke-width="5"/>
  <rect x="188" y="116" width="196" height="124" rx="36" fill="#ffe7a8" opacity="0.8"/>
  <rect x="700" y="96" width="180" height="210" rx="34" fill="#fff7e8" opacity="0.72" transform="rotate(8 790 201)"/>
  <rect x="778" y="132" width="200" height="230" rx="34" fill="#f8f1ff" opacity="0.64" transform="rotate(15 878 247)"/>
  <circle cx="234" cy="482" r="62" fill="#bff7e5" opacity="0.56"/>
  <path d="M208 482l22 22 48-62" fill="none" stroke="#755f8f" stroke-width="14" stroke-linecap="round" stroke-linejoin="round" opacity="0.5"/>
</svg>
