<svg xmlns="http://www.w3.org/2000/svg" viewBox="0 0 900 900" role="img">
  <defs>
    <radialGradient id="moon" cx="45%" cy="38%" r="58%">
      <stop offset="0" stop-color="#fff8ff"/>
      <stop offset="0.45" stop-color="#ead8ff"/>
      <stop offset="1" stop-color="#b88dff" stop-opacity="0.38"/>
    </radialGradient>
    <filter id="soft" x="-30%" y="-30%" width="160%" height="160%">
      <feGaussianBlur stdDeviation="18"/>
    </filter>
  </defs>
  <circle cx="450" cy="450" r="340" fill="#c9a7ff" opacity="0.16" filter="url(#soft)"/>
  <circle cx="450" cy="450" r="270" fill="url(#moon)"/>
  <circle cx="330" cy="330" r="34" fill="#fff" opacity="0.34"/>
  <circle cx="540" cy="545" r="58" fill="#d9bcff" opacity="0.24"/>
  <path d="M106 562c101-62 210-52 307-5 92 45 189 54 296-10 37-23 77-36 121-34" fill="none" stroke="#fff" stroke-width="42" stroke-linecap="round" opacity="0.38"/>
  <path d="M162 620c120-44 215-32 324 20 86 41 181 25 258-20" fill="none" stroke="#f6b8e8" stroke-width="24" stroke-linecap="round" opacity="0.28"/>
  <g fill="#ffe7a8" opacity="0.9">
    <path d="M705 205l10 29 29 10-29 10-10 29-10-29-29-10 29-10z"/>
    <path d="M220 220l7 19 19 7-19 7-7 19-7-19-19-7 19-7z"/>
    <circle cx="680" cy="680" r="7"/>
    <circle cx="244" cy="690" r="5"/>
  </g>
</svg>
