<svg xmlns="http://www.w3.org/2000/svg" viewBox="0 0 900 620" role="img">
  <defs>
    <radialGradient id="gateMoon" cx="50%" cy="44%" r="60%">
      <stop offset="0" stop-color="#fff8ff"/>
      <stop offset="0.55" stop-color="#ead8ff"/>
      <stop offset="1" stop-color="#c9a7ff"/>
    </radialGradient>
  </defs>
  <circle cx="450" cy="292" r="190" fill="url(#gateMoon)" opacity="0.86"/>
  <path d="M226 518c0-172 88-300 224-300s224 128 224 300" fill="none" stroke="#ffffff" stroke-width="44" stroke-linecap="round" opacity="0.54"/>
  <path d="M280 516c0-128 66-224 170-224s170 96 170 224" fill="none" stroke="#f6b8e8" stroke-width="22" stroke-linecap="round" opacity="0.52"/>
  <path d="M78 530c96-48 186-48 270 0s180 48 286 0 166-42 220-10" fill="none" stroke="#fff" stroke-width="36" stroke-linecap="round" opacity="0.42"/>
  <g fill="#ffe7a8">
    <path d="M706 122l9 25 25 9-25 9-9 25-9-25-25-9 25-9z"/>
    <path d="M180 170l7 18 18 7-18 7-7 18-7-18-18-7 18-7z"/>
  </g>
</svg>
