<svg xmlns="http://www.w3.org/2000/svg" viewBox="0 0 640 520" role="img" aria-label="Editorial accent blobs">
  <path d="M148 65c76-53 179-25 212 48 33 74-9 164-85 205-76 42-185 33-230-42C0 202 72 118 148 65Z" fill="#F4A7A7" opacity=".26"/>
  <path d="M407 161c57-41 143-23 177 31 35 54 16 142-42 185-58 44-152 38-197-12-45-49 5-163 62-204Z" fill="#C9A96E" opacity=".18"/>
  <path d="M265 311c35-32 89-24 120 8s42 88 8 119c-34 32-112 36-146-4-34-41-17-91 18-123Z" fill="#C0183A" opacity=".16"/>
</svg>
