<svg xmlns="http://www.w3.org/2000/svg" viewBox="0 0 320 80" role="img" aria-label="Fashion outline icons">
  <g fill="none" stroke="#1A1118" stroke-width="4" stroke-linecap="round" stroke-linejoin="round">
    <path d="M42 24c0-12 19-12 19 0 0 8-10 8-10 17"/>
    <path d="M20 58h62L51 41 20 58Z"/>
    <path d="M121 18 96 34l14 18v18h44V52l14-18-25-16c-5 10-16 10-22 0Z"/>
    <path d="m214 18 7 19 19 7-19 7-7 19-7-19-19-7 19-7 7-19Z"/>
    <path d="M282 18h18v30c0 10-8 18-18 18s-18-8-18-18V18h18Z"/>
    <path d="M264 34h36"/>
  </g>
</svg>
