<svg xmlns="http://www.w3.org/2000/svg" viewBox="0 0 240 420" role="img" aria-label="Fashion line figure">
  <defs>
    <linearGradient id="dress" x1="86" x2="168" y1="170" y2="354" gradientUnits="userSpaceOnUse">
      <stop stop-color="#C0183A" stop-opacity=".88"/>
      <stop offset="1" stop-color="#F4A7A7" stop-opacity=".38"/>
    </linearGradient>
  </defs>
  <path d="M124 63c17 0 30 13 30 30s-13 30-30 30-30-13-30-30 13-30 30-30Z" fill="#FFF8F5" stroke="#1A1118" stroke-width="4"/>
  <path d="M91 91c-24 8-37 26-39 53M157 91c25 8 39 26 41 53" fill="none" stroke="#1A1118" stroke-width="4" stroke-linecap="round"/>
  <path d="M88 148c21-20 55-22 77 0l22 208H62l26-208Z" fill="url(#dress)" stroke="#1A1118" stroke-width="4" stroke-linejoin="round"/>
  <path d="M91 151 54 230M163 151l38 79M108 357 95 405M146 357l14 48" fill="none" stroke="#1A1118" stroke-width="5" stroke-linecap="round"/>
  <path d="M92 188c22 12 48 12 70 0M78 259h96" fill="none" stroke="#FFF8F5" stroke-width="3" stroke-linecap="round" opacity=".86"/>
  <path d="M104 64c1-34 56-42 73-4-28-9-45 8-73 4Z" fill="#1A1118"/>
  <path d="M100 409h-28M171 409h28" stroke="#1A1118" stroke-width="5" stroke-linecap="round"/>
</svg>
