<svg xmlns="http://www.w3.org/2000/svg" viewBox="0 0 720 280" role="img" aria-label="Runway silhouettes">
  <g fill="#1A1118" opacity=".82">
    <path d="M99 38c18 0 32 14 32 32 0 13-8 25-19 30l35 140h-36l-11-92-11 92H53l35-140c-12-5-20-17-20-30 0-18 14-32 31-32Z"/>
    <path d="M275 26c16 0 29 13 29 29 0 12-7 22-17 27l55 158h-41l-25-100-25 100h-41l55-158c-10-5-17-15-17-27 0-16 12-29 27-29Z"/>
    <path d="M458 50c15 0 27 12 27 27 0 11-6 20-15 25l42 138h-34l-19-87-20 87h-34l42-138c-9-5-15-14-15-25 0-15 12-27 26-27Z"/>
    <path d="M617 34c19 0 34 15 34 34 0 12-7 23-17 29l47 143h-38l-25-93-23 93h-39l47-143c-10-6-17-17-17-29 0-19 14-34 31-34Z"/>
  </g>
  <path d="M20 250h680" stroke="#C0183A" stroke-width="8" stroke-linecap="square" opacity=".9"/>
</svg>
