<svg xmlns="http://www.w3.org/2000/svg" viewBox="0 0 60 80" fill="none">
  <!-- Tulip body -->
  <path d="M30,15 C22,15 16,22 16,32 C16,44 22,52 30,54 C38,52 44,44 44,32 C44,22 38,15 30,15Z" fill="#F5A0C0"/>
  <!-- Left petal -->
  <path d="M30,15 C22,8 14,10 14,18 C14,28 22,34 30,36" fill="#FF8FA8"/>
  <!-- Right petal -->
  <path d="M30,15 C38,8 46,10 46,18 C46,28 38,34 30,36" fill="#E87898"/>
  <!-- Center line -->
  <path d="M30,15 C30,25 30,38 30,54" stroke="#D06080" stroke-width="0.8" opacity="0.4"/>
  <!-- Stem -->
  <line x1="30" y1="54" x2="30" y2="72" stroke="#7A9E76" stroke-width="2.5" stroke-linecap="round"/>
  <!-- Leaf left -->
  <path d="M28,60 C22,54 16,56 18,64 C20,70 28,66 28,60Z" fill="#8FAF8A"/>
  <!-- Leaf right -->
  <path d="M32,65 C38,60 44,62 42,70 C40,76 32,71 32,65Z" fill="#7A9E76"/>
</svg>
