<svg xmlns="http://www.w3.org/2000/svg" viewBox="0 0 900 620" role="img" aria-label="Bubbles and sparkles">
  <g fill="none" stroke="#FFFFFF" stroke-width="4" opacity=".85"><circle cx="90" cy="120" r="24"/><circle cx="210" cy="300" r="14"/><circle cx="450" cy="120" r="19"/><circle cx="620" cy="390" r="28"/><circle cx="780" cy="205" r="16"/><circle cx="820" cy="500" r="22"/></g>
  <g fill="#FFD86B" opacity=".9"><path d="M330 220l10 24l24 10l-24 10l-10 24l-10-24l-24-10l24-10z"/><path d="M710 95l8 18l18 8l-18 8l-8 18l-8-18l-18-8l18-8z"/><path d="M145 500l8 18l18 8l-18 8l-8 18l-8-18l-18-8l18-8z"/></g>
</svg>
