<svg xmlns="http://www.w3.org/2000/svg" viewBox="0 0 620 220" role="img" aria-label="Cute shell stickers">
  <g stroke="#07436B" stroke-width="5" stroke-linejoin="round">
    <path d="M70 172 C80 90 145 55 210 172Z" fill="#FFF7DE"/><path d="M92 170 C100 120 132 86 140 170M140 170 C145 110 165 86 188 170" fill="none"/>
    <path d="M292 170 C250 126 268 72 330 68 C390 72 410 126 368 170Z" fill="#FF9BC0"/><path d="M330 70v96M286 96l82 72M374 96l-82 72" fill="none"/>
    <path d="M470 172 C486 98 545 76 590 172Z" fill="#BCEBFF"/><path d="M493 168 C505 122 528 98 532 168M532 168 C540 116 556 98 575 168" fill="none"/>
  </g>
</svg>
