<svg xmlns="http://www.w3.org/2000/svg" viewBox="0 0 420 160" fill="none">
  <path d="M26 70c62-28 126 18 190-10 40-18 74-20 128 4" stroke="#ff6fb1" stroke-width="8" stroke-linecap="round"/>
  <path d="M74 114c35-12 70-12 105 0" stroke="#6ec6ff" stroke-width="7" stroke-linecap="round"/>
  <path d="m310 32 9 20 22 3-16 15 4 22-19-11-20 11 4-22-16-15 22-3 10-20Z" fill="#ffd166" stroke="#fff" stroke-width="5"/>
  <path d="M357 105c14 0 26-12 26-26 0 14 12 26 26 26-14 0-26 12-26 26 0-14-12-26-26-26Z" fill="#cdb4ff" stroke="#fff" stroke-width="5"/>
</svg>
