<svg xmlns="http://www.w3.org/2000/svg" viewBox="0 0 360 160" role="img" aria-label="Kawaii sticker sheet">
  <defs>
    <filter id="shadow" x="-20%" y="-20%" width="140%" height="140%">
      <feDropShadow dx="0" dy="6" stdDeviation="4" flood-color="#ff6fb1" flood-opacity=".25"/>
    </filter>
  </defs>
  <g filter="url(#shadow)" stroke="#fff" stroke-width="7" stroke-linejoin="round">
    <path fill="#ff6fb1" d="M48 30c12-22 54-8 42 24-7 19-31 33-42 42-12-9-35-23-43-42C-7 22 35 8 48 30Z"/>
    <path fill="#ffd166" d="m148 18 13 29 31 4-23 22 6 31-27-15-28 15 6-31-23-22 31-4 14-29Z"/>
    <circle cx="252" cy="62" r="42" fill="#6ec6ff"/>
    <path fill="#54d7a0" d="M302 96c24-44 76-29 48 16-12 19-39 28-62 25 3-14 7-28 14-41Z"/>
  </g>
  <g fill="#392033" font-family="Arial, sans-serif" font-size="18" font-weight="700">
    <text x="229" y="68">hi</text>
    <text x="126" y="135">★</text>
    <text x="327" y="134">leaf</text>
  </g>
</svg>
