<svg viewBox="0 0 500 350" fill="none" xmlns="http://www.w3.org/2000/svg">
  <defs>
    <linearGradient id="bg"><stop offset="0%" stop-color="#8A5A72" stop-opacity="0.6"/><stop offset="100%" stop-color="#D4A0FF" stop-opacity="0.3"/></linearGradient>
    <radialGradient id="bl"><stop offset="0%" stop-color="#FF8EC7" stop-opacity="0.6"/><stop offset="100%" stop-color="#FFB6D9" stop-opacity="0.1"/></radialGradient>
  </defs>
  <path d="M0 20 C80 40 150 80 220 130 C290 180 350 200 420 190 C450 185 480 170 500 160" stroke="url(#bg)" stroke-width="4" stroke-linecap="round" fill="none"/>
  <circle cx="100" cy="45" r="12" fill="url(#bl)" opacity="0.6"/><circle cx="100" cy="45" r="4" fill="#FFE4A8" opacity="0.8"/>
  <circle cx="180" cy="95" r="12" fill="url(#bl)" opacity="0.6"/><circle cx="180" cy="95" r="4" fill="#FFE4A8" opacity="0.8"/>
  <circle cx="260" cy="145" r="12" fill="url(#bl)" opacity="0.6"/><circle cx="260" cy="145" r="4" fill="#FFE4A8" opacity="0.8"/>
  <circle cx="340" cy="175" r="12" fill="url(#bl)" opacity="0.6"/><circle cx="340" cy="175" r="4" fill="#FFE4A8" opacity="0.8"/>
  <circle cx="420" cy="185" r="12" fill="url(#bl)" opacity="0.6"/><circle cx="420" cy="185" r="4" fill="#FFE4A8" opacity="0.8"/>
  <ellipse cx="120" cy="55" rx="8" ry="4" fill="#8EECD4" opacity="0.4" transform="rotate(-30 120 55)"/>
  <ellipse cx="300" cy="160" rx="7" ry="3.5" fill="#8EECD4" opacity="0.35" transform="rotate(20 300 160)"/>
</svg>
