<svg xmlns="http://www.w3.org/2000/svg" width="560" height="420" viewBox="0 0 560 420" fill="none">
  <g opacity="0.72" stroke="#78949d" stroke-linecap="round" stroke-linejoin="round">
    <path d="M62 72c84-20 160-15 238 0 74 14 139 10 198-7" stroke-width="1.3" stroke-dasharray="7 9"/>
    <path d="M68 132h192M68 157h150M68 182h220M68 207h110" stroke-width="1" opacity="0.55"/>
    <path d="M385 118c31 0 57 25 57 56s-26 56-57 56-57-25-57-56 26-56 57-56Z" stroke-width="1.4"/>
    <path d="M358 174h54M385 145v58M369 203h32" stroke-width="1.1"/>
    <path d="M86 286c51-26 86-26 142 0 56 27 101 24 151-4 39-22 72-20 107 3" stroke-width="1.2" stroke-dasharray="4 7"/>
    <path d="M72 330h416" stroke-width="0.9" opacity="0.45"/>
  </g>
  <g opacity="0.42" fill="#d4c1a2">
    <circle cx="96" cy="92" r="3"/><circle cx="455" cy="95" r="2.4"/><circle cx="310" cy="306" r="2.8"/>
  </g>
</svg>
