<svg xmlns="http://www.w3.org/2000/svg" width="420" height="420" viewBox="0 0 420 420" fill="none">
  <g opacity="0.78" stroke="#78949d" stroke-linecap="round" stroke-linejoin="round">
    <circle cx="210" cy="210" r="132" stroke-width="1.3" stroke-dasharray="6 8"/>
    <circle cx="210" cy="210" r="102" stroke-width="0.9"/>
    <path d="M150 258c36 28 84 28 120 0M158 169c30-30 74-35 108-7" stroke-width="1.2"/>
    <path d="M210 123v174M168 210h84M183 178c-13 20-24 44-31 72M237 178c13 20 24 44 31 72" stroke-width="1" opacity="0.58"/>
    <path d="M118 210c-24-20-35-42-32-66 26 3 47 17 62 43M302 210c24-20 35-42 32-66-26 3-47 17-62 43" stroke-width="1.1"/>
    <path d="M118 210c-24 20-35 42-32 66 26-3 47-17 62-43M302 210c24 20 35 42 32 66-26-3-47-17-62-43" stroke-width="1.1"/>
  </g>
</svg>
