<svg xmlns="http://www.w3.org/2000/svg" viewBox="0 0 100 140" fill="none">
  <!-- Ribbon bow -->
  <path d="M35 20 Q50 10 50 20 Q50 10 65 20 Q50 28 50 20 Q50 28 35 20" fill="#FF8E9E" opacity="0.8"/>
  <circle cx="50" cy="22" r="4" fill="#FF8E9E"/>
  <!-- Bell body -->
  <path d="M30 60 Q30 30 50 28 Q70 30 70 60 L72 85 Q50 95 28 85 Z" fill="#FFE3A8" stroke="#D4B870" stroke-width="1.5"/>
  <!-- Bell shine -->
  <path d="M38 45 Q42 38 48 42" stroke="#FFFFFF" stroke-width="2" fill="none" opacity="0.6" stroke-linecap="round"/>
  <!-- Bell bottom rim -->
  <ellipse cx="50" cy="87" rx="23" ry="6" fill="#D4B870" opacity="0.4"/>
  <!-- Clapper -->
  <line x1="50" y1="87" x2="50" y2="105" stroke="#6B879D" stroke-width="2"/>
  <circle cx="50" cy="108" r="5" fill="#8ECDF6" stroke="#6B879D" stroke-width="1.5"/>
  <!-- Tiny stars -->
  <path d="M20 50 L22 46 L24 50 L20 48 L24 48 Z" fill="#FFE3A8" opacity="0.6"/>
  <path d="M76 40 L78 36 L80 40 L76 38 L80 38 Z" fill="#FFE3A8" opacity="0.5"/>
  <path d="M82 70 L84 66 L86 70 L82 68 L86 68 Z" fill="#9FE3D0" opacity="0.4"/>
</svg>
