<svg viewBox="0 0 100 120" fill="none" xmlns="http://www.w3.org/2000/svg">
  <!-- Ears -->
  <ellipse cx="35" cy="18" rx="7" ry="20" fill="#FFD6E8" stroke="#FF8ABF" stroke-width="1.5"/>
  <ellipse cx="65" cy="18" rx="7" ry="20" fill="#FFD6E8" stroke="#FF8ABF" stroke-width="1.5"/>
  <!-- Body -->
  <ellipse cx="50" cy="85" rx="22" ry="26" fill="#FFF5F9" stroke="#FFD6E8" stroke-width="1.5"/>
  <!-- Head -->
  <circle cx="50" cy="50" r="20" fill="#FFFFFF" stroke="#FFD6E8" stroke-width="1.5"/>
  <!-- Glasses -->
  <circle cx="42" cy="48" r="6" fill="none" stroke="#D8B8FF" stroke-width="1.5"/>
  <circle cx="58" cy="48" r="6" fill="none" stroke="#D8B8FF" stroke-width="1.5"/>
  <line x1="48" y1="48" x2="52" y2="48" stroke="#D8B8FF" stroke-width="1.5"/>
  <!-- Eyes behind glasses -->
  <circle cx="42" cy="48" r="2.5" fill="#3D2244"/>
  <circle cx="58" cy="48" r="2.5" fill="#3D2244"/>
  <circle cx="43" cy="47" r="1" fill="#FFFFFF"/>
  <circle cx="59" cy="47" r="1" fill="#FFFFFF"/>
  <!-- Blush -->
  <circle cx="36" cy="54" r="3" fill="#FFD6E8" opacity="0.5"/>
  <circle cx="64" cy="54" r="3" fill="#FFD6E8" opacity="0.5"/>
  <!-- Book -->
  <rect x="30" y="90" width="40" height="28" rx="2" fill="#FFE17A" stroke="#E8C84A" stroke-width="1"/>
  <line x1="50" y1="90" x2="50" y2="118" stroke="#E8C84A" stroke-width="1"/>
  <line x1="35" y1="97" x2="47" y2="97" stroke="#E8C84A" stroke-width="0.8" opacity="0.5"/>
  <line x1="35" y1="102" x2="47" y2="102" stroke="#E8C84A" stroke-width="0.8" opacity="0.5"/>
  <line x1="53" y1="97" x2="65" y2="97" stroke="#E8C84A" stroke-width="0.8" opacity="0.5"/>
  <line x1="53" y1="102" x2="65" y2="102" stroke="#E8C84A" stroke-width="0.8" opacity="0.5"/>
</svg>
