<svg viewBox="0 0 120 160" fill="none" xmlns="http://www.w3.org/2000/svg">
  <!-- Left ear -->
  <ellipse cx="42" cy="35" rx="10" ry="28" fill="#FFD6E8" stroke="#FF8ABF" stroke-width="2"/>
  <ellipse cx="42" cy="35" rx="5" ry="18" fill="#FF8ABF" opacity="0.3"/>
  <!-- Right ear -->
  <ellipse cx="78" cy="35" rx="10" ry="28" fill="#FFD6E8" stroke="#FF8ABF" stroke-width="2"/>
  <ellipse cx="78" cy="35" rx="5" ry="18" fill="#FF8ABF" opacity="0.3"/>
  <!-- Body -->
  <ellipse cx="60" cy="110" rx="30" ry="35" fill="#FFF5F9" stroke="#FFD6E8" stroke-width="2"/>
  <!-- Head -->
  <circle cx="60" cy="80" r="28" fill="#FFFFFF" stroke="#FFD6E8" stroke-width="2"/>
  <!-- Cheeks -->
  <circle cx="44" cy="85" r="5" fill="#FFD6E8" opacity="0.6"/>
  <circle cx="76" cy="85" r="5" fill="#FFD6E8" opacity="0.6"/>
  <!-- Eyes -->
  <circle cx="50" cy="76" r="4" fill="#3D2244"/>
  <circle cx="70" cy="76" r="4" fill="#3D2244"/>
  <circle cx="51.5" cy="74.5" r="1.5" fill="#FFFFFF"/>
  <circle cx="71.5" cy="74.5" r="1.5" fill="#FFFFFF"/>
  <!-- Nose -->
  <ellipse cx="60" cy="84" rx="3" ry="2" fill="#FF8ABF"/>
  <!-- Mouth -->
  <path d="M57 87 Q60 90 63 87" stroke="#FF8ABF" stroke-width="1.5" fill="none" stroke-linecap="round"/>
  <!-- Flower -->
  <circle cx="85" cy="105" r="4" fill="#FFE17A"/>
  <circle cx="82" cy="102" r="2.5" fill="#FF8ABF"/>
  <circle cx="88" cy="102" r="2.5" fill="#FF8ABF"/>
  <circle cx="82" cy="108" r="2.5" fill="#FF8ABF"/>
  <circle cx="88" cy="108" r="2.5" fill="#FF8ABF"/>
  <line x1="85" y1="109" x2="85" y2="120" stroke="#7EEDC8" stroke-width="2" stroke-linecap="round"/>
</svg>
