<svg viewBox="0 0 300 320" fill="none" xmlns="http://www.w3.org/2000/svg">
  <!-- Corner flowers -->
  <circle cx="20" cy="20" r="8" fill="#FFB8C8" opacity="0.6"/>
  <circle cx="14" cy="16" r="4" fill="#FF8ABF" opacity="0.5"/>
  <circle cx="26" cy="16" r="4" fill="#FF8ABF" opacity="0.5"/>
  <circle cx="14" cy="24" r="4" fill="#FF8ABF" opacity="0.5"/>
  <circle cx="26" cy="24" r="4" fill="#FF8ABF" opacity="0.5"/>

  <circle cx="280" cy="20" r="8" fill="#D8B8FF" opacity="0.6"/>
  <circle cx="274" cy="16" r="4" fill="#D8B8FF" opacity="0.4"/>
  <circle cx="286" cy="16" r="4" fill="#D8B8FF" opacity="0.4"/>
  <circle cx="274" cy="24" r="4" fill="#D8B8FF" opacity="0.4"/>
  <circle cx="286" cy="24" r="4" fill="#D8B8FF" opacity="0.4"/>

  <circle cx="20" cy="300" r="8" fill="#7EEDC8" opacity="0.5"/>
  <circle cx="14" cy="296" r="4" fill="#7EEDC8" opacity="0.4"/>
  <circle cx="26" cy="296" r="4" fill="#7EEDC8" opacity="0.4"/>
  <circle cx="14" cy="304" r="4" fill="#7EEDC8" opacity="0.4"/>
  <circle cx="26" cy="304" r="4" fill="#7EEDC8" opacity="0.4"/>

  <circle cx="280" cy="300" r="8" fill="#FFE17A" opacity="0.6"/>
  <circle cx="274" cy="296" r="4" fill="#FFE17A" opacity="0.4"/>
  <circle cx="286" cy="296" r="4" fill="#FFE17A" opacity="0.4"/>
  <circle cx="274" cy="304" r="4" fill="#FFE17A" opacity="0.4"/>
  <circle cx="286" cy="304" r="4" fill="#FFE17A" opacity="0.4"/>

  <!-- Vine border -->
  <path d="M40 10 Q150 -5 260 10" stroke="#7EEDC8" stroke-width="1.5" fill="none" opacity="0.5"/>
  <path d="M40 310 Q150 325 260 310" stroke="#7EEDC8" stroke-width="1.5" fill="none" opacity="0.5"/>
  <path d="M10 40 Q-5 160 10 280" stroke="#7EEDC8" stroke-width="1.5" fill="none" opacity="0.4"/>
  <path d="M290 40 Q305 160 290 280" stroke="#7EEDC8" stroke-width="1.5" fill="none" opacity="0.4"/>
</svg>
