<svg viewBox="0 0 400 60" fill="none" xmlns="http://www.w3.org/2000/svg">
  <!-- Pot 1 -->
  <rect x="40" y="35" width="24" height="20" rx="3" fill="#C8A070" opacity="0.5"/>
  <rect x="37" y="32" width="30" height="6" rx="3" fill="#A08060" opacity="0.4"/>
  <circle cx="52" cy="28" r="6" fill="#FF8ABF" opacity="0.6"/>
  <circle cx="48" cy="25" r="4" fill="#FFB8C8" opacity="0.5"/>
  <circle cx="56" cy="25" r="4" fill="#FFB8C8" opacity="0.5"/>
  <line x1="52" y1="34" x2="52" y2="42" stroke="#7EEDC8" stroke-width="1.5"/>
  <!-- Pot 2 -->
  <rect x="120" y="35" width="24" height="20" rx="3" fill="#C8A070" opacity="0.5"/>
  <rect x="117" y="32" width="30" height="6" rx="3" fill="#A08060" opacity="0.4"/>
  <circle cx="132" cy="26" r="5" fill="#FFE17A" opacity="0.6"/>
  <circle cx="128" cy="23" r="3.5" fill="#FFE17A" opacity="0.4"/>
  <circle cx="136" cy="23" r="3.5" fill="#FFE17A" opacity="0.4"/>
  <line x1="132" y1="32" x2="132" y2="40" stroke="#7EEDC8" stroke-width="1.5"/>
  <!-- Pot 3 -->
  <rect x="200" y="35" width="24" height="20" rx="3" fill="#C8A070" opacity="0.5"/>
  <rect x="197" y="32" width="30" height="6" rx="3" fill="#A08060" opacity="0.4"/>
  <ellipse cx="212" cy="24" rx="4" ry="7" fill="#D8B8FF" opacity="0.6"/>
  <ellipse cx="208" cy="26" rx="3" ry="5" fill="#D8B8FF" opacity="0.4"/>
  <ellipse cx="216" cy="26" rx="3" ry="5" fill="#D8B8FF" opacity="0.4"/>
  <line x1="212" y1="32" x2="212" y2="40" stroke="#7EEDC8" stroke-width="1.5"/>
  <!-- Pot 4 -->
  <rect x="280" y="35" width="24" height="20" rx="3" fill="#C8A070" opacity="0.5"/>
  <rect x="277" y="32" width="30" height="6" rx="3" fill="#A08060" opacity="0.4"/>
  <circle cx="292" cy="26" r="5" fill="#7EEDC8" opacity="0.5"/>
  <circle cx="288" cy="23" r="3.5" fill="#7EEDC8" opacity="0.4"/>
  <circle cx="296" cy="23" r="3.5" fill="#7EEDC8" opacity="0.4"/>
  <line x1="292" y1="32" x2="292" y2="40" stroke="#5ECBA0" stroke-width="1.5"/>
  <!-- Pot 5 -->
  <rect x="360" y="35" width="24" height="20" rx="3" fill="#C8A070" opacity="0.5"/>
  <rect x="357" y="32" width="30" height="6" rx="3" fill="#A08060" opacity="0.4"/>
  <circle cx="372" cy="28" r="5" fill="#A8D4FF" opacity="0.5"/>
  <circle cx="368" cy="25" r="3.5" fill="#A8D4FF" opacity="0.4"/>
  <circle cx="376" cy="25" r="3.5" fill="#A8D4FF" opacity="0.4"/>
  <line x1="372" y1="34" x2="372" y2="42" stroke="#7EEDC8" stroke-width="1.5"/>
</svg>
