<svg viewBox="0 0 600 40" fill="none" xmlns="http://www.w3.org/2000/svg">
  <!-- Fence posts -->
  <rect x="20" y="8" width="6" height="28" rx="3" fill="#FFD6E8" opacity="0.5"/>
  <rect x="60" y="12" width="6" height="24" rx="3" fill="#FFD6E8" opacity="0.45"/>
  <rect x="100" y="8" width="6" height="28" rx="3" fill="#FFD6E8" opacity="0.5"/>
  <rect x="140" y="12" width="6" height="24" rx="3" fill="#FFD6E8" opacity="0.45"/>
  <rect x="180" y="8" width="6" height="28" rx="3" fill="#FFD6E8" opacity="0.5"/>
  <rect x="220" y="12" width="6" height="24" rx="3" fill="#FFD6E8" opacity="0.45"/>
  <rect x="260" y="8" width="6" height="28" rx="3" fill="#FFD6E8" opacity="0.5"/>
  <rect x="300" y="12" width="6" height="24" rx="3" fill="#FFD6E8" opacity="0.45"/>
  <rect x="340" y="8" width="6" height="28" rx="3" fill="#FFD6E8" opacity="0.5"/>
  <rect x="380" y="12" width="6" height="24" rx="3" fill="#FFD6E8" opacity="0.45"/>
  <rect x="420" y="8" width="6" height="28" rx="3" fill="#FFD6E8" opacity="0.5"/>
  <rect x="460" y="12" width="6" height="24" rx="3" fill="#FFD6E8" opacity="0.45"/>
  <rect x="500" y="8" width="6" height="28" rx="3" fill="#FFD6E8" opacity="0.5"/>
  <rect x="540" y="12" width="6" height="24" rx="3" fill="#FFD6E8" opacity="0.45"/>
  <rect x="580" y="8" width="6" height="28" rx="3" fill="#FFD6E8" opacity="0.5"/>
  <!-- Horizontal rails -->
  <rect x="10" y="14" width="580" height="3" rx="1.5" fill="#FFD6E8" opacity="0.35"/>
  <rect x="10" y="26" width="580" height="3" rx="1.5" fill="#FFD6E8" opacity="0.3"/>
  <!-- Tiny flowers on fence -->
  <circle cx="45" cy="10" r="3" fill="#FF8ABF" opacity="0.4"/>
  <circle cx="165" cy="10" r="2.5" fill="#FFE17A" opacity="0.4"/>
  <circle cx="285" cy="10" r="3" fill="#D8B8FF" opacity="0.4"/>
  <circle cx="405" cy="10" r="2.5" fill="#7EEDC8" opacity="0.4"/>
  <circle cx="525" cy="10" r="3" fill="#FFB8C8" opacity="0.4"/>
</svg>
