<svg viewBox="0 0 120 100" fill="none" xmlns="http://www.w3.org/2000/svg">
  <!-- Gate posts -->
  <rect x="10" y="20" width="8" height="75" rx="4" fill="#C8A070" opacity="0.6"/>
  <rect x="102" y="20" width="8" height="75" rx="4" fill="#C8A070" opacity="0.6"/>
  <!-- Gate arch -->
  <path d="M14 20 Q60 -5 106 20" stroke="#C8A070" stroke-width="4" fill="none" opacity="0.5" stroke-linecap="round"/>
  <!-- Gate planks -->
  <rect x="24" y="30" width="6" height="50" rx="3" fill="#FFD6E8" opacity="0.5"/>
  <rect x="36" y="25" width="6" height="55" rx="3" fill="#FFD6E8" opacity="0.45"/>
  <rect x="48" y="22" width="6" height="58" rx="3" fill="#FFD6E8" opacity="0.5"/>
  <rect x="60" y="22" width="6" height="58" rx="3" fill="#FFD6E8" opacity="0.5"/>
  <rect x="72" y="25" width="6" height="55" rx="3" fill="#FFD6E8" opacity="0.45"/>
  <rect x="84" y="30" width="6" height="50" rx="3" fill="#FFD6E8" opacity="0.5"/>
  <!-- Horizontal rails -->
  <rect x="20" y="40" width="76" height="3" rx="1.5" fill="#C8A070" opacity="0.4"/>
  <rect x="20" y="60" width="76" height="3" rx="1.5" fill="#C8A070" opacity="0.4"/>
  <!-- Flowers on arch -->
  <circle cx="40" cy="12" r="4" fill="#FF8ABF" opacity="0.6"/>
  <circle cx="60" cy="8" r="5" fill="#FFE17A" opacity="0.6"/>
  <circle cx="80" cy="12" r="4" fill="#D8B8FF" opacity="0.6"/>
  <!-- Leaves -->
  <ellipse cx="35" cy="16" rx="3" ry="2" fill="#7EEDC8" opacity="0.5" transform="rotate(-20 35 16)"/>
  <ellipse cx="85" cy="16" rx="3" ry="2" fill="#7EEDC8" opacity="0.5" transform="rotate(20 85 16)"/>
  <!-- Heart lock -->
  <path d="M58 50 C58 47 60 45 62 45 C64 45 66 47 66 50 C66 53 62 56 62 56 C62 56 58 53 58 50Z" fill="#FF8ABF" opacity="0.5"/>
</svg>
