<svg viewBox="0 0 600 400" fill="none" xmlns="http://www.w3.org/2000/svg">
  <!-- Scattered petals -->
  <ellipse cx="80" cy="60" rx="8" ry="14" fill="#FFB8C8" opacity="0.5" transform="rotate(25 80 60)"/>
  <ellipse cx="200" cy="120" rx="6" ry="11" fill="#FF8ABF" opacity="0.4" transform="rotate(-15 200 120)"/>
  <ellipse cx="350" cy="80" rx="7" ry="12" fill="#FFD6E8" opacity="0.5" transform="rotate(40 350 80)"/>
  <ellipse cx="500" cy="150" rx="8" ry="13" fill="#FFB8C8" opacity="0.45" transform="rotate(-30 500 150)"/>
  <ellipse cx="150" cy="250" rx="6" ry="10" fill="#D8B8FF" opacity="0.4" transform="rotate(20 150 250)"/>
  <ellipse cx="420" cy="300" rx="7" ry="12" fill="#FFB8C8" opacity="0.5" transform="rotate(-45 420 300)"/>
  <ellipse cx="550" cy="50" rx="5" ry="9" fill="#FF8ABF" opacity="0.35" transform="rotate(60 550 50)"/>
  <ellipse cx="60" cy="350" rx="7" ry="11" fill="#FFD6E8" opacity="0.45" transform="rotate(-20 60 350)"/>
  <ellipse cx="300" cy="350" rx="6" ry="10" fill="#D8B8FF" opacity="0.4" transform="rotate(35 300 350)"/>
  <ellipse cx="480" cy="250" rx="8" ry="13" fill="#FFB8C8" opacity="0.4" transform="rotate(-55 480 250)"/>
  <ellipse cx="250" cy="200" rx="5" ry="9" fill="#FF8ABF" opacity="0.3" transform="rotate(10 250 200)"/>
  <ellipse cx="580" cy="320" rx="6" ry="11" fill="#FFD6E8" opacity="0.4" transform="rotate(50 580 320)"/>
</svg>
