<svg xmlns="http://www.w3.org/2000/svg" viewBox="0 0 100 100" width="100%" height="100%">
  <!-- Coffee bean 1 -->
  <g transform="translate(20, 30) rotate(15)">
    <ellipse cx="0" cy="0" rx="10" ry="6" fill="#4E3629" />
    <path d="M-10 0 C-5 -3 5 3 10 0" fill="none" stroke="#2C1E16" stroke-width="1.5" />
  </g>
  <!-- Coffee bean 2 -->
  <g transform="translate(60, 20) rotate(-45)">
    <ellipse cx="0" cy="0" rx="12" ry="7" fill="#6F4E37" />
    <path d="M-12 0 C-6 -4 6 4 12 0" fill="none" stroke="#4E3629" stroke-width="1.5" />
  </g>
  <!-- Coffee bean 3 -->
  <g transform="translate(45, 65) rotate(70)">
    <ellipse cx="0" cy="0" rx="9" ry="5.5" fill="#5C3E21" />
    <path d="M-9 0 C-4.5 -3 4.5 3 9 0" fill="none" stroke="#2C1E16" stroke-width="1.2" />
  </g>
  <!-- Coffee bean 4 -->
  <g transform="translate(80, 70) rotate(-10)">
    <ellipse cx="0" cy="0" rx="11" ry="6.5" fill="#4E3629" />
    <path d="M-11 0 C-5.5 -3 5.5 3 11 0" fill="none" stroke="#2C1E16" stroke-width="1.5" />
  </g>
</svg>
