<svg xmlns="http://www.w3.org/2000/svg" viewBox="0 0 96 72" fill="none">
  <path d="M47.4 37.5C35.8 23.7 23.8 17.7 13.7 19.7C3.6 21.7 4.2 36 14.1 41.2C23.1 46 35.9 43.9 47.4 37.5Z" fill="#FFFDF5" fill-opacity="0.92"/>
  <path d="M48.6 37.5C60.2 23.7 72.2 17.7 82.3 19.7C92.4 21.7 91.8 36 81.9 41.2C72.9 46 60.1 43.9 48.6 37.5Z" fill="#FFFDF5" fill-opacity="0.92"/>
  <path d="M45.7 38.6C35.5 41 28.1 47.8 26.4 56.5C24.9 64.3 34.6 66.8 40.7 60.2C45.3 55.2 47.2 47.2 45.7 38.6Z" fill="#F7F1D2" fill-opacity="0.86"/>
  <path d="M50.3 38.6C60.5 41 67.9 47.8 69.6 56.5C71.1 64.3 61.4 66.8 55.3 60.2C50.7 55.2 48.8 47.2 50.3 38.6Z" fill="#F7F1D2" fill-opacity="0.86"/>
  <path d="M48 29.7C51.4 34.5 51.6 47.8 48 60.4C44.4 47.8 44.6 34.5 48 29.7Z" fill="#D6A25F" fill-opacity="0.7"/>
  <path d="M47.7 30C44.7 23.4 40.1 17.6 33.6 12.5" stroke="#F8F1CB" stroke-width="2.6" stroke-linecap="round"/>
  <path d="M48.3 30C51.3 23.4 55.9 17.6 62.4 12.5" stroke="#F8F1CB" stroke-width="2.6" stroke-linecap="round"/>
  <path d="M17.8 30.5C24.5 32.2 32.8 34.4 41.7 37.1" stroke="#D6A25F" stroke-opacity="0.22" stroke-width="2" stroke-linecap="round"/>
  <path d="M78.2 30.5C71.5 32.2 63.2 34.4 54.3 37.1" stroke="#D6A25F" stroke-opacity="0.22" stroke-width="2" stroke-linecap="round"/>
</svg>
