<svg xmlns="http://www.w3.org/2000/svg" viewBox="0 0 96 72" fill="none">
  <path d="M47 36.8C35.8 20.9 21.6 13.9 11.9 17.8C3.3 21.2 5.8 35.5 17 39.8C26.7 43.5 38.5 41 47 36.8Z" fill="#F7D66A" fill-opacity="0.9"/>
  <path d="M49 36.8C60.2 20.9 74.4 13.9 84.1 17.8C92.7 21.2 90.2 35.5 79 39.8C69.3 43.5 57.5 41 49 36.8Z" fill="#F7D66A" fill-opacity="0.9"/>
  <path d="M46.1 38.1C35.5 41 29.4 49.3 29.3 58C29.2 65.2 38.6 65.1 43.3 58.2C47 52.9 48.1 45.1 46.1 38.1Z" fill="#D6A25F" fill-opacity="0.82"/>
  <path d="M49.9 38.1C60.5 41 66.6 49.3 66.7 58C66.8 65.2 57.4 65.1 52.7 58.2C49 52.9 47.9 45.1 49.9 38.1Z" fill="#D6A25F" fill-opacity="0.82"/>
  <path d="M48 29C51.8 35.2 51.4 49.5 48 61C44.6 49.5 44.2 35.2 48 29Z" fill="#7C5B19" fill-opacity="0.48"/>
  <path d="M47.6 29.3C45.1 22.6 40.8 16.3 34.2 10.9" stroke="#EED382" stroke-width="2.5" stroke-linecap="round"/>
  <path d="M48.4 29.3C50.9 22.6 55.2 16.3 61.8 10.9" stroke="#EED382" stroke-width="2.5" stroke-linecap="round"/>
  <path d="M19.2 28.5C27.9 31.2 35 33.9 41 36.7" stroke="#FFF4B8" stroke-opacity="0.42" stroke-width="2" stroke-linecap="round"/>
  <path d="M76.8 28.5C68.1 31.2 61 33.9 55 36.7" stroke="#FFF4B8" stroke-opacity="0.42" stroke-width="2" stroke-linecap="round"/>
</svg>
