<svg xmlns="http://www.w3.org/2000/svg" viewBox="0 0 180 180" fill="none">
  <path d="M89 154C81 110 87 65 101 24" stroke="#3A5A40" stroke-width="3" stroke-linecap="round" opacity=".35"/>
  <path d="M100 27c-29 10-42 33-34 62 31-9 46-32 34-62Z" fill="#588157" opacity=".78"/>
  <path d="M86 65c-33-9-57 7-65 39 33 10 59-5 65-39Z" fill="#A3B18A" opacity=".72"/>
  <path d="M96 83c31-12 56 2 67 33-30 13-57 1-67-33Z" fill="#588157" opacity=".68"/>
  <path d="M87 121c-29 3-48 23-48 52 30-1 51-20 48-52Z" fill="#DAD7CD" stroke="#A3B18A" stroke-width="2" opacity=".82"/>
</svg>
