<svg xmlns="http://www.w3.org/2000/svg" viewBox="0 0 180 220" fill="none">
  <path d="M89 80c18-30 45-23 49 2 4 27-20 40-49-2Z" fill="#DAD7CD" stroke="#A3B18A" stroke-width="2" opacity=".72"/>
  <path d="M89 80c-18-30-45-23-49 2-4 27 20 40 49-2Z" fill="#DAD7CD" stroke="#A3B18A" stroke-width="2" opacity=".72"/>
  <path d="M89 82c29-19 52-2 45 22-8 26-35 29-45-22Z" fill="#A3B18A" opacity=".46"/>
  <path d="M89 82c-29-19-52-2-45 22 8 26 35 29 45-22Z" fill="#A3B18A" opacity=".46"/>
  <circle cx="89" cy="82" r="10" fill="#D6A25F" opacity=".55"/>
  <path d="M90 92c5 42-6 77-36 112" stroke="#3A5A40" stroke-width="3" stroke-linecap="round" opacity=".35"/>
  <path d="M76 143c-25-6-42 7-45 31 25 7 43-4 45-31Z" fill="#588157" opacity=".42"/>
  <path d="M83 160c23-9 42 2 47 25-23 10-42 2-47-25Z" fill="#A3B18A" opacity=".42"/>
</svg>
