<svg xmlns="http://www.w3.org/2000/svg" viewBox="0 0 150 720" fill="none">
  <path d="M101-15C62 75 111 128 87 210c-26 91-82 139-40 241 36 88 94 129 63 282" stroke="#3A5A40" stroke-width="5" stroke-linecap="round" opacity=".2"/>
  <path d="M103 55c30-9 46 9 45 36-29 8-48-6-45-36Z" fill="#588157" opacity=".42"/>
  <path d="M81 116c-29-11-49 4-54 31 28 11 49 1 54-31Z" fill="#A3B18A" opacity=".52"/>
  <path d="M89 208c31-4 46 17 40 44-30 3-47-15-40-44Z" fill="#588157" opacity=".44"/>
  <path d="M55 289c-27-13-49 1-56 28 27 14 49 4 56-28Z" fill="#A3B18A" opacity=".5"/>
  <path d="M60 397c30-8 48 9 48 37-30 7-49-6-48-37Z" fill="#588157" opacity=".4"/>
  <path d="M88 525c-30-5-49 12-47 40 30 6 49-9 47-40Z" fill="#A3B18A" opacity=".48"/>
  <path d="M107 630c28-11 49 3 54 31-28 12-49 1-54-31Z" fill="#588157" opacity=".4"/>
</svg>
