<svg width="360" height="260" viewBox="0 0 360 260" fill="none" xmlns="http://www.w3.org/2000/svg">
  <path d="M42 218C78 184 137 168 198 174C257 180 309 196 334 218H42Z" fill="#FFD38A"/>
  <path d="M90 216C128 199 183 198 226 216" stroke="#E7A84F" stroke-width="8" stroke-linecap="round"/>
  <path d="M180 198C187 158 188 118 177 80" stroke="#A66A35" stroke-width="16" stroke-linecap="round"/>
  <path d="M180 78C132 67 98 81 74 115C116 117 151 106 180 78Z" fill="#31C48D"/>
  <path d="M182 78C147 39 105 29 61 44C92 73 132 85 182 78Z" fill="#44D7A8"/>
  <path d="M183 78C195 32 226 8 273 8C256 48 226 71 183 78Z" fill="#2DBE8B"/>
  <path d="M184 80C229 54 270 57 310 86C269 100 227 98 184 80Z" fill="#56E0B5"/>
  <circle cx="69" cy="214" r="7" fill="#FFF7E8"/>
  <circle cx="283" cy="212" r="5" fill="#FFF7E8"/>
</svg>
