<svg width="540" height="420" viewBox="0 0 540 420" fill="none" xmlns="http://www.w3.org/2000/svg">
  <path d="M120 164C120 110 164 66 218 66H326C380 66 424 110 424 164V294C424 327 397 354 364 354H180C147 354 120 327 120 294V164Z" fill="#DDF7FF"/>
  <path d="M148 174C148 129 184 94 228 94H316C360 94 396 129 396 174V286C396 308 378 326 356 326H188C166 326 148 308 148 286V174Z" fill="white" fill-opacity=".72"/>
  <path d="M172 174C172 143 197 118 228 118H316C347 118 372 143 372 174V220H172V174Z" fill="#BDEBFF"/>
  <path d="M172 220H372V284C372 294 364 302 354 302H190C180 302 172 294 172 284V220Z" fill="#FFF7E8"/>
  <path d="M182 220C220 245 323 245 362 220" stroke="#0EA5E9" stroke-width="6" stroke-linecap="round"/>
  <circle cx="272" cy="260" r="30" fill="#FFFFFF" stroke="#FFD7A8" stroke-width="5"/>
  <circle cx="272" cy="260" r="13" fill="#38BDF8"/>
  <path d="M92 322C126 298 164 298 198 322C232 346 270 346 304 322C338 298 376 298 410 322C438 342 470 346 500 334" stroke="#79D7F7" stroke-width="10" stroke-linecap="round"/>
  <circle cx="103" cy="125" r="16" fill="#FFF7E8" stroke="#FFD7A8" stroke-width="4"/>
  <circle cx="436" cy="102" r="13" fill="#FFFFFF" stroke="#BAE6FD" stroke-width="4"/>
  <circle cx="444" cy="292" r="22" fill="#FFB3C2" fill-opacity=".85"/>
</svg>
