<svg width="1200" height="210" viewBox="0 0 1200 210" fill="none" xmlns="http://www.w3.org/2000/svg">
  <path d="M0 104C72 58 150 58 226 104C302 150 378 150 454 104C530 58 606 58 682 104C758 150 834 150 910 104C986 58 1062 58 1200 104V210H0V104Z" fill="#BDEBFF" fill-opacity=".68"/>
  <path d="M0 136C86 92 166 92 246 136C326 180 406 180 486 136C566 92 646 92 726 136C806 180 886 180 966 136C1046 92 1126 92 1200 136" stroke="#38BDF8" stroke-width="8" stroke-linecap="round" stroke-opacity=".5"/>
</svg>
