<svg xmlns="http://www.w3.org/2000/svg" viewBox="0 0 240 40" fill="none">
  <!-- Croissant -->
  <path d="M10 30 Q20 15 30 20 Q25 25 30 30 Q20 35 10 30" fill="#FFE3A8" stroke="#D4B870" stroke-width="1"/>
  <!-- Cookie -->
  <circle cx="60" cy="24" r="10" fill="#FFE3A8" stroke="#D4B870" stroke-width="1"/>
  <circle cx="56" cy="22" r="1.5" fill="#8B6914" opacity="0.6"/>
  <circle cx="63" cy="20" r="1.5" fill="#8B6914" opacity="0.6"/>
  <circle cx="60" cy="27" r="1.5" fill="#8B6914" opacity="0.6"/>
  <!-- Cake slice -->
  <path d="M90 30 L100 12 L110 30 Z" fill="#FFB8C8" stroke="#FF8E9E" stroke-width="1"/>
  <path d="M92 28 L100 14 L108 28" fill="#FFFFFF" opacity="0.4"/>
  <circle cx="100" cy="18" r="2" fill="#FF8E9E"/>
  <!-- Donut -->
  <circle cx="140" cy="24" r="10" fill="#B9C8F6" stroke="#8ECDF6" stroke-width="1.5"/>
  <circle cx="140" cy="24" r="4" fill="#F2FAFF"/>
  <!-- Muffin -->
  <path d="M168 28 Q175 14 182 28" fill="#FFE3A8" stroke="#D4B870" stroke-width="1"/>
  <rect x="170" y="28" width="10" height="8" rx="2" fill="#9FE3D0" stroke="#7BC8A4" stroke-width="0.8"/>
  <!-- Spoon -->
  <ellipse cx="210" cy="16" rx="6" ry="4" fill="#CFEAFF" stroke="#8ECDF6" stroke-width="1"/>
  <line x1="210" y1="20" x2="210" y2="36" stroke="#8ECDF6" stroke-width="1.5" stroke-linecap="round"/>
</svg>
