<svg xmlns="http://www.w3.org/2000/svg" viewBox="0 0 200 260" fill="none">
  <!-- Bottom macaron - berry coral -->
  <ellipse cx="100" cy="230" rx="32" ry="14" fill="#FF8E9E" opacity="0.9"/>
  <rect x="68" y="222" width="64" height="8" fill="#FFB8C8" rx="2"/>
  <ellipse cx="100" cy="222" rx="32" ry="14" fill="#FF8E9E"/>
  <!-- Second macaron - honey foam -->
  <ellipse cx="100" cy="195" rx="30" ry="13" fill="#FFE3A8" opacity="0.9"/>
  <rect x="70" y="187" width="60" height="8" fill="#FFF0CC" rx="2"/>
  <ellipse cx="100" cy="187" rx="30" ry="13" fill="#FFE3A8"/>
  <!-- Third macaron - macaron mint -->
  <ellipse cx="100" cy="160" rx="28" ry="12" fill="#9FE3D0" opacity="0.9"/>
  <rect x="72" y="152" width="56" height="8" fill="#C8F0E8" rx="2"/>
  <ellipse cx="100" cy="152" rx="28" ry="12" fill="#9FE3D0"/>
  <!-- Fourth macaron - blueberry lavender -->
  <ellipse cx="100" cy="125" rx="26" ry="11" fill="#B9C8F6" opacity="0.9"/>
  <rect x="74" y="118" width="52" height="7" fill="#D8E4FF" rx="2"/>
  <ellipse cx="100" cy="118" rx="26" ry="11" fill="#B9C8F6"/>
  <!-- Top macaron - kitty blue -->
  <ellipse cx="100" cy="92" rx="24" ry="10" fill="#8ECDF6" opacity="0.9"/>
  <rect x="76" y="85" width="48" height="7" fill="#CFEAFF" rx="2"/>
  <ellipse cx="100" cy="85" rx="24" ry="10" fill="#8ECDF6"/>
  <!-- Tiny cat face on top -->
  <circle cx="95" cy="82" r="1.5" fill="#24384A"/>
  <circle cx="105" cy="82" r="1.5" fill="#24384A"/>
  <path d="M98 85 Q100 87 102 85" stroke="#24384A" stroke-width="0.8" fill="none"/>
  <path d="M91 76 L93 72 L96 76" fill="#8ECDF6" stroke="#6B879D" stroke-width="0.5"/>
  <path d="M104 76 L107 72 L109 76" fill="#8ECDF6" stroke="#6B879D" stroke-width="0.5"/>
</svg>
