<svg xmlns="http://www.w3.org/2000/svg" viewBox="0 0 400 400" fill="none">
  <!-- Paw print 1 -->
  <g opacity="0.7" transform="translate(50, 50) rotate(-15)">
    <ellipse cx="15" cy="22" rx="7" ry="9" fill="#8ECDF6"/>
    <circle cx="6" cy="10" r="4.5" fill="#8ECDF6"/>
    <circle cx="15" cy="6" r="4.5" fill="#8ECDF6"/>
    <circle cx="24" cy="10" r="4.5" fill="#8ECDF6"/>
  </g>
  <!-- Paw print 2 -->
  <g opacity="0.6" transform="translate(130, 100) rotate(10)">
    <ellipse cx="15" cy="22" rx="7" ry="9" fill="#B9C8F6"/>
    <circle cx="6" cy="10" r="4.5" fill="#B9C8F6"/>
    <circle cx="15" cy="6" r="4.5" fill="#B9C8F6"/>
    <circle cx="24" cy="10" r="4.5" fill="#B9C8F6"/>
  </g>
  <!-- Paw print 3 -->
  <g opacity="0.55" transform="translate(220, 170) rotate(-5)">
    <ellipse cx="15" cy="22" rx="7" ry="9" fill="#8ECDF6"/>
    <circle cx="6" cy="10" r="4.5" fill="#8ECDF6"/>
    <circle cx="15" cy="6" r="4.5" fill="#8ECDF6"/>
    <circle cx="24" cy="10" r="4.5" fill="#8ECDF6"/>
  </g>
  <!-- Paw print 4 -->
  <g opacity="0.5" transform="translate(300, 240) rotate(20)">
    <ellipse cx="15" cy="22" rx="7" ry="9" fill="#9FE3D0"/>
    <circle cx="6" cy="10" r="4.5" fill="#9FE3D0"/>
    <circle cx="15" cy="6" r="4.5" fill="#9FE3D0"/>
    <circle cx="24" cy="10" r="4.5" fill="#9FE3D0"/>
  </g>
  <!-- Paw print 5 -->
  <g opacity="0.45" transform="translate(80, 300) rotate(-10)">
    <ellipse cx="15" cy="22" rx="7" ry="9" fill="#B9C8F6"/>
    <circle cx="6" cy="10" r="4.5" fill="#B9C8F6"/>
    <circle cx="15" cy="6" r="4.5" fill="#B9C8F6"/>
    <circle cx="24" cy="10" r="4.5" fill="#B9C8F6"/>
  </g>
  <!-- Paw print 6 -->
  <g opacity="0.4" transform="translate(350, 60) rotate(5)">
    <ellipse cx="15" cy="22" rx="7" ry="9" fill="#FFE3A8"/>
    <circle cx="6" cy="10" r="4.5" fill="#FFE3A8"/>
    <circle cx="15" cy="6" r="4.5" fill="#FFE3A8"/>
    <circle cx="24" cy="10" r="4.5" fill="#FFE3A8"/>
  </g>
</svg>
