<svg xmlns="http://www.w3.org/2000/svg" viewBox="0 0 180 96" role="img" aria-label="Clownfish">
  <path d="M18 48 3 28v40z" fill="#FF8AA8"/>
  <ellipse cx="86" cy="48" rx="72" ry="34" fill="#FFB785"/>
  <path d="M55 17c12 19 12 43 0 62M92 15c-11 23-11 44 0 66M128 25c-9 16-9 30 0 46" fill="none" stroke="#fff" stroke-width="12" stroke-linecap="round"/>
  <path d="M54 17c12 19 12 43 0 62M92 15c-11 23-11 44 0 66M128 25c-9 16-9 30 0 46" fill="none" stroke="#17364D" stroke-width="3" stroke-linecap="round" opacity=".42"/>
  <circle cx="135" cy="40" r="6" fill="#17364D"/>
  <path d="M78 14c20 8 27 22 18 40 25-13 29-30-18-40Z" fill="#FFE08A" opacity=".75"/>
</svg>
