<svg xmlns="http://www.w3.org/2000/svg" viewBox="0 0 760 260" role="img" aria-label="Pastel coral reef">
  <path d="M0 214c115-35 207-18 302-28 122-13 243-64 458 4v70H0z" fill="#FFE9C8"/>
  <g fill="#FF9DB4">
    <path d="M92 218c4-55 14-80 28-96 13 24 13 57 10 96z"/>
    <path d="M126 220c0-47 20-76 48-96-6 39-1 62 18 96z"/>
    <path d="M558 220c4-68 26-103 55-128-5 51 6 84 28 128z"/>
  </g>
  <g fill="#7FE3C6">
    <path d="M220 226c-18-58-5-98 40-122-8 40-2 80 20 122z"/>
    <path d="M482 226c-18-72-1-123 46-154-13 60-8 104 21 154z"/>
  </g>
  <g fill="#CDB8FF">
    <circle cx="328" cy="218" r="30"/>
    <circle cx="370" cy="205" r="42"/>
    <circle cx="420" cy="220" r="27"/>
  </g>
  <path d="M35 235c134-16 294-14 445-6 123 6 204 3 245-4" fill="none" stroke="#BDEBFF" stroke-width="8" stroke-linecap="round"/>
</svg>
