<svg xmlns="http://www.w3.org/2000/svg" viewBox="0 0 420 180" role="img" aria-label="Cute crab and starfish">
  <g transform="translate(38 54)">
    <ellipse cx="72" cy="54" rx="54" ry="34" fill="#FF8AA8"/>
    <circle cx="50" cy="22" r="9" fill="#fff"/><circle cx="50" cy="22" r="4" fill="#17364D"/>
    <circle cx="94" cy="22" r="9" fill="#fff"/><circle cx="94" cy="22" r="4" fill="#17364D"/>
    <path d="M27 46 0 30m117 16 28-16M34 83 8 102m100-19 27 19" stroke="#FF8AA8" stroke-width="10" stroke-linecap="round"/>
    <path d="M5 29c-12-13 8-28 20-14M140 29c12-13-8-28-20-14" fill="none" stroke="#FF8AA8" stroke-width="10" stroke-linecap="round"/>
  </g>
  <path d="m296 24 18 44 48-8-34 35 22 44-47-22-35 36 7-50-45-22 50-9z" fill="#FFB785"/>
  <circle cx="303" cy="88" r="5" fill="#fff" opacity=".7"/>
  <circle cx="330" cy="96" r="4" fill="#fff" opacity=".7"/>
</svg>
