<svg xmlns="http://www.w3.org/2000/svg" viewBox="0 0 520 260" role="img" aria-label="Two complete pastel fish">
  <defs>
    <linearGradient id="fishBlue" x1="0" x2="1">
      <stop stop-color="#68C7F5"/>
      <stop offset="1" stop-color="#CDB8FF"/>
    </linearGradient>
    <linearGradient id="fishCoral" x1="0" x2="1">
      <stop stop-color="#FF9DB4"/>
      <stop offset="1" stop-color="#FFE08A"/>
    </linearGradient>
  </defs>

  <g id="blue-fish" transform="translate(54 48) rotate(-4 96 48)">
    <path d="M26 50 2 22v56z" fill="#68C7F5" opacity=".9"/>
    <ellipse cx="98" cy="50" rx="76" ry="38" fill="url(#fishBlue)"/>
    <path d="M78 16c27 10 39 28 29 56 34-19 39-43-29-56Z" fill="#FFFFFF" opacity=".36"/>
    <path d="M96 84c22 10 42 10 60-1-19 25-39 32-60 1Z" fill="#7FE3C6" opacity=".72"/>
    <path d="M43 50c16-12 34-18 54-18" fill="none" stroke="#FFFFFF" stroke-width="6" stroke-linecap="round" opacity=".32"/>
    <circle cx="148" cy="40" r="8" fill="#FFFFFF"/>
    <circle cx="151" cy="41" r="4" fill="#17364D"/>
    <path d="M158 56c-10 8-20 8-30 0" fill="none" stroke="#17364D" stroke-width="4" stroke-linecap="round" opacity=".52"/>
  </g>

  <g id="coral-fish" transform="translate(286 128) rotate(6 82 42)">
    <path d="M24 43 4 20v46z" fill="#FF8AA8" opacity=".92"/>
    <ellipse cx="82" cy="43" rx="62" ry="31" fill="url(#fishCoral)"/>
    <path d="M62 15c22 8 32 23 24 47 28-16 32-36-24-47Z" fill="#FFFFFF" opacity=".36"/>
    <path d="M82 70c19 8 35 8 50-1-16 21-33 27-50 1Z" fill="#CDB8FF" opacity=".75"/>
    <path d="M44 31c12 11 13 25 0 37M76 16c-10 20-10 36 0 55" fill="none" stroke="#FFFFFF" stroke-width="7" stroke-linecap="round" opacity=".68"/>
    <circle cx="123" cy="35" r="7" fill="#FFFFFF"/>
    <circle cx="126" cy="36" r="3.5" fill="#17364D"/>
    <path d="M132 48c-8 6-17 6-25 0" fill="none" stroke="#17364D" stroke-width="3.5" stroke-linecap="round" opacity=".5"/>
  </g>
</svg>
