<svg xmlns="http://www.w3.org/2000/svg" viewBox="0 0 220 180" role="img" aria-label="Coconut cocktail icons">
  <path d="M67 72c31-16 79-14 100 8-2 48-25 76-63 76-37 0-59-30-37-84Z" fill="#FFF8E8" stroke="#3FA9F5" stroke-width="5"/>
  <path d="M83 93c23 11 45 12 67 1" fill="none" stroke="#FFD166" stroke-width="8" stroke-linecap="round"/>
  <path d="M139 71 174 23" stroke="#4DD9B4" stroke-width="8" stroke-linecap="round"/>
  <path d="M165 24c-25-8-46-2-62 18 25 10 46 4 62-18Z" fill="#4DD9B4"/>
  <path d="M102 72 85 20" stroke="#FF9FB0" stroke-width="7" stroke-linecap="round"/>
  <path d="M80 18h42l-21 28Z" fill="#FFD166"/>
  <circle cx="95" cy="120" r="6" fill="#5BBBEF"/>
  <circle cx="124" cy="122" r="6" fill="#FF9FB0"/>
</svg>
