<svg xmlns="http://www.w3.org/2000/svg" viewBox="0 0 240 420" role="img" aria-label="Palm leaf frame">
  <defs>
    <linearGradient id="leaf" x1="0" y1="0" x2="1" y2="1">
      <stop offset="0" stop-color="#4DD9B4"/>
      <stop offset="1" stop-color="#1B9CCB"/>
    </linearGradient>
  </defs>
  <g fill="url(#leaf)" stroke="#12324A" stroke-opacity=".12" stroke-width="2">
    <path d="M44 28c52 70 64 136 34 199C41 164 32 92 44 28Z"/>
    <path d="M96 8c43 82 43 157 0 225C73 152 73 77 96 8Z"/>
    <path d="M156 36c10 84-8 154-55 211-5-78 14-149 55-211Z"/>
    <path d="M38 232c70 9 122 41 156 96-69 1-122-31-156-96Z"/>
    <path d="M18 330c66-15 125-1 177 42-64 24-123 10-177-42Z"/>
  </g>
  <path d="M90 18c-14 116-13 244 8 381" fill="none" stroke="#0B789D" stroke-width="8" stroke-linecap="round"/>
</svg>
