<svg xmlns="http://www.w3.org/2000/svg" viewBox="0 0 220 180" role="img" aria-label="Tropical flowers">
  <defs>
    <radialGradient id="petal" cx="50%" cy="42%" r="70%">
      <stop offset="0" stop-color="#FFFFFF"/>
      <stop offset=".62" stop-color="#FFD8E2"/>
      <stop offset="1" stop-color="#FF9FB0"/>
    </radialGradient>
  </defs>
  <g fill="#4DD9B4" opacity=".9">
    <ellipse cx="44" cy="118" rx="18" ry="46" transform="rotate(-45 44 118)"/>
    <ellipse cx="170" cy="102" rx="16" ry="42" transform="rotate(51 170 102)"/>
  </g>
  <g transform="translate(80 44)">
    <ellipse cx="30" cy="8" rx="15" ry="34" fill="url(#petal)" transform="rotate(0 30 30)"/>
    <ellipse cx="30" cy="52" rx="15" ry="34" fill="url(#petal)" transform="rotate(180 30 30)"/>
    <ellipse cx="8" cy="30" rx="15" ry="34" fill="url(#petal)" transform="rotate(-90 30 30)"/>
    <ellipse cx="52" cy="30" rx="15" ry="34" fill="url(#petal)" transform="rotate(90 30 30)"/>
    <circle cx="30" cy="30" r="11" fill="#FFD166"/>
  </g>
  <g transform="translate(22 28) scale(.62)">
    <ellipse cx="30" cy="8" rx="15" ry="34" fill="url(#petal)"/>
    <ellipse cx="30" cy="52" rx="15" ry="34" fill="url(#petal)"/>
    <ellipse cx="8" cy="30" rx="15" ry="34" fill="url(#petal)" transform="rotate(-90 30 30)"/>
    <ellipse cx="52" cy="30" rx="15" ry="34" fill="url(#petal)" transform="rotate(90 30 30)"/>
    <circle cx="30" cy="30" r="11" fill="#FFD166"/>
  </g>
</svg>
