<svg xmlns="http://www.w3.org/2000/svg" viewBox="0 0 720 460" role="img" aria-label="Football ball hitting net">
  <defs>
    <radialGradient id="burst" cx="50%" cy="50%" r="60%"><stop stop-color="#fff"/><stop offset="0.4" stop-color="#00cff5"/><stop offset="1" stop-color="#135dff" stop-opacity="0"/></radialGradient>
    <filter id="glow"><feGaussianBlur stdDeviation="8" result="b"/><feMerge><feMergeNode in="b"/><feMergeNode in="SourceGraphic"/></feMerge></filter>
  </defs>
  <rect x="84" y="74" width="500" height="300" rx="20" fill="#fff" opacity="0.58" stroke="#135dff" stroke-width="8"/>
  <g stroke="#135dff" stroke-width="4" opacity="0.34">
    <path d="M122 76v298M184 76v298M246 76v298M308 76v298M370 76v298M432 76v298M494 76v298M556 76v298"/>
    <path d="M84 120h500M84 166h500M84 212h500M84 258h500M84 304h500M84 350h500"/>
  </g>
  <ellipse cx="390" cy="230" rx="210" ry="156" fill="url(#burst)" opacity="0.46"/>
  <path d="M75 316C188 214 258 304 346 218c70-68 144-22 258-122" fill="none" stroke="#ff7a00" stroke-width="18" stroke-linecap="round" opacity="0.8"/>
  <g filter="url(#glow)">
    <circle cx="448" cy="196" r="72" fill="#fff" stroke="#062043" stroke-width="8"/>
    <path d="M448 132l36 29-14 47h-46l-16-47z" fill="#062043"/>
    <path d="M392 182l32 26M502 182l-32 26M424 208l-18 38M470 208l20 38" stroke="#062043" stroke-width="8" stroke-linecap="round"/>
  </g>
</svg>
