<svg xmlns="http://www.w3.org/2000/svg" viewBox="0 0 1600 1000" role="img" aria-label="Stadium ocean night scene">
  <defs>
    <linearGradient id="sky" x1="0" y1="0" x2="0" y2="1"><stop stop-color="#FFFFFF"/><stop offset="0.55" stop-color="#EAF8FF"/><stop offset="1" stop-color="#BFF4FF"/></linearGradient>
    <linearGradient id="sea" x1="0" y1="0" x2="1" y2="0"><stop stop-color="#D9FFF2"/><stop offset="0.45" stop-color="#135DFF"/><stop offset="1" stop-color="#00CFF5"/></linearGradient>
    <linearGradient id="field" x1="0" y1="0" x2="1" y2="1"><stop stop-color="#C8FFE2"/><stop offset="0.65" stop-color="#00C875"/><stop offset="1" stop-color="#135DFF"/></linearGradient>
    <filter id="glow"><feGaussianBlur stdDeviation="9" result="blur"/><feMerge><feMergeNode in="blur"/><feMergeNode in="SourceGraphic"/></feMerge></filter>
  </defs>
  <rect width="1600" height="1000" fill="url(#sky)"/>
  <path d="M0 585 C210 520 330 650 520 590 C720 520 850 650 1030 590 C1230 520 1370 610 1600 560 L1600 1000 L0 1000Z" fill="#C8F8FF" opacity="0.92"/>
  <path d="M0 650 C220 570 365 720 560 635 C745 552 910 720 1120 628 C1310 545 1430 675 1600 625 L1600 1000 L0 1000Z" fill="url(#sea)" opacity="0.58"/>
  <g opacity="0.72" stroke="#00CFF5" stroke-width="4" fill="none">
    <path d="M40 690 C220 640 340 735 510 690 C720 635 860 735 1030 690 C1230 645 1370 725 1560 670"/>
    <path d="M0 740 C210 710 330 780 510 735 C720 690 850 780 1030 735 C1230 690 1370 775 1600 720" opacity="0.55"/>
  </g>
  <g transform="translate(145 548) skewX(-10)">
    <path d="M85 175 L1185 70 L1430 315 L220 430Z" fill="url(#field)" opacity="0.92"/>
    <path d="M520 128 L665 363 M190 182 L1365 300" stroke="#FFFFFF" stroke-width="5" opacity="0.72"/>
    <ellipse cx="705" cy="255" rx="92" ry="38" fill="none" stroke="#FFFFFF" stroke-width="4" opacity="0.65"/>
  </g>
  <g filter="url(#glow)">
    <path d="M260 215 L100 640" stroke="#00CFF5" stroke-width="10" opacity="0.7"/>
    <path d="M1275 180 L1510 625" stroke="#135DFF" stroke-width="12" opacity="0.82"/>
    <path d="M800 120 L730 600" stroke="#FF7A00" stroke-width="8" opacity="0.62"/>
    <circle cx="260" cy="215" r="34" fill="#FFFFFF"/>
    <circle cx="1275" cy="180" r="38" fill="#FFFFFF"/>
    <circle cx="800" cy="120" r="28" fill="#FFFFFF"/>
  </g>
  <g transform="translate(620 220)" filter="url(#glow)">
    <path d="M0 0 H360 L330 105 H30Z" fill="#FFFFFF" stroke="#00CFF5" stroke-width="5"/>
    <text x="44" y="65" font-family="Inter, Arial" font-size="42" font-weight="800" fill="#062043">DUC 24</text>
    <path d="M245 28 h70 v42 h-70z" fill="#135DFF" opacity="0.72"/>
  </g>
</svg>
