<svg xmlns="http://www.w3.org/2000/svg" viewBox="0 0 1200 260" role="img" aria-label="Colorful stadium crowd ribbon">
  <defs>
    <linearGradient id="ribbon" x1="0" y1="0" x2="1" y2="0"><stop stop-color="#135dff"/><stop offset="0.35" stop-color="#00cff5"/><stop offset="0.68" stop-color="#00c875"/><stop offset="1" stop-color="#ff7a00"/></linearGradient>
  </defs>
  <path d="M0 130C150 52 280 190 420 118c156-80 260 86 420 14 74-34 132-36 200-8 68 28 122 30 160 8v128H0z" fill="url(#ribbon)" opacity="0.72"/>
  <path d="M0 152C170 76 286 206 430 142c158-70 276 74 432 12 88-34 164-22 238 12 50 22 80 20 100 8" fill="none" stroke="#fff" stroke-width="8" opacity="0.64"/>
  <g opacity="0.72">
    <circle cx="70" cy="118" r="12" fill="#062043"/><circle cx="128" cy="94" r="10" fill="#fff"/><circle cx="198" cy="116" r="11" fill="#062043"/>
    <circle cx="310" cy="154" r="10" fill="#fff"/><circle cx="392" cy="126" r="12" fill="#062043"/><circle cx="506" cy="118" r="11" fill="#fff"/>
    <circle cx="640" cy="152" r="12" fill="#062043"/><circle cx="742" cy="160" r="10" fill="#fff"/><circle cx="870" cy="128" r="12" fill="#062043"/>
    <circle cx="984" cy="118" r="10" fill="#fff"/><circle cx="1108" cy="150" r="12" fill="#062043"/>
  </g>
</svg>
