<svg width="220" height="72" viewBox="0 0 220 72" fill="none" xmlns="http://www.w3.org/2000/svg">
  <defs>
    <linearGradient id="tail" x1="1" y1="36" x2="178" y2="36" gradientUnits="userSpaceOnUse">
      <stop stop-color="#FFFFFF" stop-opacity="0"/>
      <stop offset="0.38" stop-color="#AEEBFF" stop-opacity="0.34"/>
      <stop offset="0.76" stop-color="#FFD5F2" stop-opacity="0.82"/>
      <stop offset="1" stop-color="#FFFFFF"/>
    </linearGradient>
    <radialGradient id="core" cx="0" cy="0" r="1" gradientUnits="userSpaceOnUse" gradientTransform="translate(184 36) rotate(90) scale(21)">
      <stop stop-color="#FFFFFF"/>
      <stop offset="0.36" stop-color="#FFE3F5"/>
      <stop offset="0.72" stop-color="#C9B8FF" stop-opacity="0.74"/>
      <stop offset="1" stop-color="#8EE8FF" stop-opacity="0"/>
    </radialGradient>
    <filter id="glow" x="0" y="0" width="220" height="72" color-interpolation-filters="sRGB">
      <feGaussianBlur stdDeviation="2.8" result="blur"/>
      <feColorMatrix in="blur" type="matrix" values="1 0 0 0 0.78 0 1 0 0 0.55 0 0 1 0 1 0 0 0 0.82 0"/>
      <feBlend in="SourceGraphic" mode="screen"/>
    </filter>
  </defs>
  <g filter="url(#glow)">
    <path d="M2 36C46 28 93 27 178 35" stroke="url(#tail)" stroke-width="5" stroke-linecap="round"/>
    <path d="M52 45C83 39 119 39 171 40" stroke="url(#tail)" stroke-width="2" stroke-linecap="round" opacity="0.72"/>
    <path d="M84 25C116 28 143 30 175 33" stroke="url(#tail)" stroke-width="2.4" stroke-linecap="round" opacity="0.58"/>
    <circle cx="184" cy="36" r="21" fill="url(#core)"/>
    <circle cx="184" cy="36" r="7" fill="#FFFFFF"/>
    <path d="M184 17L188.4 31.6L203 36L188.4 40.4L184 55L179.6 40.4L165 36L179.6 31.6L184 17Z" fill="#FFFFFF" opacity="0.94"/>
    <circle cx="206" cy="30" r="2.8" fill="#FFFFFF" opacity="0.86"/>
    <circle cx="160" cy="47" r="2.2" fill="#FFE3F5" opacity="0.82"/>
  </g>
</svg>
