<svg xmlns="http://www.w3.org/2000/svg" viewBox="0 0 460 460" role="img" aria-label="Circuit map">
  <defs>
    <radialGradient id="node" cx=".5" cy=".5" r=".5">
      <stop stop-color="#E8E8F0"/>
      <stop offset=".4" stop-color="#00F5FF"/>
      <stop offset="1" stop-color="#00F5FF" stop-opacity="0"/>
    </radialGradient>
  </defs>
  <rect width="460" height="460" fill="none"/>
  <g fill="none" stroke="#00F5FF" stroke-width="3" stroke-linecap="square" opacity=".68">
    <path d="M62 82h92v78h92v78h152"/>
    <path d="M84 340h96v-76h86v-86h98"/>
    <path d="M224 44v92M224 318v92M44 224h110M308 224h108"/>
    <path d="M138 138l-62 62v78M322 138l62 62v98"/>
  </g>
  <g fill="url(#node)">
    <circle cx="62" cy="82" r="15"/><circle cx="154" cy="160" r="15"/><circle cx="246" cy="238" r="15"/>
    <circle cx="398" cy="238" r="15"/><circle cx="84" cy="340" r="15"/><circle cx="364" cy="178" r="15"/>
    <circle cx="224" cy="44" r="15"/><circle cx="224" cy="410" r="15"/>
  </g>
  <g stroke="#FF2D78" stroke-width="2" opacity=".7">
    <path d="M112 264h52M294 96h58M276 356h64"/>
  </g>
</svg>
