<svg xmlns="http://www.w3.org/2000/svg" viewBox="0 0 240 60" fill="none">
  <!-- Gavel Icon -->
  <g transform="translate(10, 10)" stroke="#1E78C8" stroke-width="2" stroke-linecap="round" stroke-linejoin="round">
    <path d="M 14 5 L 26 17 M 10 9 L 22 21 M 26 5 L 35 14" />
    <rect x="5" y="27" width="22" height="6" rx="1" fill="#8ABBEA" stroke-width="1.5" />
    <path d="M 16 13 L 5 30" />
  </g>
  <!-- Law Book Icon -->
  <g transform="translate(70, 10)" stroke="#1E78C8" stroke-width="2" stroke-linecap="round" stroke-linejoin="round">
    <rect x="10" y="5" width="20" height="30" rx="3" fill="#FFFFFF" />
    <path d="M 15 5 L 15 35 M 20 12 L 25 12 M 20 18 L 25 18 M 20 24 L 25 24" />
    <path d="M 10 30 C 15 30 15 35 10 35 Z" fill="#8ABBEA" />
  </g>
  <!-- Shield of Justice Icon -->
  <g transform="translate(130, 10)" stroke="#1E78C8" stroke-width="2" stroke-linecap="round" stroke-linejoin="round">
    <path d="M 12 5 C 20 5 28 8 28 8 C 28 20 22 28 12 33 C 2 28 2 20 2 8 C 2 8 10 5 12 5 Z" fill="#FFFFFF" />
    <path d="M 12 10 L 12 28 M 7 15 L 17 15" />
  </g>
  <!-- Pen Nib Icon -->
  <g transform="translate(190, 10)" stroke="#1E78C8" stroke-width="2" stroke-linecap="round" stroke-linejoin="round">
    <path d="M 12 5 L 22 17 L 18 31 L 6 31 L 2 17 Z" fill="#FFFFFF" />
    <line x1="12" y1="5" x2="12" y2="21" />
    <circle cx="12" cy="21" r="2.5" fill="#8ABBEA" stroke="none" />
  </g>
</svg>
