<svg xmlns="http://www.w3.org/2000/svg" viewBox="0 0 720 220" aria-hidden="true"><path d="M32 54h656v64c0 36-28 64-64 64H96c-36 0-64-28-64-64Z" fill="#F8FCFF" stroke="#4D91C6" stroke-width="10"/><path d="M32 54h82v128H96c-36 0-64-28-64-64Zm164 0h82v128h-82Zm164 0h82v128h-82Zm164 0h82v128h-82Z" fill="#A9D7F4" opacity=".95"/><path d="M114 54h82v128h-82Zm164 0h82v128h-82Zm164 0h82v128h-82Zm164 0h82v64c0 36-28 64-64 64h-18Z" fill="#FFF1D6"/><path d="M40 54h640M72 182c22 18 48 18 70 0 22 18 48 18 70 0 22 18 48 18 70 0 22 18 48 18 70 0 22 18 48 18 70 0 22 18 48 18 70 0 22 18 48 18 70 0" fill="none" stroke="#D7A86E" stroke-width="8" stroke-linecap="round"/></svg>
