<svg xmlns="http://www.w3.org/2000/svg" viewBox="0 0 240 80" aria-hidden="true"><g fill="none" stroke="#2F6F9F" stroke-width="4" stroke-linecap="round" stroke-linejoin="round"><path d="M16 36h34v16a14 14 0 0 1-14 14h-6a14 14 0 0 1-14-14Z"/><path d="M50 40h9a8 8 0 0 1 0 16h-9"/><path d="M82 58c5-26 32-29 44-8-7 11-32 17-44 8Z"/><path d="M90 55c5-3 6-9 5-15M105 55c2-6 2-12 0-18M120 52c-2-5-5-10-10-14"/><path d="M148 34h34l-4 32h-26Z"/><path d="M154 34c0-10 7-16 14-16s14 6 14 16"/><path d="M204 62V24M196 32h16M220 22c10 14-2 24-14 18"/></g></svg>
