<svg xmlns="http://www.w3.org/2000/svg" viewBox="0 0 760 320" aria-hidden="true"><rect y="220" width="760" height="100" fill="#D7A86E" opacity=".28"/><ellipse cx="164" cy="218" rx="92" ry="22" fill="#2F6F9F" opacity=".14"/><path d="M112 142h96v54a42 42 0 0 1-42 42h-12a42 42 0 0 1-42-42Z" fill="#F8FCFF" stroke="#4D91C6" stroke-width="8"/><path d="M208 162h24a24 24 0 0 1 0 48h-24" fill="none" stroke="#4D91C6" stroke-width="8"/><rect x="340" y="116" width="226" height="134" rx="18" fill="#FFF9EF" stroke="#E7D2B6" stroke-width="7"/><path d="M368 154h160M368 190h132M368 226h90" stroke="#B8D9EC" stroke-width="6" stroke-linecap="round"/><path d="M604 214c20-34 72-38 94-4-22 22-66 28-94 4Z" fill="#FFF1D6" stroke="#D7A86E" stroke-width="7"/></svg>
