<svg xmlns="http://www.w3.org/2000/svg" viewBox="0 0 360 420" aria-hidden="true"><ellipse cx="152" cy="366" rx="112" ry="26" fill="#2F6F9F" opacity=".18"/><path d="M72 142h164v112c0 58-47 105-105 105S26 312 26 254V142Z" fill="#F8FCFF" stroke="#4D91C6" stroke-width="12"/><path d="M236 178h42c34 0 62 28 62 62s-28 62-62 62h-42v-38h38c13 0 24-11 24-24s-11-24-24-24h-38Z" fill="#FFF1D6" stroke="#4D91C6" stroke-width="12"/><path d="M78 142c24 20 60 20 84 0 24 20 60 20 84 0" fill="none" stroke="#D7A86E" stroke-width="9" stroke-linecap="round"/><path d="M98 96c-24-36 34-42 8-78M156 96c-24-36 34-42 8-78M214 96c-24-36 34-42 8-78" fill="none" stroke="#78BDE8" stroke-width="9" stroke-linecap="round" opacity=".75"/></svg>
