<svg xmlns="http://www.w3.org/2000/svg" viewBox="0 0 520 180" aria-hidden="true"><g class="crumbParticle"><path d="M48 126c14-70 100-78 132-15-28 33-94 42-132 15Z" fill="#FFF1D6" stroke="#D7A86E" stroke-width="8"/><path d="M78 121c15-12 16-35 10-55M118 126c9-22 5-44-5-62M156 116c-9-20-23-35-42-45" fill="none" stroke="#D7A86E" stroke-width="5" stroke-linecap="round"/><path d="M248 70h86l-10 72h-66Z" fill="#F8FCFF" stroke="#4D91C6" stroke-width="7"/><path d="M260 70c0-28 18-44 32-44 16 0 32 16 32 44" fill="#A9D7F4" stroke="#4D91C6" stroke-width="7"/><circle cx="408" cy="94" r="42" fill="#FFF1D6" stroke="#D7A86E" stroke-width="7"/><path d="M376 92c18 12 45 14 66-2" fill="none" stroke="#B87A84" stroke-width="6" stroke-linecap="round"/><path d="M398 54c-7-13 14-18 17-3" fill="none" stroke="#8DBA9A" stroke-width="6" stroke-linecap="round"/></g></svg>
