<svg width="420" height="320" viewBox="0 0 420 320" fill="none" xmlns="http://www.w3.org/2000/svg" role="img" aria-label="Open notebook pages">
  <rect x="28" y="28" width="364" height="264" rx="26" fill="#FFFDF7" stroke="#CFE5F4" stroke-width="8"/>
  <path d="M210 34V286" stroke="#CFE5F4" stroke-width="5"/>
  <path d="M66 88H178M66 122H164M66 156H184M66 190H150M240 88H354M240 122H330M240 156H362M240 190H318" stroke="#8DCBF5" stroke-width="7" stroke-linecap="round"/>
  <path d="M50 54C84 72 113 70 146 54" stroke="#B98245" stroke-width="8" stroke-linecap="round"/>
  <path d="M272 38L356 38L356 92" fill="#EFF8FF"/>
  <path d="M272 38H356V92" stroke="#CFE5F4" stroke-width="6" stroke-linejoin="round"/>
  <rect x="86" y="224" width="92" height="30" rx="15" fill="#B98245" opacity=".86"/>
  <rect x="246" y="224" width="78" height="30" rx="15" fill="#7B4D2E" opacity=".78"/>
</svg>
