<svg width="620" height="220" viewBox="0 0 620 220" fill="none" xmlns="http://www.w3.org/2000/svg" role="img" aria-label="Fountain pen and underline mark">
  <path d="M76 158C188 112 286 178 424 128C484 106 528 92 578 96" stroke="#2E86C1" stroke-width="13" stroke-linecap="round" opacity=".78"/>
  <path d="M120 130L414 52C440 45 466 60 474 86L478 100L144 188L120 130Z" fill="#183044"/>
  <path d="M418 52L482 34L500 98L478 100L474 86C466 60 440 45 418 52Z" fill="#C49A5A"/>
  <path d="M144 188L98 202L120 130L144 188Z" fill="#B98245"/>
  <path d="M104 190L78 206" stroke="#183044" stroke-width="8" stroke-linecap="round"/>
  <path d="M188 142L436 76" stroke="#EFF8FF" stroke-width="5" stroke-linecap="round" opacity=".5"/>
</svg>
