<svg width="640" height="210" viewBox="0 0 640 210" fill="none" xmlns="http://www.w3.org/2000/svg">
  <defs>
    <linearGradient id="fishBody" x1="0" y1="0" x2="88" y2="44" gradientUnits="userSpaceOnUse">
      <stop stop-color="#7DDEC3"/>
      <stop offset="0.55" stop-color="#7CCDF2"/>
      <stop offset="1" stop-color="#FFB7C8"/>
    </linearGradient>
    <filter id="fishGlow" x="-20" y="-20" width="680" height="250" filterUnits="userSpaceOnUse" color-interpolation-filters="sRGB">
      <feDropShadow dx="0" dy="8" stdDeviation="8" flood-color="#126B78" flood-opacity="0.24"/>
      <feDropShadow dx="0" dy="0" stdDeviation="8" flood-color="#FBFEFF" flood-opacity="0.72"/>
    </filter>
  </defs>
  <g filter="url(#fishGlow)" stroke="#18384A" stroke-width="4" stroke-linejoin="round">
    <g transform="translate(35 104) rotate(-8)">
      <path d="M0 23L28 3L29 43L0 23Z" fill="#FFD978"/>
      <path d="M27 23C47 -2 80 -3 101 23C80 49 47 48 27 23Z" fill="url(#fishBody)"/>
      <circle cx="82" cy="17" r="4" fill="#18384A" stroke="none"/>
    </g>
    <g transform="translate(188 64) rotate(9) scale(.78)">
      <path d="M0 23L28 3L29 43L0 23Z" fill="#FFB7C8"/>
      <path d="M27 23C47 -2 80 -3 101 23C80 49 47 48 27 23Z" fill="url(#fishBody)"/>
      <circle cx="82" cy="17" r="4" fill="#18384A" stroke="none"/>
    </g>
    <g transform="translate(328 118) rotate(-3) scale(.9)">
      <path d="M0 23L28 3L29 43L0 23Z" fill="#A7E4FF"/>
      <path d="M27 23C47 -2 80 -3 101 23C80 49 47 48 27 23Z" fill="url(#fishBody)"/>
      <circle cx="82" cy="17" r="4" fill="#18384A" stroke="none"/>
    </g>
    <g transform="translate(491 80) rotate(6) scale(.72)">
      <path d="M0 23L28 3L29 43L0 23Z" fill="#FFD978"/>
      <path d="M27 23C47 -2 80 -3 101 23C80 49 47 48 27 23Z" fill="url(#fishBody)"/>
      <circle cx="82" cy="17" r="4" fill="#18384A" stroke="none"/>
    </g>
  </g>
  <path d="M22 165C85 139 127 145 176 170C245 204 298 190 361 162C438 128 508 135 598 167" stroke="#FBFEFF" stroke-width="8" stroke-linecap="round" stroke-dasharray="2 22" opacity="0.82"/>
</svg>
