<svg width="520" height="260" viewBox="0 0 520 260" fill="none" xmlns="http://www.w3.org/2000/svg">
  <defs>
    <linearGradient id="boatPaper" x1="134" y1="88" x2="395" y2="203" gradientUnits="userSpaceOnUse">
      <stop stop-color="#fff8e9"/>
      <stop offset="0.52" stop-color="#ffd7e2"/>
      <stop offset="1" stop-color="#a7e4ff"/>
    </linearGradient>
    <linearGradient id="boatShadow" x1="100" y1="192" x2="440" y2="222" gradientUnits="userSpaceOnUse">
      <stop stop-color="#126b78" stop-opacity="0"/>
      <stop offset="0.5" stop-color="#126b78" stop-opacity="0.32"/>
      <stop offset="1" stop-color="#126b78" stop-opacity="0"/>
    </linearGradient>
    <filter id="softGlow" x="42" y="36" width="436" height="190" filterUnits="userSpaceOnUse" color-interpolation-filters="sRGB">
      <feDropShadow dx="0" dy="14" stdDeviation="16" flood-color="#18384A" flood-opacity="0.18"/>
      <feDropShadow dx="0" dy="0" stdDeviation="9" flood-color="#FFD978" flood-opacity="0.38"/>
    </filter>
  </defs>
  <ellipse cx="260" cy="207" rx="173" ry="16" fill="url(#boatShadow)"/>
  <g filter="url(#softGlow)">
    <path d="M63 174L231 113L286 203L63 174Z" fill="#fbfeff" stroke="#18384A" stroke-width="7" stroke-linejoin="round"/>
    <path d="M231 113L456 160L286 203L231 113Z" fill="url(#boatPaper)" stroke="#18384A" stroke-width="7" stroke-linejoin="round"/>
    <path d="M231 113L258 61L456 160L231 113Z" fill="#ffb7c8" stroke="#18384A" stroke-width="7" stroke-linejoin="round"/>
    <path d="M231 113L63 174L258 61L231 113Z" fill="#ffd978" stroke="#18384A" stroke-width="7" stroke-linejoin="round"/>
    <path d="M230 115L285 201" stroke="#b92c67" stroke-width="5" stroke-linecap="round"/>
    <path d="M135 151C170 156 199 151 229 134" stroke="#7ccdf2" stroke-width="5" stroke-linecap="round" opacity="0.78"/>
    <path d="M312 143C349 149 385 154 421 162" stroke="#fff8e9" stroke-width="5" stroke-linecap="round" opacity="0.88"/>
  </g>
  <circle cx="91" cy="95" r="8" fill="#FFD978" opacity="0.9"/>
  <circle cx="425" cy="89" r="5" fill="#FFB7C8" opacity="0.86"/>
  <circle cx="470" cy="205" r="7" fill="#A7E4FF" opacity="0.86"/>
</svg>
