<svg xmlns="http://www.w3.org/2000/svg" viewBox="0 0 520 220" role="img" aria-label="Pastel seashell collection">
  <g stroke="#18384A" stroke-opacity=".18" stroke-width="4" stroke-linecap="round">
    <path d="M76 166c0-70 88-116 132-28 18 36-24 66-66 66s-66-14-66-38z" fill="#FFB7C8"/>
    <path d="M142 92v106M106 116l36 82M176 116l-34 82"/>
    <path d="M278 174c-12-58 20-104 70-110 54-6 92 32 90 82-34 34-96 48-160 28z" fill="#A7E4FF"/>
    <path d="M320 80c8 38 14 70 10 106M368 78c-14 38-26 70-42 102M406 102c-28 28-48 48-78 78"/>
  </g>
  <path d="M244 152l14 24 28 6-20 20 4 28-26-13-25 13 5-28-20-20 28-6z" fill="#FFD978" opacity=".9"/>
</svg>
