<svg xmlns="http://www.w3.org/2000/svg" viewBox="0 0 1440 220" role="img" aria-label="Soft sandy shoreline with shells">
  <rect y="72" width="1440" height="148" fill="#FFEBC7"/>
  <path d="M0 72c166 46 290-44 466 0 160 40 280 40 442 0 178-44 326 38 532-12v70H0z" fill="#FBFEFF" opacity=".78"/>
  <path d="M0 96c160 36 300-36 470 0 158 34 294 34 456 0 166-34 314 22 514-18" fill="none" stroke="#A7E4FF" stroke-width="9" stroke-linecap="round" opacity=".62"/>
  <g fill="#FFB7C8" opacity=".82">
    <path d="M176 148c28-34 78-18 82 26-30 12-62 10-82-26z"/>
    <path d="M1158 146c28-32 78-16 80 26-28 14-62 10-80-26z"/>
  </g>
  <g fill="#FFD978" opacity=".86">
    <path d="M1036 142l13 24 27 5-19 19 4 28-25-13-25 13 5-28-20-19 27-5z"/>
    <circle cx="336" cy="188" r="7"/>
    <circle cx="918" cy="178" r="5"/>
    <circle cx="1260" cy="194" r="6"/>
  </g>
</svg>
