<svg width="360" height="300" viewBox="0 0 360 300" fill="none" xmlns="http://www.w3.org/2000/svg">
  <defs>
    <radialGradient id="starFill" cx="0" cy="0" r="1" gradientUnits="userSpaceOnUse" gradientTransform="translate(178 142) rotate(90) scale(120 132)">
      <stop stop-color="#FFD978"/>
      <stop offset="0.58" stop-color="#FFB7C8"/>
      <stop offset="1" stop-color="#B92C67"/>
    </radialGradient>
    <filter id="starShadow" x="35" y="14" width="292" height="274" filterUnits="userSpaceOnUse" color-interpolation-filters="sRGB">
      <feDropShadow dx="0" dy="16" stdDeviation="12" flood-color="#18384A" flood-opacity="0.2"/>
    </filter>
  </defs>
  <ellipse cx="182" cy="251" rx="112" ry="20" fill="#18384A" opacity="0.13"/>
  <g filter="url(#starShadow)">
    <path d="M178 29L210 105L292 89L237 151L279 224L197 192L137 254L132 166L51 129L130 103L178 29Z" fill="url(#starFill)" stroke="#18384A" stroke-width="7" stroke-linejoin="round"/>
    <path d="M174 99C185 119 191 139 192 164" stroke="#FFF8E9" stroke-width="6" stroke-linecap="round" opacity="0.72"/>
    <path d="M139 133C160 139 176 150 192 164" stroke="#FFF8E9" stroke-width="6" stroke-linecap="round" opacity="0.65"/>
    <path d="M224 132C210 145 201 154 192 164" stroke="#FFF8E9" stroke-width="6" stroke-linecap="round" opacity="0.65"/>
    <circle cx="156" cy="127" r="5" fill="#B92C67"/>
    <circle cx="197" cy="118" r="5" fill="#B92C67"/>
    <circle cx="211" cy="157" r="5" fill="#B92C67"/>
    <circle cx="171" cy="176" r="5" fill="#B92C67"/>
  </g>
</svg>
