<svg xmlns="http://www.w3.org/2000/svg" viewBox="0 0 520 260" role="img" aria-label="Golden sunset reflection on water">
  <defs>
    <linearGradient id="gold" x1="0" x2="1">
      <stop offset="0" stop-color="#FFD978" stop-opacity="0"/>
      <stop offset=".5" stop-color="#FFD978" stop-opacity=".9"/>
      <stop offset="1" stop-color="#FFD978" stop-opacity="0"/>
    </linearGradient>
  </defs>
  <path d="M220 0h80l48 260H172z" fill="url(#gold)" opacity=".44"/>
  <path d="M120 58c62 18 210 20 282 0" fill="none" stroke="#FFD978" stroke-width="8" stroke-linecap="round" opacity=".65"/>
  <path d="M80 116c98 24 260 24 362 0" fill="none" stroke="#FFEBC7" stroke-width="7" stroke-linecap="round" opacity=".72"/>
  <path d="M112 176c78 18 230 18 300 0" fill="none" stroke="#FFD978" stroke-width="6" stroke-linecap="round" opacity=".52"/>
  <g fill="#FBFEFF" opacity=".9">
    <path d="M96 38l6 14 14 6-14 6-6 14-6-14-14-6 14-6z"/>
    <path d="M420 82l5 11 11 5-11 5-5 11-5-11-11-5 11-5z"/>
    <path d="M260 206l4 9 9 4-9 4-4 9-4-9-9-4 9-4z"/>
  </g>
</svg>
