<svg xmlns="http://www.w3.org/2000/svg" viewBox="0 0 1440 760" role="img" aria-label="Pastel sunset sky over a calm ocean">
  <defs>
    <linearGradient id="sky" x1="0" x2="0" y1="0" y2="1">
      <stop offset="0" stop-color="#EEF9FF"/>
      <stop offset=".45" stop-color="#FFD7E2"/>
      <stop offset=".76" stop-color="#FFEBC7"/>
      <stop offset="1" stop-color="#A7E4FF"/>
    </linearGradient>
    <radialGradient id="sun" cx="50%" cy="42%" r="26%">
      <stop offset="0" stop-color="#FFD978"/>
      <stop offset=".48" stop-color="#FFD978" stop-opacity=".86"/>
      <stop offset="1" stop-color="#FFD978" stop-opacity="0"/>
    </radialGradient>
  </defs>
  <rect width="1440" height="760" fill="url(#sky)"/>
  <circle cx="230" cy="310" r="150" fill="url(#sun)"/>
  <path d="M0 500c180-42 262 18 432-18 174-36 302-56 472-14 176 44 310 26 536-20v312H0z" fill="#A7E4FF" opacity=".42"/>
  <path d="M0 538c260-30 348 36 556 4 198-30 304-54 480-12 144 34 240 20 404-24v254H0z" fill="#7CCDF2" opacity=".34"/>
  <path d="M74 188c86-48 196-36 270 18 88-50 222-22 286 34-182 8-374 12-556-52z" fill="#fff" opacity=".34"/>
  <path d="M926 150c96-40 218-24 286 32 78-22 146-4 190 38-178 10-326 4-476-70z" fill="#fff" opacity=".3"/>
</svg>
