<svg xmlns="http://www.w3.org/2000/svg" viewBox="0 0 1440 320" role="img" aria-label="Layered pastel ocean waves">
  <defs>
    <linearGradient id="front" x1="0" x2="1">
      <stop offset="0" stop-color="#A7E4FF"/>
      <stop offset=".5" stop-color="#7CCDF2"/>
      <stop offset="1" stop-color="#FFB7C8"/>
    </linearGradient>
    <linearGradient id="foam" x1="0" x2="1">
      <stop offset="0" stop-color="#FBFEFF"/>
      <stop offset="1" stop-color="#FFD978"/>
    </linearGradient>
  </defs>
  <path d="M0 78c112-42 224 42 338 0s222-44 334 0 222 40 334 0 220-42 434 8v234H0z" fill="#A7E4FF" opacity=".54"/>
  <path d="M0 124c124-46 224 44 350 0 122-42 244-42 366 0 118 40 230 44 350 0 118-42 226-30 374 24v172H0z" fill="#7DDEC3" opacity=".42"/>
  <path d="M0 174c122-48 236 42 360 0 120-40 240-40 360 0s238 40 360 0c118-38 228-24 360 24v122H0z" fill="url(#front)" opacity=".78"/>
  <path d="M0 160c128 30 230-30 358 0s230 30 362 0 238-30 360 0 240 22 360-8" fill="none" stroke="url(#foam)" stroke-width="10" stroke-linecap="round" opacity=".72"/>
  <path d="M0 218c112 28 240-28 360 0s240 28 360 0 240-28 360 0 250 20 360-10" fill="none" stroke="#FBFEFF" stroke-width="8" stroke-linecap="round" opacity=".58"/>
</svg>
