<svg xmlns="http://www.w3.org/2000/svg" viewBox="0 0 360 300" role="img" aria-labelledby="title">
  <title id="title">AI ethics verification spark</title>
  <g class="sparkleDot">
    <path d="M174 22l18 52 52 18-52 18-18 52-18-52-52-18 52-18z" fill="#f7b801"/>
    <path d="M285 36l10 30 30 10-30 10-10 30-10-30-30-10 30-10z" fill="#ff6b4a"/>
  </g>
  <g class="sealPulse" transform="translate(66 116)">
    <path d="M108 0l94 34v70c0 62-40 110-94 130C54 214 14 166 14 104V34z" fill="#fffdf7" stroke="#d9362b" stroke-width="8"/>
    <path d="M70 112l28 28 62-74" fill="none" stroke="#f97316" stroke-width="14" stroke-linecap="round" stroke-linejoin="round"/>
  </g>
  <path d="M42 88h88c20 0 36 16 36 36v16H70c-20 0-36-16-36-36v-8c0-4 4-8 8-8z" fill="#ffe7b8" stroke="#f6b26b" stroke-width="5"/>
</svg>
