<svg xmlns="http://www.w3.org/2000/svg" viewBox="0 0 620 380" role="img" aria-labelledby="title">
  <title id="title">Digital case file cards</title>
  <g class="caseFile" transform="translate(38 58) rotate(-4)">
    <path d="M20 32h150l28 32h190c16 0 28 12 28 28v190c0 16-12 28-28 28H20c-16 0-28-12-28-28V60c0-16 12-28 28-28z" fill="#fffdf7" stroke="#f6b26b" stroke-width="6"/>
    <path d="M52 122h280M52 166h230M52 210h258" stroke="#f97316" stroke-width="12" stroke-linecap="round" opacity="0.85"/>
    <circle cx="358" cy="246" r="38" fill="#f7b801"/>
  </g>
  <g class="caseFile" transform="translate(236 26) rotate(6)">
    <rect x="0" y="0" width="326" height="250" rx="28" fill="#ffe7b8" stroke="#d9362b" stroke-width="6"/>
    <path d="M48 78h212M48 124h170M48 170h210" stroke="#351411" stroke-width="11" stroke-linecap="round" opacity="0.68"/>
    <path d="M238 26c30 4 48 24 48 54" fill="none" stroke="#f7b801" stroke-width="12" stroke-linecap="round"/>
  </g>
</svg>
