<svg xmlns="http://www.w3.org/2000/svg" viewBox="0 0 760 720" role="img" aria-labelledby="title">
  <title id="title">Large floating music notes</title>
  <g fill="none" stroke-linecap="round" stroke-linejoin="round">
    <path d="M146 210v260a62 62 0 1 1-42-58V174l178-44v260a62 62 0 1 1-42-58V154z" stroke="#d9362b" stroke-width="34" opacity="0.82"/>
    <path d="M500 112v224a54 54 0 1 1-36-50V82l146-34v224a54 54 0 1 1-36-50V66z" stroke="#f97316" stroke-width="28" opacity="0.72"/>
    <path d="M452 530c52-94 120-72 110-190" stroke="#f7b801" stroke-width="28" opacity="0.72"/>
    <circle cx="424" cy="574" r="48" fill="#ffd166" opacity="0.85"/>
  </g>
  <g fill="#fffdf7" opacity="0.82">
    <circle cx="196" cy="86" r="16"/>
    <circle cx="640" cy="412" r="14"/>
    <circle cx="104" cy="620" r="12"/>
  </g>
</svg>
