<svg xmlns="http://www.w3.org/2000/svg" viewBox="0 0 520 360" role="img" aria-labelledby="title">
  <title id="title">Open law book with concert light</title>
  <defs>
    <linearGradient id="page" x1="0" y1="0" x2="1" y2="1">
      <stop offset="0" stop-color="#fffdf7"/>
      <stop offset="1" stop-color="#ffe7b8"/>
    </linearGradient>
  </defs>
  <ellipse cx="260" cy="310" rx="210" ry="32" fill="#7e2d14" opacity="0.16"/>
  <g class="bookOpen">
    <path d="M258 82c-72-44-150-50-220-28v218c77-18 151-8 220 38z" fill="url(#page)" stroke="#f6b26b" stroke-width="5"/>
    <path d="M262 82c72-44 150-50 220-28v218c-77-18-151-8-220 38z" fill="url(#page)" stroke="#f6b26b" stroke-width="5"/>
    <path d="M260 82v226" stroke="#d9362b" stroke-width="5" stroke-linecap="round"/>
    <path d="M322 72l34-8v142l-17-17-17 27z" fill="#d9362b" class="bookmark"/>
  </g>
  <g class="sealPulse" transform="translate(205 150)">
    <circle cx="55" cy="55" r="44" fill="#f7b801" opacity="0.95"/>
    <circle cx="55" cy="55" r="34" fill="none" stroke="#d9362b" stroke-width="5"/>
    <path d="M55 27v55M33 48h44M42 48l-14 32h28zm40 0L68 80h28z" fill="none" stroke="#351411" stroke-width="5" stroke-linecap="round" stroke-linejoin="round"/>
  </g>
  <g class="stageBeam" opacity="0.5">
    <path d="M72 0h44l86 118H92z" fill="#ffd166"/>
    <path d="M448 0h-44l-86 118h110z" fill="#ff6b4a"/>
  </g>
</svg>
