<svg viewBox="0 0 400 400" fill="none" xmlns="http://www.w3.org/2000/svg">
  <defs>
    <radialGradient id="rc"><stop offset="0%" stop-color="#FFE4A8"/><stop offset="100%" stop-color="#FFD4B8"/></radialGradient>
    <linearGradient id="rp1" x1="0%" y1="0%" x2="100%" y2="100%"><stop offset="0%" stop-color="#FF8EC7" stop-opacity="0.8"/><stop offset="100%" stop-color="#FFB6D9" stop-opacity="0.2"/></linearGradient>
    <linearGradient id="rp2"><stop offset="0%" stop-color="#FFB6D9" stop-opacity="0.7"/><stop offset="100%" stop-color="#E8D5FF" stop-opacity="0.2"/></linearGradient>
    <radialGradient id="rg"><stop offset="0%" stop-color="#FF8EC7" stop-opacity="0.4"/><stop offset="100%" stop-color="transparent"/></radialGradient>
  </defs>
  <circle cx="200" cy="200" r="80" fill="url(#rg)" opacity="0.3"/>
  <circle cx="200" cy="200" r="20" fill="url(#rc)"/>
  <path d="M200 180 C180 140 140 130 160 100 C180 70 200 80 200 80 C200 80 220 70 240 100 C260 130 220 140 200 180Z" fill="url(#rp1)" opacity="0.85"/>
  <path d="M220 200 C260 180 270 140 300 160 C330 180 320 200 320 200 C320 200 330 220 300 240 C270 260 260 220 220 200Z" fill="url(#rp2)" opacity="0.8"/>
  <path d="M200 220 C220 260 260 270 240 300 C220 330 200 320 200 320 C200 320 180 330 160 300 C140 270 180 260 200 220Z" fill="url(#rp1)" opacity="0.8"/>
  <path d="M180 200 C140 220 130 260 100 240 C70 220 80 200 80 200 C80 200 70 180 100 160 C130 140 140 180 180 200Z" fill="url(#rp2)" opacity="0.75"/>
</svg>
