<svg viewBox="0 0 500 200" fill="none" xmlns="http://www.w3.org/2000/svg">
  <path d="M30 190 A220 170 0 0 1 470 190" stroke="#FF8EC7" stroke-width="4" fill="none" opacity="0.6" stroke-linecap="round"/>
  <path d="M30 190 A212 162 0 0 1 470 190" stroke="#FFB6D9" stroke-width="3.5" fill="none" opacity="0.6" stroke-linecap="round"/>
  <path d="M30 190 A204 154 0 0 1 470 190" stroke="#FFD4B8" stroke-width="3" fill="none" opacity="0.6" stroke-linecap="round"/>
  <path d="M30 190 A196 146 0 0 1 470 190" stroke="#FFE4A8" stroke-width="3" fill="none" opacity="0.6" stroke-linecap="round"/>
  <path d="M30 190 A188 138 0 0 1 470 190" stroke="#8EECD4" stroke-width="3" fill="none" opacity="0.6" stroke-linecap="round"/>
  <path d="M30 190 A180 130 0 0 1 470 190" stroke="#B8D4FF" stroke-width="3.5" fill="none" opacity="0.6" stroke-linecap="round"/>
  <path d="M30 190 A172 122 0 0 1 470 190" stroke="#D4A0FF" stroke-width="4" fill="none" opacity="0.6" stroke-linecap="round"/>
  <circle cx="150" cy="60" r="3" fill="#FFE4A8" opacity="0.5"/>
  <circle cx="250" cy="35" r="3" fill="#FFE4A8" opacity="0.5"/>
  <circle cx="350" cy="60" r="3" fill="#FFE4A8" opacity="0.5"/>
</svg>
