<svg xmlns="http://www.w3.org/2000/svg" viewBox="0 0 240 80" role="img" aria-labelledby="title desc">
  <title id="title">Cruise log icons</title>
  <desc id="desc">A six icon strip: anchor, helm, telescope, map, flag, and bell.</desc>
  <g fill="none" stroke="#1F3557" stroke-width="3" stroke-linecap="round" stroke-linejoin="round">
    <g transform="translate(20 14)">
      <circle cx="14" cy="8" r="5"/>
      <path d="M14 13v35M2 30c3 13 11 20 24 20s21-7 24-20M2 30h14M50 30H36M14 48l-8-8M14 48l8-8"/>
    </g>
    <g transform="translate(67 14)">
      <circle cx="20" cy="26" r="19"/>
      <circle cx="20" cy="26" r="5"/>
      <path d="M20 7v12M20 33v12M1 26h12M27 26h12M6 12l9 9M34 40l-9-9M34 12l-9 9M6 40l9-9"/>
    </g>
    <g transform="translate(114 18)">
      <path d="M4 31 31 4l10 10-27 27H4Z"/>
      <path d="M30 5 40 1l6 6-4 10M12 33l8 8"/>
    </g>
    <g transform="translate(154 16)">
      <path d="M4 8 18 3l16 5 14-5v43l-14 5-16-5-14 5Z"/>
      <path d="M18 3v43M34 8v43"/>
    </g>
    <g transform="translate(198 13)">
      <path d="M8 52V4"/>
      <path d="M8 6h32l-8 11 8 11H8Z"/>
    </g>
    <g transform="translate(206 44)">
      <path d="M6 19h28M10 19c0-13 4-20 10-20s10 7 10 20M20-1v-5M15 25h10"/>
    </g>
  </g>
  <g fill="#7DB7F0" opacity=".22">
    <circle cx="34" cy="40" r="24"/>
    <circle cx="88" cy="40" r="24"/>
    <circle cx="136" cy="40" r="24"/>
    <circle cx="178" cy="40" r="24"/>
    <circle cx="216" cy="24" r="18"/>
    <circle cx="226" cy="62" r="16"/>
  </g>
</svg>
