<svg xmlns="http://www.w3.org/2000/svg" viewBox="0 0 360 220" role="img" aria-labelledby="title desc">
  <title id="title">Lantern set</title>
  <desc id="desc">Three glowing paper lanterns hanging from a rope for sunset cruise decoration.</desc>
  <defs>
    <radialGradient id="glow" cx="50%" cy="48%" r="58%">
      <stop offset="0" stop-color="#FFF4CC"/>
      <stop offset=".55" stop-color="#FFD08A"/>
      <stop offset="1" stop-color="#F2789F"/>
    </radialGradient>
    <filter id="halo" x="-60%" y="-60%" width="220%" height="220%">
      <feGaussianBlur stdDeviation="8" result="blur"/>
      <feMerge>
        <feMergeNode in="blur"/>
        <feMergeNode in="SourceGraphic"/>
      </feMerge>
    </filter>
  </defs>
  <path d="M20 38c61-20 119-20 175 0s105 19 145-5" fill="none" stroke="#8F6A50" stroke-width="7" stroke-linecap="round"/>
  <g filter="url(#halo)" stroke="#2D2040" stroke-width="4" stroke-linecap="round" stroke-linejoin="round">
    <path d="M92 39v35"/>
    <ellipse cx="92" cy="120" rx="42" ry="54" fill="url(#glow)"/>
    <path d="M59 93h66M55 121h74M61 148h62M92 67v106M73 76c-18 31-18 62 0 92M111 76c18 31 18 62 0 92" fill="none" opacity=".55"/>
    <path d="M198 39v28"/>
    <ellipse cx="198" cy="108" rx="34" ry="44" fill="url(#glow)"/>
    <path d="M171 87h54M168 109h60M174 131h48M198 63v90M184 70c-14 25-14 51 0 77M212 70c14 25 14 51 0 77" fill="none" opacity=".55"/>
    <path d="M286 33v41"/>
    <ellipse cx="286" cy="126" rx="38" ry="50" fill="url(#glow)"/>
    <path d="M256 101h60M253 126h66M259 151h54M286 72v106M270 79c-16 29-16 58 0 88M302 79c16 29 16 58 0 88" fill="none" opacity=".55"/>
  </g>
</svg>
