<svg xmlns="http://www.w3.org/2000/svg" viewBox="0 0 720 180" role="img" aria-labelledby="title desc">
  <title id="title">Rope knot borders</title>
  <desc id="desc">A decorative rope divider with knot corners and repeated twisted strands.</desc>
  <defs>
    <pattern id="twist" width="34" height="18" patternUnits="userSpaceOnUse">
      <path d="M-4 15C9-2 24-2 38 15" fill="none" stroke="#6F91B8" stroke-width="5" stroke-linecap="round"/>
      <path d="M-4 3C9 20 24 20 38 3" fill="none" stroke="#9FC6EA" stroke-width="4" stroke-linecap="round"/>
    </pattern>
  </defs>
  <rect x="82" y="76" width="556" height="28" rx="14" fill="url(#twist)" stroke="#6F91B8" stroke-width="3"/>
  <g fill="none" stroke-linecap="round" stroke-linejoin="round">
    <g transform="translate(82 90)">
      <circle r="42" stroke="#6F91B8" stroke-width="10"/>
      <path d="M-42 0C-10-34 10 34 42 0M-42 0C-10 34 10-34 42 0" stroke="#9FC6EA" stroke-width="8"/>
      <path d="M-24-24 24 24M-24 24 24-24" stroke="#F2F8FF" stroke-width="4" opacity=".65"/>
    </g>
    <g transform="translate(638 90)">
      <circle r="42" stroke="#6F91B8" stroke-width="10"/>
      <path d="M-42 0C-10-34 10 34 42 0M-42 0C-10 34 10-34 42 0" stroke="#9FC6EA" stroke-width="8"/>
      <path d="M-24-24 24 24M-24 24 24-24" stroke="#F2F8FF" stroke-width="4" opacity=".65"/>
    </g>
  </g>
</svg>
