<svg xmlns="http://www.w3.org/2000/svg" viewBox="0 0 1440 720" role="img" aria-labelledby="title desc">
  <title id="title">Sunset sky gradient</title>
  <desc id="desc">A warm pink, orange, and twilight purple sunset sky with soft cloud silhouettes.</desc>
  <defs>
    <linearGradient id="sky" x1="0" x2="1" y1="0" y2="1">
      <stop offset="0" stop-color="#FFF5F0"/>
      <stop offset=".36" stop-color="#F2789F"/>
      <stop offset=".68" stop-color="#FFB088"/>
      <stop offset="1" stop-color="#C8A8E8"/>
    </linearGradient>
    <radialGradient id="sun" cx="65%" cy="30%" r="28%">
      <stop offset="0" stop-color="#FFD08A" stop-opacity=".95"/>
      <stop offset=".45" stop-color="#FFD08A" stop-opacity=".38"/>
      <stop offset="1" stop-color="#FFD08A" stop-opacity="0"/>
    </radialGradient>
    <filter id="soft" x="-20%" y="-20%" width="140%" height="140%">
      <feGaussianBlur stdDeviation="2.5"/>
    </filter>
  </defs>
  <rect width="1440" height="720" fill="url(#sky)"/>
  <rect width="1440" height="720" fill="url(#sun)"/>
  <g fill="#FFF0F5" opacity=".55" filter="url(#soft)">
    <path d="M96 210c35-42 84-47 124-13 24-35 72-48 111-23 34 21 45 54 39 84h-315c-11-19 7-37 41-48Z"/>
    <path d="M853 149c38-45 96-52 138-13 30-32 83-36 119-8 28 22 40 54 28 85H792c-13-24 11-49 61-64Z"/>
    <path d="M1134 300c24-28 62-32 90-8 19-23 55-27 81-7 21 16 30 40 21 63h-229c-9-17 5-36 37-48Z"/>
  </g>
  <g opacity=".22" fill="#2D2040">
    <circle cx="108" cy="92" r="2"/>
    <circle cx="172" cy="124" r="1.5"/>
    <circle cx="1218" cy="130" r="2"/>
    <circle cx="1268" cy="180" r="1.5"/>
  </g>
</svg>
