<svg xmlns="http://www.w3.org/2000/svg" viewBox="0 0 1440 260" role="img" aria-labelledby="title desc">
  <title id="title">Gentle wave layers</title>
  <desc id="desc">Three soft ocean teal wave layers for the sunset cruise background.</desc>
  <path d="M0 88c120-54 240-54 360 0s240 54 360 0 240-54 360 0 240 54 360 0v172H0Z" fill="#8FDDE7" opacity=".35"/>
  <path d="M0 132c102-42 203-42 305 0s203 42 305 0 203-42 305 0 203 42 305 0 146-42 220 0v128H0Z" fill="#8FDDE7" opacity=".52"/>
  <path d="M0 179c90-31 180-31 270 0s180 31 270 0 180-31 270 0 180 31 270 0 180-31 360 0v81H0Z" fill="#5AAEC6" opacity=".44"/>
  <g fill="none" stroke="#FFFFFF" stroke-linecap="round" opacity=".58">
    <path d="M74 125c42-16 84-16 126 0" stroke-width="6"/>
    <path d="M456 92c52-20 104-20 156 0" stroke-width="5"/>
    <path d="M812 153c46-18 92-18 138 0" stroke-width="6"/>
    <path d="M1128 114c58-22 116-22 174 0" stroke-width="5"/>
  </g>
</svg>
