<svg xmlns="http://www.w3.org/2000/svg" width="240" height="240" viewBox="0 0 240 240">
  <rect width="240" height="240" fill="#f8f5ee"/>
  <g opacity="0.38" fill="none" stroke-linecap="round">
    <path d="M8 28c32-9 55 8 91-4 29-9 56-3 91 5" stroke="#78949d" stroke-width="0.45"/>
    <path d="M18 74c38 7 61-10 103-1 31 6 58-5 98 4" stroke="#d4c1a2" stroke-width="0.4"/>
    <path d="M3 130c46-6 71 8 116-4 42-11 66 6 113-2" stroke="#78949d" stroke-width="0.35"/>
    <path d="M20 188c28 9 56-4 91 3 42 8 73-9 111 0" stroke="#d4c1a2" stroke-width="0.45"/>
  </g>
  <g opacity="0.22" fill="#2c3539">
    <circle cx="32" cy="48" r="0.8"/><circle cx="86" cy="20" r="0.6"/><circle cx="152" cy="46" r="0.7"/>
    <circle cx="214" cy="76" r="0.8"/><circle cx="44" cy="112" r="0.5"/><circle cx="121" cy="139" r="0.7"/>
    <circle cx="203" cy="151" r="0.5"/><circle cx="67" cy="210" r="0.8"/><circle cx="168" cy="205" r="0.6"/>
  </g>
</svg>
