<svg xmlns="http://www.w3.org/2000/svg" viewBox="0 0 1200 760" role="img" aria-label="open notebook spread">
  <defs>
    <linearGradient id="paper" x1="0" x2="1" y1="0" y2="1">
      <stop stop-color="#FFFFFF"/>
      <stop offset="1" stop-color="#F6FBFF"/>
    </linearGradient>
    <filter id="shadow" x="-20%" y="-20%" width="140%" height="140%">
      <feDropShadow dx="0" dy="30" stdDeviation="24" flood-color="#2D8BD8" flood-opacity=".22"/>
    </filter>
  </defs>
  <g filter="url(#shadow)">
    <path d="M92 74c178-42 348-35 508 34v594c-168-70-337-84-508-42Z" fill="url(#paper)" stroke="#C8E4F7" stroke-width="8"/>
    <path d="M600 108c169-67 338-75 508-34v586c-176-38-345-25-508 42Z" fill="url(#paper)" stroke="#C8E4F7" stroke-width="8"/>
    <path d="M600 112v590" stroke="#8EC5F2" stroke-width="8" opacity=".55"/>
    <path d="M158 176h366M158 238h366M158 300h366M158 362h366M158 424h366M158 486h366M158 548h366" stroke="#BFE8FF" stroke-width="5" stroke-linecap="round" opacity=".86"/>
    <path d="M678 176h366M678 238h366M678 300h366M678 362h366M678 424h366M678 486h366M678 548h366" stroke="#BFE8FF" stroke-width="5" stroke-linecap="round" opacity=".86"/>
    <path d="M214 108v520" stroke="#F8B9D4" stroke-width="6" opacity=".72"/>
    <path d="M734 108v520" stroke="#F8B9D4" stroke-width="6" opacity=".72"/>
    <path d="M1004 76h70v230l-34-24-36 24Z" fill="#F8B9D4" stroke="#E86D82" stroke-width="5"/>
    <path d="M148 110c28-12 92-18 168-12M688 114c80-24 180-28 300-12" stroke="#2D8BD8" stroke-width="9" stroke-linecap="round" opacity=".32"/>
  </g>
</svg>
