<svg xmlns="http://www.w3.org/2000/svg" viewBox="0 0 820 520" role="img" aria-label="notebook entry cards">
  <defs><filter id="sh" x="-20%" y="-20%" width="140%" height="140%"><feDropShadow dx="0" dy="18" stdDeviation="14" flood-color="#2D8BD8" flood-opacity=".2"/></filter></defs>
  <g filter="url(#sh)">
    <rect x="92" y="82" width="300" height="326" rx="16" fill="#FFFFFF" stroke="#C8E4F7" stroke-width="6" transform="rotate(-4 242 245)"/>
    <rect x="424" y="72" width="304" height="340" rx="16" fill="#FDF7FF" stroke="#D9CCFF" stroke-width="6" transform="rotate(4 576 242)"/>
    <rect x="130" y="104" width="118" height="44" rx="12" fill="#F8B9D4"/>
    <rect x="468" y="102" width="118" height="44" rx="12" fill="#C8F3E4"/>
    <path d="M136 190h198M136 236h220M136 282h168M136 328h202" stroke="#8EC5F2" stroke-width="7" stroke-linecap="round" opacity=".62"/>
    <path d="M474 190h198M474 236h220M474 282h168M474 328h202" stroke="#8EC5F2" stroke-width="7" stroke-linecap="round" opacity=".62"/>
    <path d="M116 168h248M454 168h244" stroke="#2D8BD8" stroke-width="8" stroke-linecap="round" opacity=".34"/>
  </g>
  <path d="M226 446c88-30 172-20 252 0s158 24 238-10" fill="none" stroke="#2D8BD8" stroke-width="10" stroke-linecap="round" opacity=".38"/>
</svg>
