<svg xmlns="http://www.w3.org/2000/svg" viewBox="0 0 1200 800" role="img" aria-label="floating paper particles and ink dots">
  <g opacity=".82">
    <rect x="100" y="132" width="54" height="42" rx="8" fill="#FFFFFF" stroke="#C8E4F7" stroke-width="4" transform="rotate(-16 127 153)"/>
    <rect x="324" y="92" width="42" height="32" rx="7" fill="#FFE6F2" stroke="#F8B9D4" stroke-width="4" transform="rotate(12 345 108)"/>
    <rect x="870" y="138" width="64" height="48" rx="8" fill="#F4FFF9" stroke="#C8F3E4" stroke-width="4" transform="rotate(18 902 162)"/>
    <rect x="1034" y="408" width="50" height="38" rx="8" fill="#FFFFFF" stroke="#D9CCFF" stroke-width="4" transform="rotate(-10 1059 427)"/>
    <rect x="186" y="596" width="58" height="44" rx="8" fill="#FDF7FF" stroke="#D9CCFF" stroke-width="4" transform="rotate(11 215 618)"/>
    <rect x="620" y="636" width="48" height="36" rx="8" fill="#FFFFFF" stroke="#C8E4F7" stroke-width="4" transform="rotate(-18 644 654)"/>
  </g>
  <g fill="#2D8BD8" opacity=".34"><circle cx="218" cy="260" r="8"/><circle cx="410" cy="210" r="5"/><circle cx="766" cy="252" r="7"/><circle cx="1000" cy="262" r="6"/><circle cx="328" cy="480" r="7"/><circle cx="780" cy="522" r="5"/><circle cx="940" cy="630" r="8"/></g>
  <g fill="#F8B9D4" opacity=".72"><path d="M512 138l10 22 24 3-18 16 5 24-21-12-21 12 5-24-18-16 24-3Z"/><path d="M104 430l8 18 20 2-15 13 4 20-17-10-17 10 4-20-15-13 20-2Z"/><path d="M1090 104l7 15 17 2-13 11 4 17-15-8-15 8 4-17-13-11 17-2Z"/></g>
</svg>
