<svg xmlns="http://www.w3.org/2000/svg" viewBox="0 0 1600 1000" role="img" aria-label="pastel blue rainy window">
  <defs>
    <linearGradient id="sky" x1="0" x2="1" y1="0" y2="1">
      <stop stop-color="#EAF5FF"/>
      <stop offset="0.42" stop-color="#BFE8FF"/>
      <stop offset="0.74" stop-color="#F8B9D4"/>
      <stop offset="1" stop-color="#D9CCFF"/>
    </linearGradient>
    <filter id="glow" x="-20%" y="-20%" width="140%" height="140%">
      <feGaussianBlur stdDeviation="12" result="blur"/>
      <feMerge><feMergeNode in="blur"/><feMergeNode in="SourceGraphic"/></feMerge>
    </filter>
    <pattern id="rain" width="95" height="140" patternUnits="userSpaceOnUse" patternTransform="rotate(10)">
      <path d="M18 8v78M60 40v92M88 4v58" stroke="#ffffff" stroke-width="5" stroke-linecap="round" opacity=".55"/>
      <path d="M20 96v28M62 4v22" stroke="#2D8BD8" stroke-width="3" stroke-linecap="round" opacity=".32"/>
    </pattern>
  </defs>
  <rect width="1600" height="1000" fill="url(#sky)"/>
  <path d="M0 720C210 636 348 764 528 690c185-76 275-228 490-176 203 49 280 222 582 106v380H0Z" fill="#C8F3E4" opacity=".62"/>
  <path d="M0 640c190-120 360-36 540-84 248-67 341-208 585-126 142 48 258 102 475 22v548H0Z" fill="#8EC5F2" opacity=".34"/>
  <rect x="110" y="78" width="1380" height="756" rx="38" fill="#ffffff" opacity=".26"/>
  <rect x="150" y="116" width="1300" height="680" rx="28" fill="url(#rain)" opacity=".85"/>
  <path d="M800 118v678M150 454h1300" stroke="#FFFFFF" stroke-width="18" opacity=".72"/>
  <path d="M174 152h1254M178 760h1246" stroke="#18324A" stroke-width="8" opacity=".11"/>
  <g filter="url(#glow)">
    <path d="M1244 182c70 16 104 68 88 128-17 61-82 94-152 72-71-22-107-83-84-142 22-57 77-74 148-58Z" fill="#FFE6F2" opacity=".82"/>
    <path d="M1188 268c38-30 94-30 133 0" stroke="#FFFFFF" stroke-width="10" stroke-linecap="round" opacity=".68"/>
  </g>
</svg>
